<?xml version="1.0" encoding="UTF-8"?>
<svg id="Layer_1" data-name="Layer 1" xmlns="http://www.w3.org/2000/svg" viewBox="0 0 847.91 156.74">
  <defs>
    <style>
      .cls-1 {
        fill: #210905;
      }

      .cls-2 {
        fill: #dfcbb4;
      }

      .cls-3 {
        fill: #6d240b;
      }

      .cls-4 {
        fill: #3a0f05;
      }

      .cls-5 {
        fill: #e48b37;
      }

      .cls-6 {
        fill: #7e2d0d;
      }

      .cls-7 {
        fill: #cd671e;
      }

      .cls-8 {
        fill: #f3f2f2;
      }

      .cls-9 {
        fill: #f0f0f0;
      }

      .cls-10 {
        fill: #ede6e0;
      }

      .cls-11 {
        fill: #994014;
      }

      .cls-12 {
        fill: #be591a;
      }

      .cls-13 {
        fill: #551a08;
      }

      .cls-14 {
        fill: #b8b5b3;
      }

      .cls-15 {
        fill: #8d827d;
      }
    </style>
  </defs>
  <path class="cls-5" d="M579.75,131.48c.12,3.29,4.42,5.13,2.61,9.05-4.26,9.23-11.48,5.92-22.67,6.44l-.09-28.56c8.5.36,16.91-2.65,21.25,4.4,1.47,2.39-1.19,6.13-1.1,8.67ZM574.09,124.36c-2.36-1.26-5.3-1.51-7.85-.79-1.78.5-1.41,4.09-.73,5.28.89,1.56,7.53.98,9.03-.46.78-.75,1.19-3.16-.45-4.03ZM575.12,140.93c1.45-2.09,1.17-5.06-1.13-5.78-2.82-.88-5.58-.74-8.43-.38-.54,2.41-.49,4.25-.05,6.67,3.14.92,6.15.7,9.61-.51Z"/>
  <path class="cls-5" d="M689.71,141.85c-4.84,6.87-15.93,7.54-21.58,1.85-5.75-5.79-5.93-16.49-.12-22.35s16.79-4.74,21.54,1.62c3.84,5.13,4.06,13.33.15,18.88ZM686.19,132.2c-.27-5.79-3.8-9.35-8.38-9.22-5.21.15-7.85,4.43-7.84,9.58,0,5.65,3.15,9.88,8.7,9.75,4.59-.1,7.79-4.56,7.53-10.12Z"/>
  <path class="cls-5" d="M536.56,134.47c-3.5,1.49-7.42-.33-11.49.74-1.71.45-1.93,5.47-.41,5.97,4.26,1.39,9.16-.41,13.63.75,1.3.34,1.25,4.81-.08,4.87-6.57.29-13.37.18-19.8-.03l-.05-28.31,20.15-.21c.51,1.65.55,3.2.04,4.79l-14,.87c-1.19.4-1.02,4.71.12,5.33l11.67.36c.96.56,1.14,4.14.23,4.87Z"/>
  <path class="cls-5" d="M627.71,132.14c-.22,3.97,1.34,7.2,3.9,8.78,6.88,4.25,9.65-5.16,13.42-.61.95,1.14,1.1,2.95-.92,4.35-5.16,3.56-13.31,4.18-18.27-.77-6.18-6.15-5.74-17.84,1.23-23.34,5.82-4.59,15.17-3.3,19.48,2.48.89,1.2-2.91,4.22-4.02,3.39-2.92-2.17-5.95-3.91-9.48-2.73-2.96.99-5.09,4.1-5.33,8.45Z"/>
  <path class="cls-15" d="M244.37,149.28l41.07.28c3.96.03,7.65-.27,11.23,1.96-4.44,1.47-8.55,2.59-13.3,2.77-14.43.56-28.88,1.69-42.79,1.32-.91-2.19-9.4.71-10.61-2.82,2.24-2.23,15.48.07,9.53-3.18v-1.15c1.5,1.28,3.09.8,4.88.81Z"/>
  <path class="cls-15" d="M64.86,148.15c1.48-.12,2.29,1.85,3.49,2.42-.1.29,0,.65-.07.95-.37.23-.68.38-.55.62.48.83.99,1.54,1.51.82-.32,1.23-1.48,1.85-2.43,2.58-5.54-.32-11.07.13-17.2-.24-13.03-.79-25.64.15-38.04-1.65,1.08-1.02,2.35-2.14,2.05-3.74l29.99-.65c7.4-.16,14.39-.58,21.24-1.11Z"/>
  <path class="cls-13" d="M13.62,149.91c.3,1.6-.97,2.73-2.05,3.74-3.8-.55-7.99.59-11.57-1.84,4.79-1.86,9.27-1.8,13.62-1.9Z"/>
  <circle class="cls-5" cx="713.52" cy="144.09" r="3.13"/>
  <path class="cls-14" d="M134.56,149.32c.24.49,1.09.75,1.26,1.29.19.6.02,1.4.41,1.85,1.24,1.45,15.95,2.42,13.33-.86h7.99c-2.05,3.79,10.26,1.35,13.89,1.73,10.66,1.12,14.56-4.46,27.13-3.94.99.04,2.09.62,2.9,1.16.46.31.9,1.13,2.01,1.13l24.96-.08c1.08,0,1.7-1.3,1.22-1.79,3.27.25,6.57-.21,9.83-.2,5.94,3.25-7.29.95-9.53,3.18,1.21,3.53,9.71.63,10.61,2.82-4.88.82-9.83,1.12-15.45,1.12l-138.77-.07-19.55-1.12c.95-.73,2.11-1.35,2.43-2.58,1.03-.68,8.24.31,7.36-1.41h2c-.18.51-.23,2.06.97,2.06l33.04.04c.99,0,1.2-.97.99-1.49-.15-.36-.71-.43-1.2-.71l.12-.91c8.86.66,13.83-.84,22.05-1.23Z"/>
  <path class="cls-5" d="M493.63,118.98c.48-1.52,3.81-.65,5.47-.2l-8.5,28.01c-1.68.12-4.91.83-6.05-.35l-6.54-19.06-6.36,18.75c-.71,1.46-5.7,1.33-6.34-.19-3.57-8.59-5.37-18.07-8.39-27.21,2.26-.8,3.89-.47,5.73-.3l5.93,18.71,6.65-18.51c1.25-.75,4.04-.62,5.52-.06l6.85,19.53,6.01-19.11Z"/>
  <path class="cls-9" d="M545.31,36.38l12.63.06-14.66,58.58c-4.42.49-8.75.25-13.41.12l-9.18-36.11-8.76,36.12c-4.54.25-8.61.27-13.21-.07l-15.06-58.46c4.45-.33,8.84-.44,13.16,0l9.02,38.29,9.35-38.31,10.72-.17,10.58,37.01,8.82-37.07Z"/>
  <path class="cls-9" d="M611.39,94.76c-4.2,1.21-8.28.55-12.69.29l-20.05-35.16-.52,35.12c-3.85.6-8.02.31-12.35-.05l.04-58.36c4.1-.43,8.14-.28,12.38,0l19.65,33.64,1.04-33.46c3.75-.42,7.82-.34,12.15-.02l.34,57.99Z"/>
  <path class="cls-8" d="M367.49,78.14c-.09,12.73-11.26,17.22-21.01,17.17l-23.06-.12.16-58.72c12.97.85,37.18-4.58,41.73,10.62,2.06,6.88.57,13.38-6.33,17.74,5.38,2.72,8.56,6.76,8.51,13.31ZM352.93,54.83c.27-2.4-.09-5.53-2.93-6.6-4.4-1.66-9.12-1.09-13.49-1.01l.34,12.95c5.78.26,15.28,1.93,16.09-5.34ZM354.04,78.03c.18-3.1-1.25-6.17-4.98-6.92-4.07-.81-8.13-.48-12.19-.29l-.06,13.77c6.67.65,16.73,1.81,17.23-6.56Z"/>
  <path class="cls-8" d="M684.21,86.66c-6.59,12.2-28.88,7.86-41.23,8.63l-.03-58.6c12.07.28,36.91-4.57,41.08,10.39,1.95,7.01.14,13.38-6.29,17.46,8.95,4.2,11.1,13.58,6.48,22.12ZM666.05,60.19c4.14-.53,6.05-3.47,5.85-7.05-.43-7.66-10.13-6-16.05-5.87l-.11,12.87c3.45.43,6.84.5,10.31.05ZM672.83,78.87c.42-3.02-.34-6.63-3.99-7.64-4.32-1.2-8.79-.7-13.07-.48l.12,13.85c6.61.04,15.92,1.52,16.93-5.74Z"/>
  <path class="cls-9" d="M833.42,95.39l-10.29-20.82c-1.13-2.28-7.69-2.85-8.24-.18-1.44,7.05.1,13.73-.71,20.5-3.98.75-8.22.5-12.73.22l.17-58.61c14.13.79,38.33-5.27,42.56,13.35,1.95,8.58-1.57,16.06-9.77,20.38l13.48,24.82-14.48.34ZM828.01,60.96c3.09-1.24,3.43-4.52,3.4-6.83-.1-8.35-10.51-7.14-16.89-6.57-.2,5.06-.27,9.05.05,14.06,4.32.2,9,1.11,13.43-.66Z"/>
  <path class="cls-8" d="M400.58,74.89c-1.29-2.63-7.84-3.22-8.41-.49-1.48,7.02.12,13.68-.64,20.56-3.85.55-7.81.44-12.38.11l-.05-58.58c9.36.37,17.96-.69,26.51.18,9.43.96,15.57,7.77,15.81,16.93.19,7.25-2.81,13.36-9.62,16.79l12.6,24.68-13.87.18-9.95-20.35ZM405.24,60.82c3.07-1.4,3.17-5.01,2.92-7.56-.76-7.89-10.59-6.3-16.38-5.81l.05,14.24c4.25.18,9.06,1.13,13.41-.86Z"/>
  <path class="cls-8" d="M476.76,79.15c-1.13,11.05-11.4,16.66-21.3,17.22-12.86.72-23.54-7.78-23.5-20.82l.06-19.83c.04-13.12,10.79-20.75,23.39-20.31,11.54.4,21.63,7.89,21.78,20.27.09,7.48.41,15.34-.42,23.48ZM464.14,75.16l-.08-18.42c-.03-6.19-3.78-10.08-9.26-10.21s-9.76,3.9-9.62,10.1c.15,6.97-.28,13.96.28,20.88.47,5.79,5.19,8.23,10.26,7.83s8.45-4.04,8.42-10.18Z"/>
  <path class="cls-8" d="M775.14,84c-5.1-2.41-11.65-.42-17.09-.89-2.52,4.13-2.47,8.02-4.21,11.97-4.74.27-9.15.25-13.4-.2l18.82-58.14c4.95-.31,9.13-.51,13.68-.18l20.02,58.37c-4.35.68-8.88.73-13.62.17-1.69-2.97-1.42-7.94-4.19-11.1ZM772.37,72.21l-5.73-19.65-6.11,19.6c3.91.67,7.6.7,11.84.05Z"/>
  <path class="cls-9" d="M729.85,70.76l-19.32.33c-1.11,4.05-.61,8.2-.4,13.11l24.27.3c.76,3.43.64,6.93.17,10.7l-37.04.05.05-58.84,36.55.1c.49,3.69.21,6.87.21,10.6l-24.24.47c-.38,4.46-.23,8.5,0,12.98l19.72.15c.4,3.21.26,5.74.02,10.07Z"/>
  <path class="cls-10" d="M76.6,151.55c.89,1.72-6.33.73-7.36,1.41-.53.73-1.04.02-1.51-.82-.14-.24.18-.39.55-.62,2.77.13,5.55.03,8.33.03Z"/>
  <path class="cls-2" d="M228.37,116.36c-3.23,5.32,2.03.66-3.16,5.25-.08-1-.03-2.02.21-3,.75.12.77-.46.75-1-.13-3.9,5.73-26.16,4.32-34.76,2.47-1.26,4.3-4,7.28-4.99,1.94-.65,4.02-.61,4.7-2.48,1.2-3.33,24.6-5.35,25.92-5.68l5.08-1.26c3.48-.87,4.9-3.95,6.16-6.83.79-1.8,3.39-3.47,3.02-5.79.51-.57.95-1.34.94-2.21-.01-1.28-.03-2.41-1.11-3.08l-15.38-9.57c-2.93-1.82-3.36-5.89-5.49-8.29-1.31-1.48-1.34-3.4-4.32-4.18l-14.87-3.92c-6.2-1.64-12.1-4.07-15.57-10.37-2.61,1.71-2.89,3.64-3.96,5.26-1.34.9-2.67.82-4.65.28-9.1-2.5-18.33-2.77-27.66-4.18s-17.87-.98-27.06-1.45c-10.24-.52-19.51-4.51-28.96-6.69-3.89-.9-7.71-3.75-12.02-2.99-.59-.1-1.36-.84-2.06-.82l-13.54-.03c-15.05-.04-25.68,14.69-29.33,16.91-5.5,3.35-8.81,7.81-10.91,14.56-1.63,5.24-3.08,10.38-4.07,16.05l-1.31,7.51c-2.59,5.62-3.2,11.97-4.53,18.43-.78,3.78-2.12,7.28-3.05,10.65-.6,2.18-2.55,3.71-2.07,6.92,2.65,17.79,8.01,34.74,15.53,51.06.84,1.82,1.72,3.23,1.15,4.91-1.19-.57-2.01-2.54-3.49-2.42-.32-3.39-2.37-6.37-3.83-9.73-3.91-8.95-11.69-36.27-12.31-45.73-.21-3.21,2.52-6.04,3.23-8.84l2.86-11.2c.67-2.64,1.68-4.95-.56-7.14,7.17-8.42,2.08-10.72,8.95-28.68.78-2.04.21-5.23,1.08-6.55,1.28-1.94,3.53-3.22,4.67-5.61,2.46-5.15,8.51-7.49,12.2-11.39C88.92,5.04,98.29.77,109.73.3c4.62-.19,8.62-.8,13.59.58,9.61,2.67,19.1,5.38,28.62,8.59,5.71,1.92,11.48,2.92,17.62,2.6,10.38-.54,29.99,1.63,41.14,3.03,3.15.4,7.55,3.33,10.5.03,2.25-2.52,4.08-3.88,7.53-3.41,3.21.44,3.44,4.12,5.77,5.9,9.22,7.05,24.15,2.69,32.08,17.08,4.9,8.9,18.75,11,21.18,16.37s-4.54,10.35-6.53,14.24c-2.81,5.48-7.16,7.11-12.77,7.45-7.25.44-34.24,5.74-34.45,12.16-.24,7.65-2.86,24.94-5.63,31.44Z"/>
  <path class="cls-2" d="M229.3,134.75l9.02,9.06c2.05,2.06,5.78,2.58,6.06,5.47-1.78-.01-3.38.47-4.88-.81-5.61-4.78-11.81-9.48-20.4-9.21.59-3.37,2.37-6.31,3.67-9.54,1.98,1.39.32,3.63.13,6.06-.09,1.19,2.66,1.76,3.87,1.57,1.04-.17,1.53-1.78,2.55-2.61Z"/>
  <path class="cls-14" d="M229.3,134.75c-1.01.82-1.51,2.44-2.55,2.61-1.21.2-3.96-.38-3.87-1.57.19-2.43,1.85-4.67-.13-6.06,1.05-2.6.24-6.15,2.45-8.1,5.18-4.59-.07.08,3.16-5.25,1.37,5.16-6.7,14.55-.9,15.4,1.94.28,1.74,1.98,1.83,2.98Z"/>
  <path class="cls-1" d="M230.49,82.85c1.41,8.6-4.46,30.86-4.32,34.76-.37.22-.65.58-.75,1-.23.98-.29,2-.21,3-2.21,1.96-1.4,5.5-2.45,8.1-1.31,3.23-3.09,6.17-3.67,9.54,8.6-.27,14.8,4.43,20.4,9.21v1.15c-3.26,0-6.56.45-9.83.2-2.27-.17-4.6-.23-7.2.87l-21-.13c-.81-.54-1.91-1.12-2.9-1.16.01-3.12-3.7-4.6-4.79-6.87-2.65-5.55-15.43-24.37-15.43-24.56-.03-7.58,15.52-18.57,22.95-21.78,10.08-4.37,19.73-8.52,29.19-13.33Z"/>
  <path class="cls-4" d="M221.45,50.36c7.47.38,14.91.63,22.18,2.22,4.88,12.95,9.67,6.77,14.77,12.05,5.35,5.54,13.6,1.34,15.07,3.81l-5.08,1.26c-1.32.33-24.72,2.35-25.92,5.68-8.49,2.43-16.17,7.09-24.7,10.63-8.71,3.62-17.15,6.78-25.18,10.86,3.85-7.25,7.57-15.02,7.69-23.28.03-1.98.53-4.08.99-6.3s-1.34-3.37-1.96-4.83c-.98-2.3-1.65-5.32-2.26-7.66.15-.98.24-2.45.86-3.16.54-.63,2.31-1.45,3.56-1.17,7.08,1.59,13.48-.44,19.98-.11Z"/>
  <path class="cls-6" d="M92.66,37.82c-3.03-.85-6.23-2.64-9.83-.77-2.11,1.09-4.86,3.34-5.98,6.85-2.18-1.62-3.34-2.6-4.87-1.65-4.05,2.51-1.46,13.37-.31,14.13,5.63,3.71,9.67,8.27,14.8,12.38,6.11,4.9,14.74,6.32,20.99,10.79,4.41,3.16,8.53,5.04,13.71,3.95,1.89,8.74.59,18.65-2.37,27.44-2.02,1.84-7.68,1.3-9.66-.72-7.81-7.97-14.56-16.4-23.18-22.66-.08-.34-.05-.71-.18-1.04-.17-.45-.35-1.38-.99-1-.95-3.59-4.18-5.57-6.96-8.18-4.7-4.4-7.69-9.99-11.91-14.58-1.53.32-2.63.66-3.82.6l-.79-4.75,1.31-7.51c.99-5.67,2.44-10.81,4.07-16.05,2.09-6.75,5.41-11.22,10.91-14.56.52,5.67,3.87.13,4.48,9.69,3.97.32,9.51,4.1,10.58,7.65Z"/>
  <path class="cls-12" d="M113.58,4.61c-4.14,1.69,12.97,3.85,11.81,2.59l-2.85-2.78c4.31-.76,8.14,2.09,12.02,2.99l-3.09,1.1c3.64,2.95,8.32,3.76,12.19,6.01,8.87,5.17,9.91.49,19.6,13.7-.7,3.99-.37,8.55.31,12.53-2.11-.43-4.97-.63-7.06-2-4.04-2.64-8.1-1.35-11.84-2.18-4.74-1.05-9.42-2.65-14.68-3.45-1.88-.29-2.98-3.37-4.28-4.48-2.24-1.91-5.38-1.34-6.69.91-.7-1.16-.67-1.79-1.26-1.93.08-.75,1.2-2.72-.38-2.89-.72-.08-1.32,2.42-2.41,1.81-.49-.28-1.21-1.26-1.18-2.04.14-4.13-3.96-1.4-10.43-8.35,4.24-3.21,5.4-6.77,4.53-10.97,2.15-.72,3.92-.52,5.68-.58Z"/>
  <path class="cls-1" d="M67.72,105.99c-2.43,2.96,11.78,22.35,12.34,23.67,3.17,7.34,5.21,12.19,12.91,16.14,2.74,1.4,5.06,7,10.3,2.77-1.59-2.31-1.93-5.02-2.51-7.18,3.6,2.37,6.19,6.3,9.92,8.22l1.83.94-.12.91-33.8.1h-2c-2.77,0-5.55.1-8.33-.03.07-.3-.03-.66.07-.95.57-1.68-.31-3.09-1.15-4.91-7.51-16.32-12.88-33.27-15.53-51.06-.48-3.2,1.47-4.74,2.07-6.92,4.86,6.23,8.05,12.67,13.98,18.3Z"/>
  <path class="cls-6" d="M242.41,24.56l14.87,3.92c2.99.79,3.02,2.71,4.32,4.18-1.19,2.98-7.03.85-7.96,6.62-1,6.21,7.56,3.22,12.02,9.21,1.19,1.6,4.13.51,5.65,1.41,3.66,2.14,6.99,3.49,10.89,2.73.23.57.77.93,1.38.98.01.87-.43,1.64-.94,2.21-4.19-.47-8.67-.84-13.08-2.19-2.43-.74-4.24-2.62-7.08-2.09-3.62.67-7.45,2.6-10.9,2.2-2.54-.29-5.48-.62-7.96-1.17-7.27-1.59-14.71-1.84-22.18-2.22-1.76-5.03,1.72-5.91.98-10.83-.26-1.72,1.07-4.31.19-5.91,2.12-3.08,3.35-6.46,3.14-10.22,1.15-.2,2.4.23,2.62,1.07l.76,2.9c.49,1.86,3.64,1.62,5.5,3.31,1.91-3.38,5-3.35,8.49-3.24.15-1.29-.6-2.02-.72-2.86Z"/>
  <path class="cls-13" d="M84.8,85.52c.13.49.51.87.99,1,.12.33.1.7.18,1.04-2.76,4.28.17,13.32-3.44,16.98-4.54,4.6-11.59.87-14.81,1.45-5.93-5.63-9.12-12.07-13.98-18.3.93-3.37,2.26-6.87,3.05-10.65,1.34-6.46,1.94-12.8,4.53-18.43l.79,4.75c1.19.06,2.29-.28,3.82-.6,4.21,4.6,7.21,10.18,11.91,14.58,2.78,2.61,6.02,4.59,6.96,8.18Z"/>
  <path class="cls-7" d="M134.56,7.42c9.45,2.19,18.72,6.17,28.96,6.69,9.18.47,17.9.07,27.06,1.45s18.56,1.67,27.66,4.18c1.97.54,3.3.62,4.65-.28.64-.42,2.84.16,3.22.83.42.72-.39,2.26-.34,3.11.21,3.77-1.02,7.14-3.14,10.22-1.05-1.93.38-3.59.8-5.96-3.76-4.35-8.64-4.21-13.96-4.24-8.19-.06-18.55-5.35-27.75-1.52-.35.98.55,2.18.84,2.93-1.28,1.29-.97,3.21-.92,4.91-3.39-.38-2.26,11.23-7.09,12.38-3.06.73-1.25-1.9-7.17-.22-1.44.41-2.59-.88-3.8-1.12-.68-3.98-1.01-8.55-.31-12.53-9.69-13.21-10.73-8.54-19.6-13.7-3.87-2.26-8.55-3.06-12.19-6.01l3.09-1.1Z"/>
  <path class="cls-10" d="M242.47,75.38c-.67,1.87-2.75,1.83-4.7,2.48-2.98.99-4.82,3.73-7.28,4.99-9.47,4.82-19.11,8.97-29.19,13.33-7.42,3.21-22.97,14.2-22.95,21.78,0,.19,12.78,19,15.43,24.56-4.9,3.89-14.38.32-19.13,5-4.18-2.67-8.68-6.04-12.07-9.93-.21-3.39,3.55-6.33,5.39-8.45,3.52-4.06,3.38-9.47,5.84-13.37,1.76-2.79,3.47-6.47,6.21-8.7l12.57-10.19c8.03-4.08,16.47-7.24,25.18-10.86,8.53-3.55,16.21-8.2,24.7-10.63Z"/>
  <path class="cls-11" d="M120.48,3.61c-1.85,1.73-4.55.93-6.91,1.01-1.76.06-3.53-.15-5.68.58.87,4.2-.29,7.76-4.53,10.97,6.46,6.95,10.57,4.21,10.43,8.35-.03.78.69,1.76,1.18,2.04,1.08.61,1.69-1.89,2.41-1.81,1.58.17.47,2.14.38,2.89-7.87-1.98.27,5.77-4.24,8.68-2.42.09-1.05-4.31-1.98-5.41-2.69-3.15-7.72-2.27-10.63-.01-.93,3.51,1.12,11.94-3.09,12.16-2.04-.74-4.47-2.93-5.16-5.23-1.06-3.56-6.61-7.33-10.58-7.65-.6-9.56-3.96-4.01-4.48-9.69,3.65-2.22,14.27-16.95,29.33-16.91l13.54.03Z"/>
  <path class="cls-3" d="M282.65,55.82c.37,2.32-2.23,3.98-3.02,5.79-.84.15-1.86.64-2.4,1.74-1.2,2.44-3.65,2.57-5.86,1.29-11.91-6.92-15.54-1.57-19.79-10.89,3.46.4,7.28-1.53,10.9-2.2,2.84-.53,4.65,1.35,7.08,2.09,4.41,1.35,8.89,1.72,13.08,2.19Z"/>
  <path class="cls-11" d="M282.47,50.53c-.13.7-.22,1.4-.26,2.1-3.9.76-7.23-.58-10.89-2.73-1.53-.9-4.46.19-5.65-1.41-4.46-5.98-13.02-3-12.02-9.21.93-5.77,6.77-3.64,7.96-6.62,2.13,2.4,2.56,6.47,5.49,8.29l15.38,9.57Z"/>
  <path class="cls-13" d="M251.59,53.75c4.25,9.32,7.88,3.97,19.79,10.89,2.21,1.29,4.66,1.15,5.86-1.29.54-1.1,1.55-1.59,2.4-1.74-1.26,2.89-2.68,5.97-6.16,6.83-1.48-2.47-9.72,1.73-15.07-3.81s-9.89.9-14.77-12.05c2.48.54,5.41.88,7.96,1.17Z"/>
  <path class="cls-11" d="M242.41,24.56c.13.84.88,1.57.72,2.86-3.49-.11-6.58-.14-8.49,3.24-1.86-1.69-5.01-1.44-5.5-3.31l-.76-2.9c-.22-.84-1.48-1.26-2.62-1.07-.05-.85.76-2.39.34-3.11-.38-.66-2.58-1.24-3.22-.83,1.07-1.62,1.35-3.55,3.96-5.26,3.47,6.3,9.36,8.73,15.57,10.37Z"/>
  <path class="cls-7" d="M122.54,4.43l2.85,2.78c1.16,1.26-15.94-.9-11.81-2.59,2.35-.07,5.06.72,6.91-1.01.69-.02,1.47.71,2.06.82Z"/>
  <path class="cls-3" d="M283.59,53.61c-.61-.05-1.15-.4-1.38-.98.04-.71.14-1.41.26-2.1,1.08.67,1.1,1.8,1.11,3.08Z"/>
  <path class="cls-14" d="M225.42,118.61c.1-.42.38-.78.75-1,.02.54,0,1.12-.75,1Z"/>
  <path class="cls-1" d="M133.65,114.61c-.73,13.2,2.83,13.39,11.04,21.74,5.6,5.69,15.45,9.36,20.85,15.26l-7.99-.02h-7.99c-4.64.01-9.48,1.04-13.74-.98-.17-.54-1.01-.8-1.26-1.29-1.36-2.75-3.46-5.22-6.09-6.79l-14.07-18.82c-1.36-1.82-2.54-3.22-1.67-5.22,2.17-4.93,15.64-3.5,20.92-3.88Z"/>
  <path class="cls-2" d="M198.57,149.39c-12.56-.52-16.47,5.06-27.13,3.94-3.63-.38-15.94,2.06-13.89-1.74l7.99.02c3.83.01,7.53.38,11.97-.26-.96-1.36-1.8-3.02-2.86-3.83,4.75-4.69,14.23-1.11,19.13-5,1.08,2.27,4.8,3.76,4.79,6.87Z"/>
  <path class="cls-2" d="M128.47,142.53c2.63,1.56,4.73,4.04,6.09,6.79-8.22.4-13.19,1.9-22.05,1.23l-1.83-.94c-.09-1.86-1.46-3.53-1.22-5.68,11,.74,14.46-4.1,19.01-1.4Z"/>
  <path class="cls-10" d="M112.4,151.46c.49.28,1.05.35,1.2.71.21.51,0,1.49-.99,1.49l-33.04-.04c-1.2,0-1.15-1.55-.97-2.06l33.8-.1Z"/>
  <path class="cls-10" d="M229.66,149.81c.48.5-.14,1.79-1.22,1.79l-24.96.08c-1.11,0-1.54-.82-2.01-1.13l21,.13c2.59-1.1,4.92-1.05,7.2-.87Z"/>
  <path class="cls-2" d="M149.55,151.6c2.62,3.28-12.09,2.31-13.33.86-.38-.45-.22-1.24-.41-1.85,4.26,2.03,9.1.99,13.74.99Z"/>
  <path class="cls-13" d="M200.28,73.6c-.12,8.27-3.83,16.03-7.69,23.28l-12.57,10.19c-2.75,2.23-4.45,5.91-6.21,8.7-5.35,3.13.15,9.06-11.07,11.48-9.24,2-14.35,1.42-18.19-5.77-2.3-4.3-1.91-6.29-.04-10.65,1.39-3.24,2.15-4.37,4.95-6.45,4.69-3.5,6.83-9.87,10.98-13.66,10.14,3.68,6.99-2.95,16.59-6.29.09-4.65,1.77-7.77,4.46-10.83,1.97-2.24,1.01-6.03,4.41-8.35.23,5.09,8.18,10.49,9.97,10.37,1.53-.1,2.85-1.46,4.4-2.02Z"/>
  <path class="cls-3" d="M165.58,57.5l1.85.2c.65,1.3,2.31,2.62,1.77,4.18-.51,1.47-2.5,1.89-3.52,3.65,3.34.34,5.55-2.54,8.78-1.47-.74,1.96-1.86,2.62-1.49,3.6.5,1.32.58,3.68,2.35,2.32.63-.49-.98-2.05-.6-2.54s1.8-.66,2.26-1.13c3.97-4.09,9.3-4.99,14.66-2.41.77-1.15.67-2.3.92-3.28,2.43-.22,4.37,1.69,6.75,1.83.62,1.46,2.42,2.59,1.96,4.83s-.96,4.32-.99,6.3c-1.55.55-2.87,1.92-4.4,2.02-1.79.12-9.74-5.28-9.97-10.37-3.41,2.32-2.45,6.11-4.41,8.35-2.69,3.06-4.37,6.18-4.46,10.83-9.61,3.34-6.45,9.97-16.59,6.29l.1-8.74c1.09.17,3.46,1.29,4.4.1,1.13-1.42-1.32-2.68-3.1-2.65.79-2.06,2.14-3.77.92-6.04-7.02,4.09-11.36.2-12.46,6.4-3.01-.69-4.19,1.41-5.92,3.75-1.42,1.92-3.94,2.83-3.93,6.17-3.54.12-6.91-.47-8.8-2.97-.08-1.63,2.57.59,3.11.14,3.54-2.9,6.58-6.46,9.69-9.59-1.54-1.17-3.23-2.75-2.39-4.23,4.23-7.44-1.64-7.93,1.37-12.96,1.6-2.66,2.77.19,6.05-1.5,1.64-.85,2.83-1.89,4.4-3.86.63.84.76,1.69,1.6,2.32l4.22-2.39c1.83,1.74,3.67,2.6,5.86,2.84Z"/>
  <path class="cls-11" d="M222.43,39.52c.74,4.92-2.74,5.8-.98,10.83-6.51-.33-12.9,1.7-19.98.11-1.25-.28-3.02.54-3.56,1.17-.62.72-.71,2.19-.86,3.16-3.51-1.81-.44-5.05-4.65-14.2-1.29-2.8-2.05-5.55-1.92-8.26,1.14-2.61,8.91,1.61,10.61,2.78,1.5,1.04,3.09,4.83,5.57,4.24,3.17-.75,1.85-5.48,2.68-8.32,3.36,2.91,2.31,7.85,6.34,9.29,2.23.79,4.75-.92,6.74-.82Z"/>
  <path class="cls-5" d="M190.48,32.35c-.13,2.71.63,5.46,1.92,8.26,4.21,9.15,1.14,12.39,4.65,14.2.61,2.33,1.27,5.36,2.26,7.66-2.38-.14-4.31-2.05-6.75-1.83-.78-4.73-6.89-1.46-6.23-7.07.44-3.8-1.37-7.43-2.2-11.5l-2.5-12.33c-.04-1.7-.36-3.62.92-4.91,3.62,1.24,5.46,4.75,7.93,7.53Z"/>
  <path class="cls-4" d="M131.67,86.73c1.89,2.5,5.26,3.09,8.8,2.97-.02-3.34,2.5-4.25,3.93-6.17,1.73-2.33,2.91-4.44,5.92-3.75,2.33,4.72,4.15,1.24,10.24,2.19l-.1,8.74c-4.16,3.8-6.29,10.17-10.98,13.66-2.8,2.09-3.56,3.22-4.95,6.45-1.88,4.37-2.26,6.35.04,10.65,3.84,7.19,8.96,7.77,18.19,5.77,11.22-2.42,5.72-8.36,11.07-11.48-2.46,3.9-2.32,9.31-5.84,13.37-1.84,2.12-5.6,5.06-5.39,8.45,3.39,3.88,7.89,7.26,12.07,9.93,1.06.82,1.91,2.47,2.86,3.83-4.44.64-8.15.27-11.97.26-5.41-5.9-15.25-9.57-20.85-15.26-8.21-8.35-11.77-8.54-11.04-21.74,1.44-2.19,5.41-.35,6.21-4.15-10.22,3.47-18.48,1.79-28.74,3.33-5.4,7.55-9.71,14.62-14.1,22.84,1.32,1.68,2.39,3.87,3.74,4.76.58,2.16.92,4.87,2.51,7.18-5.24,4.23-7.56-1.37-10.3-2.77-7.71-3.95-9.75-8.8-12.91-16.14-.57-1.32-14.77-20.71-12.34-23.67,3.22-.58,10.27,3.16,14.81-1.45,3.61-3.66.68-12.7,3.44-16.98,8.62,6.26,15.37,14.69,23.18,22.66,1.98,2.02,7.65,2.55,9.66.72,2.96-8.79,4.25-18.7,2.37-27.44-.54-2.48.65-5.31-.15-7.81,3.02,4.22,5.56,9.43,10.65,11.03Z"/>
  <path class="cls-3" d="M92.66,37.82c.69,2.3,3.12,4.49,5.16,5.23,4.83,5.71,2.91,11.75,13.73,12.88-1.72,4.17,4.1,14.64,5.44,15.06,2.67.84,4.41,1.99,4.04,4.7.81,2.5-.38,5.33.15,7.81-5.18,1.09-9.29-.79-13.71-3.95-6.25-4.47-14.88-5.89-20.99-10.79-5.13-4.11-9.17-8.67-14.8-12.38-1.15-.76-3.74-11.62.31-14.13,1.53-.95,2.7.04,4.87,1.65,1.12-3.51,3.87-5.76,5.98-6.85,3.61-1.87,6.81-.08,9.83.77Z"/>
  <path class="cls-4" d="M85.79,86.53c-.48-.13-.86-.51-.99-1,.64-.37.82.55.99,1Z"/>
  <path class="cls-6" d="M117.76,27.63c.58.14.55.77,1.26,1.93,1.3-2.25,4.45-2.82,6.69-.91,1.31,1.12,2.4,4.19,4.28,4.48,5.26.8,9.94,2.4,14.68,3.45.16.5.88,1.84,1.63,1.89,4.06.31,3.77,4.04,5.54,6.11,1.43,1.67,6.53.66,5.54,5.48-1.62.33-2.77-1.21-5.2-1.84-1.31,3.62-2.11,6.97-2.67,10.36-3.28,1.69-4.46-1.16-6.05,1.5-3.02,5.03,2.85,5.52-1.37,12.96-.84,1.48.85,3.06,2.39,4.23-3.11,3.13-6.15,6.68-9.69,9.59-.54.44-3.19-1.77-3.11-.14-5.09-1.61-7.63-6.82-10.65-11.03.37-2.7-1.37-3.85-4.04-4.7-1.34-.42-7.16-10.89-5.44-15.06-10.81-1.13-8.9-7.17-13.73-12.88,4.2-.22,2.15-8.65,3.09-12.16,2.91-2.25,7.95-3.14,10.63.01.93,1.09-.43,5.5,1.98,5.41,4.51-2.91-3.64-10.66,4.24-8.68Z"/>
  <path class="cls-11" d="M163.57,40.77c1.22.25,2.36,1.53,3.8,1.12,1.49,3.04-.68,5.75-1.47,8.92-.56,2.22,1.22,4.88-.32,6.69-2.19-.24-4.04-1.11-5.86-2.84l-4.22,2.39c-.84-.62-.97-1.48-1.6-2.32-1.57,1.97-2.76,3.01-4.4,3.86.57-3.38,1.36-6.74,2.67-10.36,2.42.63,3.58,2.17,5.2,1.84.99-4.82-4.11-3.81-5.54-5.48-1.77-2.06-1.48-5.8-5.54-6.11-.74-.06-1.46-1.39-1.63-1.89,3.75.83,7.81-.46,11.84,2.18,2.09,1.37,4.95,1.57,7.06,2Z"/>
  <path class="cls-10" d="M133.65,114.61c-5.27.38-18.75-1.05-20.92,3.88-.88,2,.31,3.4,1.67,5.22l14.07,18.82c-4.55-2.7-8.01,2.13-19.01,1.4-.24,2.15,1.13,3.82,1.22,5.68-3.73-1.92-6.32-5.85-9.92-8.22-1.35-.89-2.42-3.08-3.74-4.76,4.39-8.22,8.71-15.29,14.1-22.84,10.26-1.54,18.52.14,28.74-3.33-.8,3.8-4.77,1.96-6.21,4.15Z"/>
  <path class="cls-12" d="M222.62,33.61c.87,1.6-.45,4.2-.19,5.91-2-.1-4.52,1.61-6.74.82-4.03-1.43-2.98-6.38-6.34-9.29-.83,2.84.48,7.57-2.68,8.32-2.48.58-4.07-3.21-5.57-4.24-1.69-1.17-9.46-5.39-10.61-2.78-2.47-2.78-4.31-6.29-7.93-7.53-.29-.75-1.19-1.95-.84-2.93,9.2-3.83,19.55,1.46,27.75,1.52,5.32.04,10.2-.11,13.96,4.24-.42,2.36-1.85,4.03-.8,5.96Z"/>
  <path class="cls-12" d="M181.63,29.73l2.5,12.33c.83,4.07,2.64,7.7,2.2,11.5-2.3-.23-4.16,2.99-5.68,1.19-.33-.4-.02-1.37.41-2.53-4.89.44-11.53-.46-13.63,5.48l-1.85-.2c1.54-1.81-.23-4.48.32-6.69.8-3.17,2.96-5.88,1.47-8.92,5.91-1.68,4.11.96,7.17.22,4.82-1.15,3.7-12.76,7.09-12.38Z"/>
  <path class="cls-11" d="M186.33,53.56c-.65,5.61,5.46,2.33,6.23,7.07-.25.98-.15,2.12-.92,3.28-5.37-2.58-10.69-1.68-14.66,2.41-.46.47-1.87.64-2.26,1.13s1.23,2.05.6,2.54c-1.77,1.36-1.85-1-2.35-2.32-.37-.98.75-1.63,1.49-3.6-3.23-1.07-5.44,1.81-8.78,1.47,1.03-1.76,3.02-2.18,3.52-3.65.54-1.57-1.12-2.88-1.77-4.18,2.1-5.95,8.74-5.04,13.63-5.48-.44,1.16-.75,2.13-.41,2.53,1.51,1.8,3.37-1.42,5.68-1.19Z"/>
  <path class="cls-13" d="M160.55,81.97c-6.08-.95-7.91,2.53-10.24-2.19,1.1-6.2,5.45-2.31,12.46-6.4,1.22,2.27-.12,3.98-.92,6.04,1.77-.03,4.22,1.24,3.1,2.65-.95,1.19-3.32.07-4.4-.1Z"/>
</svg>