<?xml version="1.0" encoding="UTF-8"?>
<svg id="Layer_1" xmlns="http://www.w3.org/2000/svg" version="1.1" viewBox="0 0 585.6 107.2">
  <!-- Generator: Adobe Illustrator 30.2.1, SVG Export Plug-In . SVG Version: 2.1.1 Build 1)  -->
  <defs>
    <style>
      .st0 {
        fill: #692e13;
      }

      .st1 {
        fill: #a95722;
      }

      .st2 {
        fill: #4b2412;
      }

      .st3 {
        fill: #612b12;
      }

      .st4 {
        fill: #221a14;
      }

      .st5 {
        fill: #b25d24;
      }

      .st6 {
        fill: #9b4b1d;
      }

      .st7 {
        fill: #733416;
      }

      .st8 {
        fill: #542511;
      }

      .st9 {
        fill: #4f220f;
      }

      .st10 {
        fill: #3f1b0d;
      }

      .st11 {
        fill: #2c150b;
      }

      .st12 {
        fill: #0f0a07;
      }

      .st13 {
        fill: #d84;
      }

      .st14 {
        fill: #211913;
      }

      .st15 {
        fill: #823c18;
      }
    </style>
  </defs>
  <path class="st13" d="M377.6,104.5c-4.6,4.2-5.3-7-12.7-3s-3.7,3.9-6.7,3.1l7.7-17.1c.5-1.2,2-1.2,3-1,2.2.5,5.7,13.4,8.7,18h0Z"/>
  <path class="st13" d="M311.7,102.9c.7,1-.5,1.5-1,1.9-2.9,2.2-5.5-7.2-8.9-7,0,4,.7,7-3.6,7.5l-.5-18c5.4.3,13.8-1.5,14.1,4.4s-.7,4.7-4.2,5.8l4.1,5.4h0ZM307.6,92.9c.8-1.9-4.2-3.8-5.4-2.4s-.7,4.8.9,4.7,3.3.2,4.4-2.3h0Z"/>
  <path class="st13" d="M490.2,96.5c-1.1,1.5-6.7-.6-7.6,1.4s-.5,3.1.6,3.2l8.3.3c.9,0,1.1,1.7.9,2.3-1.2,2.7-9.7,1.4-13.7,1.3,0-6.2-.5-11.9.2-17.7,4.8,0,8.6-.4,12.9.6.8,3.6-5.9,1.9-8.5,2.4s-1.8,3.4-.4,3.6l7.1.9c.6,0,.5,1.4.2,1.9v-.2Z"/>
  <path class="st13" d="M341.8,94.4c12.4,3.3-6.9.9-6.9,4.8s5.1,2,8.2,2.2,1.2,2.1.5,2.5c-3.8,2-8.1,1.5-12.3.8-.6-6-.3-11.3-.2-17.3,4.3,0,8.3-.6,12.3.3s.2,2.5-.5,3.1c-1.1.9-3-1.9-7,0s-1.8,2.6-.6,3.2c2.1,1,4.3,0,6.6.5h0Z"/>
  <path class="st13" d="M267.2,97.2c3.4,8.2,11.6.8,12.7,4-2.7,4.2-6.8,4.9-10.8,3.2s-6.7-4.5-6.2-9.1,3.2-6.7,5.7-7.5,7-1.6,9.8.8,1.3,1.9.8,2.7c-1.8,3.1-4.6-3.7-9.8,0s-3.2,3.6-2.3,5.9h0Z"/>
  <path class="st13" d="M453.1,99.4c2.1-4.6,2.7-12.6,8-12.1s.5,1.7,0,2.7l-5.4,12.5c-.7,1.5-.9,3.1-2.6,2.9s-2.5-1-3.1-2.4l-6.1-14.7c-.4-.9,2.3-1,3.1-.7,3.2,1.5,2.3,8.4,6.1,12v-.2Z"/>
  <path class="st13" d="M401.1,90.4c-2.1,3.7,1.9,15.2-2.9,14.8s0-12.3-2.1-15.2c-2.7,0-5.4,1-5.6-2.3,2.1-.8,15.4-.9,15.9,0s.7,2.3-.6,2.4-3.3-.7-4.6.2h-.1Z"/>
  <path class="st13" d="M427.2,87.7c.4,3.9,1.3,14.3-.9,16.6-5.7,5.7-3.1-14.3-3.5-16.6.9-.8,3.8-.8,4.4,0Z"/>
  <g>
    <g>
      <path class="st2" d="M127.8,60.2l-1.8,10c-.7,0-1.2-1.2-1.6-.9.3-.2-6.7,34.3-1.4,28.9,1.2.3,2.1,1.1,3,2,.5.9.9,1.9,1.1,2.7.3,1.5-1.3,2.6-3.1,2.5l-19.5-.2c.4-3.9,1-7.1,0-10.9-2,.6-1.9,2.6-3,4.9-2.6-5.2-5.3-10.3-7.6-16.1s0-3.1,0-4.5,1.6-2.3,3.4-1.5.6,5,2.1,6.6,2.3,3.5,3.5,5.5c0-6.4-1.6-11.5-2.7-16.9,6.9-3.7,14.7-5.9,21.4-10.5s4.1-4.1,6.1-1.7h0Z"/>
      <path class="st8" d="M42.1.4c-1.6.3-3,1.6-4.9,1.2s-4.5-.9-6.1.6-1.8.2-2.2.9-.6.7-.9.9c-1,.5-1.8,1.2-2.1,2.3-.4.2-2.1.5-2.3,1.2-.3,2.9,2.1,5.2,2.9,8s-.5,2.8-.3,3.7,3,1.6,3.3,2.5c1.7,4.9,2.1,10.7,6.8,13.6l-3.2,1.3c-1.5.6-.8,8.4-4.8,11.4-2.1-2.7-3.4-5.2-5.9-6.7-4.7,5-3.9,0-8.3,3.2-1.5-.9-2.9-3-4.8-2.4s-.8,0-1.2,0c-2,3.7,5.6-28.9,3-25,1.6-2.6,3.9-4.3,6.6-6.6C28.1,1.7,24.9-.8,42,.2v.2Z"/>
      <path class="st3" d="M154.1,23.6c-.3,6.2,4.6,3.9,4.9,6s.3,2.3-.6,2.6-1.7,0-2.4,0c-1.6-.9-3.2-1.8-4.6-3.9-6.3,1.4-12.3,3.8-17.7,7.6-3.3,2.3-15.7.3-16.9.4l-6.7.8c-1.9.2-3.4-2.2-5.2-2.1-.2-.8-.3-1.6-.3-2.4,0-1.6-.2-3.1-.9-4.5l.2-1.8c2.7,2.5,5.9,1.9,9.5,1.4,9.5-1.2,5.8-5,15.6-6.5,2.7-2.3,3.7-6.1,8.9-5.3-.4-1.5-1.6-1.6-2-2.5,5.1,0,18.6,3,18.2,10.3h0Z"/>
      <path class="st8" d="M23.1,58.3c2.3,1.3,4.3,3.3,5.3,5.8-1.5,1.4-2.8,3.2-4.1,5.5l-5.6-4.8c-.8,2-.9,3.8-2,4.3s-1.5-.2-2.7,0c1.1,2.4-.3,4-2,6,2.3,0,4.9-1.7,6.1.5s.9,8,6.2,5.8c-2.7,1.2,0,0-.4.5-1,.9-.5,3.9,1.6,3.3,4-1.2,1.2,16.1,8.1,11.1s2.6-4.4,1.6-5.8c5.4-2.2,2.8-5.5,5.5-4.9-.7,2.2-2.2,3.7-2.9,6.1l-1.3,4.1c-2,6.4,6.6,3.8,8.6,9.6h-14.5c-2.6,0-5,2.1-7.4,0,.9-.6,2.2-.5,2.9-1.4-1.1-.9-2.1-.6-2.8-1.5,1.3-2,2.8-1.5,5-3.2-3.6,0-3.4-3.3-5.1-4.8s-5-3-5.6-6.7c-.9-5.2-8.2-2.9-3.5-6.8-2.1,0-4.1-.3-6.2-.7-2.2-3.3-5-8-4.8-12.6,3.7,1.1.8-5.5,4.6-10.3,2.9-1.6,5.1-.4,7,1.8s8.1,2.4,8.4-.4v-.3ZM16.1,66.7c0-.3-.2-.5-.5-.5s-.5.2-.5.5.2.5.5.5.5-.2.5-.5Z"/>
      <path class="st11" d="M62.1,78.1c-3.9,2.3-8.6,1.5-13.1,2.6,9.8,2.5,22-3.6,32-1.5l-2.7,9.2c-1,3.3,0,6.8-.3,9.8-.6.2-1,1-2,.9,0-3.1.6-6-1.1-8.6-3.5.6-6.1,2.5-9.4,3.5.9,3.2,3,3.5,4.8,6.3-6.8,3.3-2,3.8-7.6,2.9s-.9,2-.4,2c6.7-.8,20.3,3.5,23.7-1,.5.3,2,.9,1.9,1.5s-1.2,1.5-1.9,1.5l-25.1-.3-14.8-27.8c1.7-3.1,3.6-6.6,4.7-10,1-.3,1.3.6.9,1.4-1.4,2.7-.5,4.9,2,6.2s5.7,1.3,8.5,1.3h-.1Z"/>
      <path class="st15" d="M51,53.4c1,0,2,0,2.9-.2-.2.5,0,1.3,0,1.8-.7,0-1.4.3-1.7.9s0,1.5.8,1.4c-.7,3.6-1.1,8.3-2.2,11.9s-3,6.9-4.7,10c-2.1,1.3-4.5,3.4-5.4,6.2-2.7-.6-.2,2.7-5.5,4.9-4.1-2.2-5.8-7.2-5.2-12.4s2.8-3.3,2.6-5.6c2.2,1.1,3.2.5,1.7-.9-.9-3.7-2.6-6.8-5.9-7.4-.9-2.4-3-4.5-5.3-5.8-1.4-.9-2.1-4.3-3.9-5.2,2.5-1.4,4.8,3.7,15.9,4.8l6.8.7c2.9.3,5.1-.5,7.5,3.1l1.6-8.3h0Z"/>
      <path class="st5" d="M87,8.1c1.3.4,3,.2,4.1,1l2,2c-2.3-.7,7.5,12,7.5,10.1.4.2,1.2.8,1.5,1.1l.9,2c.3.7.6,1.4,1,2.1l-.2,1.8c-1,.4-1.7,1.6-1.4,2.5s1.2,3,2.3,2c0,.8,0,1.6.3,2.4l-1,1.2c-.9,0-1.8-.1-2.7,0,0-.3-.2-.7-.2-1,.7-5-7.6-2.2-3.1-8.5-2.3.4-3.4-.4-4-2.4-3,1.1-1.3,5.7-3.8,5.7,0-.2,0-.5,0-.7-.3-2.1,1.9-3.9.4-6.5-2.4,1-1.1,3.1-1.4,4.5-2.5,1.8-5.4-.2-8.2-.1l.3-2.9c.2-2.1-.2-2.6-2.5-3s-1.2,1.6-2.5,2.8v-.9c.5-1.3-5.1-11-8.3-10.1.4-1.8,2.3-1.6,2-2.8-1.7,0-2.9.2-3.1-.5s0-.9.3-1.2c-.5.6,13.3-.3,14.6,0,2.2.5,4.2,1.4,5.4-.6h0Z"/>
      <path class="st1" d="M87,8.1c-1.2,1.9-3.3,1-5.4.6s-15.1.6-14.6,0c-.2.3-.5.6-.3,1.2s1.4.4,3.1.5c.3,1.2-1.6,1-2,2.8,3.2-.9,8.8,8.8,8.3,10.1-3.2,2.3-7.1-1.6-8,2.2-2-.3-4.1.3-5.9.9.2-1.3,1.6-3,1-4.4s-1.8-1.5-1.9-2.4.4-1.9.6-2.7c-14.6-3.3-6.2-7.1-15.5-9.8-.9-.6-1.5-2.6-3.3-3.3-.2-.8,12.9.2,11-1.4,1.8.2,3.1,1.1,4.8,2.1,9.4,5.4,20,1.1,28.1,3.7h0ZM67.1,21.8c0-.3-.2-.5-.5-.5s-.5.2-.5.5.2.5.5.5.5-.2.5-.5Z"/>
      <path class="st11" d="M100.4,70.3c0,.7-.3,1.4,0,2,1.1,5.4,2.6,10.5,2.7,16.9-1.3-2-1.9-3.7-3.5-5.5s0-5.7-2.1-6.6-3.5.6-3.4,1.5c0,1.4-.6,3,0,4.5,2.3,5.8,5.1,10.9,7.6,16.1,1.1-2.3.9-4.3,3-4.9,1.1,3.8.5,7,0,10.9l19.5.2c1.7,0,3.3-1.1,3.1-2.5s-.6-1.9-1.1-2.7c2.2,2.2,5.5,3.3,7.4,6.8l-29.9.2-15.5-30.7c-2.1-1.1-5.2.6-6.9.8-2.8.3-5.8-.4-8.9,0s-6.1,1.2-9.1.9c1.8-1,4.8-2.1,7-2,3.2.2,6-.8,9.3-1.3s7.2-.5,11-2.4,7-1,10-2.2h0Z"/>
      <path class="st11" d="M8.1,42.2l-1,1.8c-.6,1,1.2,1.4,2.1,1.2.5.4.8,1,1,1.6-.6.8-3.4,1.4-3.6,2.9-.8,6.1-3.4,11.6-3.6,17.4s2.6,9.3,4.8,12.6c1.1,4.5.4,9.9,3.1,14.4,4.7,7.7.6,13.1,5.4,9.5s0,.4.2,1.5c2,.2,4.7-.6,6.6,0,2.4,2.2,4.8,0,7.4,0h14.5c1,0,1.3.7.9,2l-33.4-.3c-4-13.6-8.2-26.3-11.4-39.8s1.8-7.5,2.3-10.7l4.4-27.5c.7-4.3,1.2-8.3,3.3-11.7,2.6-3.9-5,28.7-3,25h0Z"/>
      <path class="st7" d="M135.9,13.3c.5.9,1.7,1,2,2.5-5.2-.8-6.2,3-8.9,5.3-9.8,1.5-6,5.3-15.6,6.5s-6.9,1.1-9.5-1.4c-.4-.6-.7-1.4-1-2.1,4-3.1,4.5-.7,12.6-2.7,5-15.9,17.5-8.2,10.8-12.4-1.1.3-2.3.2-3-.4s1.3-1.4,1.5-1.4c5.7.9,5.6,3.7,10.9,5.9l.2.2Z"/>
      <path class="st6" d="M54.1,2.3c1.9,1.6-11.2.6-11,1.4,1.9.6,2.5,2.7,3.3,3.3,9.3,2.7.9,6.6,15.5,9.8-.2.9-.7,1.7-.6,2.7s1.5,1.4,1.9,2.4c.6,1.4-.8,3.1-1,4.4-1.9,0-3.4-2.5-4.5-3.7.2,4.6-8.6-4.9-10-6.1s-3.9.3-4.3-1.1c-2.6-7.4,1.3-6.4-1.4-9.6s-3,.3-4.9,0-.3-3.3.2-4.3c1.9.4,3.3-1,4.9-1.2,4.1-.7,8,1.5,12,1.9h-.1Z"/>
      <path class="st6" d="M102.1,22.3c-.3-.4-1.1-.9-1.5-1.1,0-.7.5-2.3-.4-2.9-3-2.1-4.8-4.8-7.1-7.1l-2-2c10.7-3.3,23.8,2.9,29.7-1.4.6,4.4-1.2,2.7-9,8.1s-2.4-.5-3.2-.3c1-.3-6.8,6.7-6.5,6.8h0Z"/>
      <path class="st10" d="M78,98.2c2.1,1.8,5.9,4.6,8,6-3.5,4.5-17,.2-23.7,1s0-2,.4-2c5.6.9.8.4,7.6-2.9-1.7-2.8-3.8-3-4.8-6.3,3.3-1,6-2.9,9.4-3.5,1.7,2.6,1,5.5,1.1,8.6,1,0,1.4-.7,2-.9h0Z"/>
      <path class="st8" d="M165.9,31.2c-.5-.2-.8.1-.8.5,0,.7.7,1.1.8,1.5,0,.7.2,1.5.2,2.2,0,1.1-.3,2.5,1.1,2.9-1.9,4.4-7.5,6.6-4.2,6.9-.5.7-1.3.6-2,1,0-.9-2.2-1.7-2.8-1.2.4-4.4-1-8.5-2.1-12.8.7-.2,1.8.2,2.4,0s.7-2,.6-2.6c-.3-2-5.2.2-4.9-6,3.9,2.7,7.7,5.4,11.8,7.6h0Z"/>
      <path class="st15" d="M125,7.5c-.2,0-1.7,1.2-1.5,1.4.6.6,1.8.7,3,.4,6.7,4.2-5.8-3.5-10.8,12.4-8.1,2-8.6-.5-12.6,2.7l-.9-2c-.3,0,7.5-7.1,6.5-6.8.8-.2,2.5.8,3.2.3,7.8-5.4,9.6-3.6,9-8.1.8-.5,1.4-1.3,2.7-1.4s1.1.6,1.5,1.2h-.1Z"/>
      <path class="st11" d="M160.9,46.2c-4.2,2.5-29.6,3-33.9,11.7-.7,0-1.4.2-2.1.3.8-1.5,1.3-3.1,1.1-4.8,3.3,1.8,5.8-2.6,8.1-3.2,5-1.3,10.2-2.4,15.7-3.5s6,.2,8.2-1.7,2.9.3,2.8,1.2h.1Z"/>
      <path class="st13" d="M125,58.2c.7,0,1.4-.3,2.1-.3.6.6.9,1.5.7,2.3-2.1-2.4-4.1.3-6.1,1.7-6.7,4.6-14.5,6.8-21.4,10.5,0-.6.2-1.4,0-2,2.5-1,5.1-1.7,6.3-4.3l2.3.2c4.2-1.8,8.5-3.9,12-7s.5-.8.8-1.1c1,0,2.1.2,3.2,0h0Z"/>
      <path class="st15" d="M81,77.2c0,.6.2,1.4,0,2-10-2.1-22.3,3.9-32,1.5,4.4-1.1,9.2-.3,13.1-2.6h1c2.9.4,5.8-.2,9.1-.8s6.2.2,8.9,0h0Z"/>
      <path class="st11" d="M126,70.2c-1,5.7-1.7,11.5-2.4,17.6s-2.5,7.3-.6,10.3c-5.3,5.4,1.7-29.1,1.4-28.9.4-.3.9,1,1.6.9h0Z"/>
      <path class="st11" d="M162.9,45.2c-3.2-.3,2.4-2.5,4.2-6.9s2.6-1.4,1.8-3.1.4-1.8-.7-1.9-1.7-.1-2.4,0c0-.4-.8-.8-.8-1.5s.3-.7.8-.5c1.4.8,3.9.5,4.6,2.1,2.2,4.7-6.4,10.1-7.6,11.9h.1Z"/>
      <path class="st7" d="M31.1,2.2c1.7,1.4.3,4,1,6.1s11.9,21.2,16.4,13.2c2.4,7.8,2.8,1.2,3.4,10.3,1.5.1,4.6-1.3,5.3.4.5,2.8-.2,5.9,1,8.5-2.9,1.1-5.7,1.3-7.2,4.2s-1.7,5.6,0,8.7l-1.6,8.3c-2.4-3.5-4.6-2.8-7.5-3.1l-6.8-.7c-11.1-1.1-13.5-6.2-15.9-4.8-3.3-1.7-5.2-5.3-9-6.3-.2-.6-.5-1.2-1-1.6v-3c1.9-.6,3.4,1.5,4.8,2.4,0,.4,0,1.3.7,1.3,5.9,0,2.2,2,4.2,1.8,4.1-.4,6.8,1.9,9.8,3.9,16.1.5,12.3-2.2,18.5-7.1s2.4-1.3,2.3-2.7-1.9-1.3-1.9-2.1l2.1-1.2c-.4.2-2.2-4.6-2.5-4.8-.4-.3-1.6.4-2.6.3-2.2-4.6-6-8.8-11.9-9.3,1.5-2.3,3.3-2.5,2.9-4.1-.5-2.3-5.5-1.8-5.3-3.1l.4-2.4c.5-3.1-3.6-5.9-4.9-8.9.3-1.1,1.1-1.8,2.1-2.3.8.5,1.3-.2.9-.9.5-.8,1.7-.5,2.2-.9h0Z"/>
      <path class="st0" d="M14.1,44.7c4.4-3.1,3.7,1.8,8.3-3.2,2.5,1.5,3.8,4,5.9,6.7,3.9-3,3.2-10.8,4.8-11.4l3.2-1.3c-4.7-2.9-5.1-8.6-6.8-13.6s-3.1-1.2-3.3-2.5.7-2.5.3-3.7c-.8-2.8-3.2-5.1-2.9-8,.2-.8,1.9-1,2.3-1.2,1.3,3,5.4,5.8,4.9,8.9l-.4,2.4c-.2,1.3,4.7.7,5.3,3.1s-1.4,1.8-2.9,4.1c5.9.5,9.7,4.6,11.9,9.3.9,0,2.1-.6,2.6-.3s2.1,5,2.5,4.8l-2.1,1.2c0,.8,1.8,1.4,1.9,2.1,0,1.3-1.3,1.9-2.3,2.7-6.2,4.9-2.4,7.6-18.5,7.1-3-1.9-5.7-4.3-9.8-3.9s1.8-1.7-4.2-1.8-.6-.9-.7-1.3v-.2Z"/>
      <path class="st10" d="M9.3,45.2c-.9.1-2.7-.2-2.1-1.2l1-1.8c.4,0,.8.1,1.2,0v3h-.1Z"/>
      <path class="st15" d="M28,4.1c.3-.1.7-.6.9-.9.5.7,0,1.4-.9.9Z"/>
      <path class="st9" d="M156,32.3c1.1,4.3,2.5,8.4,2.1,12.8-2.2,1.9-5.1,1.1-8.2,1.7-5.5,1.1-10.7,2.2-15.7,3.5.4-3.3-.9-4.8-4.1-5.4s-4.7.4-5.7,4-1.3,1.8-2,1.9-1.9,0-2.1-.6c-1.3-3.5-3.8-1.7-6.3-2.1s-3.8-4.5-6.6-3.6l-1.3-3.1c.2-2-.7-3.6-2.1-5l1-1.2c1.8-.2,3.3,2.3,5.2,2.1l6.7-.8c1.2-.1,13.6,1.9,16.9-.4,5.4-3.8,11.3-6.2,17.7-7.6,1.3,2.2,3,3,4.6,3.9h-.1Z"/>
      <path class="st6" d="M104.7,32.6c-1.2,1-2-.9-2.3-2s.4-2,1.4-2.5c.7,1.4,1,2.9.9,4.5h0Z"/>
      <path class="st10" d="M23.2,105.1c-1.9-.5-4.6.3-6.6,0,0-1.1,0-1.7-.2-1.5-4.8,3.6-.7-1.8-5.4-9.5s-2.1-9.9-3.1-14.4c2.1.4,4.1.7,6.2.7-4.7,4,2.6,1.6,3.5,6.8s3.3,4.7,5.6,6.7,1.6,4.7,5.1,4.8c-2.2,1.7-3.7,1.2-5,3.2.7,1,1.7.6,2.8,1.5-.8,1-2,.8-2.9,1.4v.3Z"/>
      <path class="st10" d="M19.2,53.1c1.7.9,2.5,4.2,3.9,5.2-.3,2.8-8.1.8-8.4.4-1.9-2.3-4.1-3.5-7-1.8-3.9,4.8-1,11.4-4.6,10.3.2-5.8,2.8-11.3,3.6-17.4s3-2.1,3.6-2.9c3.7,1,5.6,4.6,9,6.3h0Z"/>
      <circle class="st0" cx="15.6" cy="66.7" r=".5"/>
      <path class="st10" d="M70,76.2c-2.2,0-5.2,1-7,2h-1c-2.8,0-5.6,0-8.5-1.4s-3.4-3.5-2-6.2,0-1.7-.9-1.4c1.1-3.6,1.5-8.3,2.2-11.9.4-.6,1.7-1.3.9-2.3,4.9,9.8,10.6,7.9,10.5,17.6,2.2.5,3.5-.4,5.3-.3l.4,3.8h0Z"/>
      <path class="st0" d="M109.8,61.3c0,1,.8,1.9,1,2.9-.8.5-1.4,1.1-1.8,2l-2.3-.2c-1-1.5-1.9-4.9-4.3-4.4s-2.5,3.7-4.2,2.6c-4.2-2.6-8.5-1.5-13-2.5s3.2-7-17.9-4.6c-3-3-5.7-5.9-9.5-7.6s-3.3,2.3-3.8,3.6c-1,.2-2,.3-2.9.2-1.6-3.1-1.4-5.8,0-8.7s4.3-3,7.2-4.2c.3.3.9.5,1.1.9.3.8-.3,1.7-.2,2.8,1.6-.6,2.7-1.1,4.3-1.2s1.4,2.3,2.3,2.8c4-3.3,8.4,2.5,11.8-2.6,1.4,2.1,1.5,3.9.5,5.9l5.9-3.6c.2,1.6-.9,2.1-1,3.1,0-1.2,7.6,5.2,9.2,2.6l4.1-6.7c2.1.2,1.7,3.6,3.1,5.1l8,8.1c1.1,1.1.4,3.9,2.3,3.6h.1Z"/>
      <path class="st8" d="M106.7,66c-1.3,2.6-3.8,3.3-6.3,4.3s-6.9.6-10,2.2-7.1,1.9-11,2.4-6.2,1.4-9.3,1.3l-.4-3.8c-1.8,0-3.1.8-5.3.3,0-9.7-5.6-7.8-10.5-17.6,0-.5,0-1.3,0-1.8.5-1.3,2.2-4.3,3.8-3.6,3.8,1.7,6.5,4.6,9.5,7.6,21.1-2.4,14.1,3.8,17.9,4.6s8.9-.1,13,2.5c4.1,2.6,3.1-2.4,4.2-2.6,2.4-.5,3.3,2.9,4.3,4.4v-.2Z"/>
      <path class="st0" d="M53.9,55c.8,1-.5,1.7-.9,2.3-.9,0-1.2-.8-.8-1.4s1-.8,1.7-.9Z"/>
      <path class="st0" d="M28.3,64.1c3.3.6,4.9,3.6,5.9,7.4,1.6,1.4.5,2-1.7.9.2,2.3-2.5,3.9-2.6,5.6-.6,5.2,1.1,10.3,5.2,12.4.9,1.4,0,4.5-1.6,5.8-6.9,5-4.1-12.3-8.1-11.1s-2.7-2.3-1.6-3.3-2.3.7.4-.5c-5.3,2.2-4.9-3.6-6.2-5.8s-3.8-.6-6.1-.5c1.6-2,3.1-3.6,2-6,1.2,0,2.1.5,2.7,0,1.1-.6,1.2-2.4,2-4.3l5.6,4.8c1.3-2.3,2.6-4.1,4.1-5.5h0Z"/>
      <path class="st6" d="M104,36.3c1.4,1.4,2.3,3,2.1,5-3,.1-5.5-1.5-7.3-3.8,1-.2,2.1-.2,2.4-1.2h2.8Z"/>
      <path class="st6" d="M76,23.3v.9c.2.6.8,2.1,1.9,1.9s2-1.7,3.1-1.8l-.3,2.9c-.2,1.7.4,3.4,2.5,4.1l6.9,2.2c.5-1.3-.4-2.3,0-3.5,2.6,0,.9-4.7,3.8-5.7.6,2.1,1.7,2.8,4,2.4-4.5,6.3,3.8,3.6,3.1,8.5-.7,0-1.8-.2-2.1.5s0,1.2-.2,1.7c-.7-.9-2.4-1.3-2.2-3.2-1.4,2.7-3.5,1.7-5.9,2.9.8,1.2,3.4,1.6,2.1,2.8s-2.7-2.4-3.9-2.7c-3.3-.7-6.8-.3-10.4-.6-1.4-8.8-11.5-1.1-10.5-11.3.9-3.7,4.9.1,8-2.2l.2.2Z"/>
      <path class="st1" d="M89,27.3c0,.8.3,1.6,1,2,0,.2.2.5,0,.7-.2,1.1.7,2.1,0,3.5l-6.9-2.2c-2.1-.7-2.7-2.4-2.5-4.1,2.9-.1,5.7,1.9,8.2.1h0Z"/>
      <path class="st1" d="M81.1,24.3c-1.1,0-1.7,1.5-3.1,1.8s-1.7-1.3-1.9-1.9c1.3-1.2.7-3.1,2.5-2.8s2.7.8,2.5,3h0Z"/>
      <path class="st13" d="M100.6,21.2c0,1.9-9.8-10.8-7.5-10.1,2.3,2.3,4.1,5,7.1,7.1s.3,2.3.4,2.9h0Z"/>
      <path class="st6" d="M90,29.3c-.7-.4-1.1-1.2-1-2,.3-1.3-1.1-3.5,1.4-4.5,1.5,2.5-.7,4.3-.4,6.5Z"/>
      <path class="st15" d="M101.1,35.2c0,.3.2.7.2,1-.4,1-1.4,1-2.4,1.2.3-.5,0-1.2.2-1.7.3-.8,1.4-.5,2.1-.5h0Z"/>
      <path class="st15" d="M37.2,1.6c-.5,1-1.9,4-.2,4.3s3.7-1.3,4.9,0c2.7,3.2-1.2,2.2,1.4,9.6s3,0,4.3,1.1,10.3,10.6,10,6.1c1.1,1.3,2.6,3.7,4.5,3.7,1.8-.6,3.9-1.2,5.9-.9-1,10.2,9.1,2.5,10.5,11.3,3.6.3,7.1-.1,10.4.6s2.1,4.3,3.9,2.7-1.3-1.6-2.1-2.8c2.5-1.2,4.5-.2,5.9-2.9-.2,1.9,1.5,2.3,2.2,3.2,1.7,2.3,4.3,3.9,7.3,3.8l1.3,3.1c2,5,2,11.3,2.4,17-1.9.3-1.2-2.5-2.3-3.6l-8-8.1c-1.5-1.5-1.1-4.9-3.1-5.1l-4.1,6.7c-1.6,2.6-9.1-3.8-9.2-2.6,0-1,1.2-1.5,1-3.1l-5.9,3.6c1-2,.9-3.8-.5-5.9-3.3,5.1-7.8-.7-11.8,2.6-.9-.5-1.1-2.9-2.3-2.8s-2.7.6-4.3,1.2c0-1.2.5-2,.2-2.8s-.8-.6-1.1-.9c-1.2-2.6-.5-5.7-1-8.5-.8-1.7-3.9-.2-5.3-.4-.6-9.1-1-2.4-3.4-10.3-4.5,8.1-15.4-10.5-16.4-13.2s.6-4.7-1-6.1c1.6-1.5,4-1.1,6.1-.6h-.2ZM54.1,25.8c0-.3-.2-.5-.5-.5s-.5.2-.5.5.2.5.5.5.5-.2.5-.5ZM62.5,39.3c1-1.3.8-3.6.2-4.8s-3-.6-2.8.7,1.9,1.2,1.7,2.3-1.3,1.8.8,1.7h0ZM89,39.7c0-.3-.2-.5-.5-.5s-.5.2-.5.5.2.5.5.5.5-.2.5-.5Z"/>
      <circle class="st6" cx="66.6" cy="21.8" r=".5"/>
      <path class="st9" d="M169,35.2c.8,1.7-1.4,2.1-1.8,3.1-1.3-.4-1.1-1.8-1.1-2.9l2.9-.2h0Z"/>
      <path class="st3" d="M169,35.2l-2.9.2c0-.7,0-1.5-.2-2.2.7,0,1.5-.1,2.4,0s.4,1.3.7,1.9h0Z"/>
      <path class="st10" d="M134.2,50.2c-2.3.6-4.8,5-8.1,3.2s-2.2-1-3.1.4-1.3,2.8-1.1,4.3c-.4.3-.5.8-.8,1.1-2-.5-3.6.2-5,2.1s-3.7,2-5.3,2.9c-.2-1-.9-1.9-1-2.9-.5-5.7-.4-12-2.4-17,2.8-.9,4.1,3.2,6.6,3.6s5-1.4,6.3,2.1,1.6.7,2.1.6,1.7-.9,2-1.9c1-3.7,2.8-4.6,5.7-4s4.6,2.1,4.1,5.4h0Z"/>
      <path class="st9" d="M126.1,53.4c.2,1.7-.3,3.3-1.1,4.8-1,.1-2.1,0-3.2,0-.2-1.5,0-2.7,1.1-4.3s1.4-1.3,3.1-.4h.1Z"/>
      <path class="st12" d="M121,59.2c-3.4,3.1-7.8,5.2-12,7,.3-.9.9-1.5,1.8-2,1.6-.9,4-1.1,5.3-2.9s3-2.6,5-2.1h0Z"/>
      <path class="st7" d="M62.5,39.3c-2.1,0-.9-1.2-.8-1.7.2-1.1-1.5-1.3-1.7-2.3s2.4-1.5,2.8-.7c.5,1.2.7,3.5-.2,4.8h0Z"/>
      <circle class="st6" cx="88.5" cy="39.7" r=".5"/>
      <circle class="st6" cx="53.6" cy="25.8" r=".5"/>
    </g>
    <g>
      <g>
        <path class="st4" d="M356.7,51.2l.2-1.3c4.8-.8,2.6-29.7,11.6-22.9l-5.8,26.1c-1.1,5-2.7,9.9-3.5,14.9-.3,2-7.1,2.1-7.8.2l-4.9-26.9c-.3-1.6.2-2.7-1.1-3.2s-1.3-.7-3.4-.7c-.9,10.6-3.7,21.1-6,31.7-2.9.2-4.8.6-7.3-.2l-5.1-23.9-4.3-18.6c2.6-.6,3.9-.2,6.4.1.8,8,3.4,15.5,3.8,23.7,0,2.9,1.8,6.5,4.8,5.8l5.6-20.4c.6-2.1,1.6-3.2,1.1-5.3-.6-3.1,1.7-4.4,4-4.3s3.1,1.9,3.6,4.5l3.4,20.3c.6,3.4,1.2,5.8,4.2,8.3,1.2-2.4,1.4-5.3.4-7.9h0Z"/>
        <path class="st12" d="M356.7,51.2c1,2.6.8,5.5-.4,7.9-3-2.6-3.6-5-4.2-8.3l-3.4-20.3c-.4-2.6-1-4.4-3.6-4.5s-4.6,1.1-4,4.3-.6,3.3-1.1,5.3l-5.6,20.4c-3.1.7-4.7-3-4.8-5.8-.4-8.2-3-15.7-3.8-23.7-2.5-.3-3.8-.7-6.4-.1l4.3,18.6,5.1,23.9c2.5.7,4.4.4,7.3.2,2.3-10.7,5-21.2,6-31.7,2.1,0,2.5.3,3.4.7,1.3.5.8,1.6,1.1,3.2l4.9,26.9c.8,1.9,7.5,1.8,7.8-.2.8-5,2.4-9.9,3.5-14.9l5.8-26.1c-9-6.8-6.8,22.1-11.6,22.9,1.3-8,2.8-16.1,4.7-24.5,3.6,0,6.2-.3,9,.2l-8.4,37.2c-.6,2.8-2.2,5.1-1.6,8.4h-10.8c-.4-8.1-2.5-15.3-4-23.1s.2-4.6-1.7-6.9l-6.5,29.8c-3.5.4-6.3,0-10.3,0l-9.9-47c3.4.9,6.2,1.5,9.9.9l5.8,29.8,7-30.5c3-.3,6-.4,9,.3,1.3,5,5,22.6,4.7,26.4s1.4,2.4,2,1.6.9-1,1-1.6l-.2.2Z"/>
      </g>
      <path class="st12" d="M503.5,25.3c-.3,1.8.8,4.8-1,5.9-2.9.7-14.9-1.1-14.9,1.1v12h12.9c.3,2.5.3,4.5,0,6.9-4.3.3-8.1-.5-12.5.4-.6,4.4-.6,8.7,0,12.5,6.3.3,11.2.2,16.6-1.2.2,3.2.2,5.4,0,8.3h-26.6c-.4-.6-.2-1.7-.2-2,.4,0,.9-.4.9-1.1V27.3c0-.7-.6-1.2-1-1.1v-1h26-.2ZM499.4,47c-5-3.1-8.8,0-13.5-1.4-.9-4.8-.4-10-.2-15.4,5.5-2.1,13.2.8,15.9-1.3,5.6-4.3-20.5-2-22.1-2.6v43.2l22.5-.7c1-.2,0-3.6-1.5-3.6h-15c0-5.2-.8-10.3,1-15.3,4.1-1.3,8.6.2,12.9-2.8h0Z"/>
      <g>
        <path class="st14" d="M532.4,63.2c-.2-.7.6-2.9-.9-2.9h-7.1c2-2.2,5-.1,8.1-1.6-3.7-1-7.7-.3-11.9-.3l-3.1,10c-.4,1.4-3.4,1.2-5.4.4l10.6-42.4c3.1-.4,6-.5,9.3.3,0,5,1.5,9.2,2.8,13.9l7.5,27.9c-1.6.7-4.7,1.5-6.2,0s-1-4.9-2.2-7.3c-.9.6-.8,1.7-1.6,2h0ZM531,52.8l-3.8-15c-1.6,5.5-3.3,9.8-4,15.3,2.7.1,4.6.6,7.8-.3Z"/>
        <path class="st12" d="M532.4,63.2c.8-.3.8-1.5,1.6-2,1.2,2.5.4,5.5,2.2,7.3s4.6.7,6.2,0l-7.5-27.9c-1.3-4.7-2.6-9-2.8-13.9-3.4-.8-6.3-.7-9.3-.3l-10.6,42.4c2,.8,5,.9,5.4-.4l3.1-10c4.2,0,8.1-.7,11.9.3-3,1.5-6-.6-8.1,1.5-4.3-1.4-4.3,7.4-5.1,10.8-3.4.4-6.4.4-9.7-.2l11.9-46.4c3.8-.3,7-.3,10.6,0l10.1,37.9c.8,3.2,2.2,5.6,3.4,8.8h-11.1c-.2-2.9-1.1-5.8-2.2-7.9Z"/>
      </g>
      <path class="st2" d="M477.6,69.2V26.2c.3-.1.9.4.9,1.1v40.8c0,.7-.5,1.2-.9,1.1Z"/>
      <path class="st2" d="M503.5,25.3h-26c0-.8.9-1,2-1h22.1c1,0,2,.3,2,1h0Z"/>
      <path class="st13" d="M502.4,31.2c-4.4,2.7-10,.3-14.9,1.1,0-2.1,12.1-.4,14.9-1.1Z"/>
      <g>
        <path class="st14" d="M389.6,29.2c0,.2,0,.7,0,1-.2,3.7,4.2,8.9,5.7,14.3.5.9,1.5.6,1.3-.4,1,2.1,2.7,5.2,4,7,.3.3,1.6.1,1.9-.5s-.7-.5-1-.5v-5c.4.1.9-.4.9-1l.2-17.6c2.5-.6,4.5-.5,6.9-.1v42.6c-2.4.4-6.7,1.2-8.3-.4-1.8-2.5-10-21.1-10.4-21.2-.7-.3-1.5-.3-2.3-.2v-1c.4-.3,1.2-1,1-1.5-.3-.7-1.1-1-1.7-.7,0-.3,0-.6,0-.9.8-.6.5-1.4.3-1.9-.5-.9-.6-2.9-1.7-1.5s-1.7,1.5-1.7,2.7v26.5c-1.8,1-4.1.4-6.1,0V26.6c10.9-2.4,6.5,2.7,11,2.6h0Z"/>
        <path class="st12" d="M388.6,47.2c.7,0,1.5-.1,2.3.2s8.6,18.7,10.4,21.2c1.7,1.7,5.9.8,8.3.4V26.4c-2.4-.4-4.4-.5-6.8.1l-.2,17.6c0,.7-.5,1.2-.9,1v-17c0-1-.3-1.7-.9-2,0-.5-.3-1,0-2.1,3.1,1.5,6.1,1.1,9.8,1.1v45.9c-3.5.3-6.3.2-10,0l-8.5-17.3c-1.2-2.4-1.9-4.8-3.5-6.6h-.1Z"/>
        <path class="st12" d="M389.6,29.2c-4.5,0,0-5-11-2.6v42.3c1.9.4,4.2,1.1,6,0v-26.5c0-1.2,1.1-2,1.7-2.7,1.1-1.3,1.3.6,1.7,1.5s.6,1.3-.3,1.9c-1.7.1-.7,2.3-1.2,3-1.3,2-2,5.3,0,7v2c-1.7,1.2-1.7,4.8,0,6,0,3.1.2,6.2-.2,9.7-3,.4-5.7.5-8.7,0l-.4-46.6c4-.2,6.8-.3,10,0l2.3,4.8h0Z"/>
        <path class="st12" d="M396.6,44.2c.2.9-.8,1.2-1.3.4-1.5-5.4-6-10.6-5.7-14.3,1.6-1.1,7,14.1,7,14h0Z"/>
        <path class="st1" d="M401.6,45.2v4c-.8,0-1-.9-1-1.9l.2-21c.5.3.9,1,.9,2v17h0Z"/>
        <path class="st14" d="M386.6,53.2c-2-1.7-1.3-5,0-7v7Z"/>
        <path class="st14" d="M386.6,61.2c-1.7-1.2-1.7-4.8,0-6v6Z"/>
        <path class="st12" d="M388.6,46.2c-.6,0-.8-.3-.8-.6,0-.6,0-1.1,0-1.5.5-.3,1.4,0,1.7.7s-.6,1.2-1,1.5h0Z"/>
        <path class="st12" d="M400.6,51.2c.3-.4.6-.7,1-1,.3,0,1.1.3,1,.5-.4.6-1.7.8-1.9.5h0Z"/>
      </g>
      <g>
        <path class="st14" d="M218.9,47.2c.3.3.9.8,1,1,3.9,3.4,7.3,11.6,2.6,17.3s-7.1,3.9-11.5,3.9l-15.3-.2c.5-14.5.5-28.2,0-42.9,7.7.5,21.2-1.4,25.6,2.2,0-.1,5,11.7-2.1,16.1s-1.4,1.2-1.3,1.9.8.6,1,.8h0ZM202.9,44.2h5.9c4.2,0,5.9-3.2,6.2-6.6s-2.8-6.4-7.1-6.1-3.5.2-5.1-.4c0,0-.7,0-.9.4.4,4.5-1.3,9.2.9,12.6h0ZM203.9,50.2h-1c-.8,0-1,.9-1,1.9v13c2-.3,15.8,1.2,12-2,.5-2.1,3.3-4.2,2.8-6.9-.8-4.9-6.7-6.1-10.8-6.1.2-.8-.6-1.3-1.5-1s-.7.5-.5,1h0Z"/>
        <path class="st12" d="M196.8,24.3c-1.6,1.5,12.4.8,14.1.9,2.8.1,6.2-.7,9.1,1s4.9,7.1,4.8,11.7-2.4,6.7-5.8,9.3c-.2-.2-1-.5-1-.8,0-.7.5-1.4,1.3-1.9,7.1-4.4,1.9-16.2,2.1-16.1-4.4-3.6-18-1.8-25.6-2.2.4,14.7.5,28.4,0,42.9l15.3.2c4.5,0,8.8-.6,11.5-3.9,4.7-5.7,1.4-13.9-2.6-17.3,6.4,1.3,8.4,10.8,4.8,17.3s-22.4,5.3-30.8,5.7V25.2c0-1.2,2.2-.9,2.9-.9h0Z"/>
        <path class="st2" d="M210.9,25.3c-1.6,0-15.7.5-14.1-.9h11.9c1.4-.1,2.2.1,2.2.9h0Z"/>
        <path class="st12" d="M213.9,63.2c3.8,3.1-10,1.7-12,2v-13c0-1,.2-2,1-1.9.2,4.3-.5,8.8.4,13.5,3.8,1.5,7.2-.1,10.6-.5h0Z"/>
        <path class="st12" d="M202.9,44.2c-2.2-3.4-.6-8.2-.9-12.6.2-.3.8-.4.9-.4v13Z"/>
        <path class="st12" d="M205.9,50.2h-2c0-.5.2-.9.5-1,.9-.3,1.6.2,1.5,1Z"/>
      </g>
      <g>
        <path class="st14" d="M464.5,45.2l-2.2,1.9c3.7,1.1,3.8,4.4,5.2,6.1,0,4.1.2,9.6-2.9,13s-18.8,2.6-26.1,3V26.2c17.4,1.2,22.8-4.3,27.8,8.6s-1.1,6.6-1.8,10.4h0ZM457.4,43.7c4.4-3.6,3-10.4-1.5-12.5s-6.6-.8-10.4-.8c-1,4.5-2.6,11.2.9,14.9s8.4.4,10.9-1.7h0ZM447.6,64.2c3.1,1.9,8.8,1.8,11.8-1.3s2.1-7.2.2-8.7c-3-2.3-8-5.1-13-3.8.7,4.7-1.4,9.8,1,13.8Z"/>
        <path class="st12" d="M459.5,25.3c5.9,0,8.3,7.6,8.2,12.8s-.5,5.6-3.2,7.2c.6-3.8,3.3-6.6,1.8-10.4-5-12.9-10.4-7.4-27.8-8.6v43c7.3-.4,21.8,1.6,26.1-3s2.8-8.9,2.9-13c2.5,2.9,2,6.8.6,10.4-4.3,11.2-21.5,6.5-31.3,7.7-.4-1-.3-1.7-.3-2.1,2.5-14.2,0-28.8,1.2-44h21.8Z"/>
        <path class="st7" d="M459.5,25.3h-21.8c-1.2,15.2,1.3,29.8-1.2,44V24.4h21c1,0,2,.3,1.9,1h0Z"/>
        <path class="st12" d="M457.4,43.7c-2.6,2.1-8.7,4.1-10.9,1.7-3.6-3.8-2-10.4-.9-14.9,3.8,0,7.2-.6,10.4.8,4.5,2,5.9,8.9,1.5,12.5h0ZM456.6,41.7c3-2.7,1.4-8.2-2.1-9.2s-5.2,0-8-.2v11.9c3.5.3,7,.2,10-2.5h0Z"/>
        <path class="st12" d="M447.6,64.2c3-.9,6.9-.3,10-2s1.9-5.6,2-8c1.8,1.4,1.8,6.5-.2,8.7-3,3.2-8.7,3.2-11.8,1.3Z"/>
      </g>
      <path class="st14" d="M499.4,47c-4.3,3-8.8,1.5-12.9,2.8-1.8,5-.9,10.2-1,15.4h15c1.5,0,2.5,3.4,1.5,3.6l-22.4.7V26.3c1.6.6,27.6-1.7,22,2.6s-10.4-.8-15.9,1.3c-.2,5.5-.6,10.6.2,15.4,4.7,1.5,8.5-1.7,13.5,1.4h0Z"/>
      <g>
        <path class="st4" d="M287.7,69.9c-.5.3-1.4,0-1.9.3.9-2.5-2.6-3.5-3.3-5.4-2.8-7.2-1.1-15-1.8-22.5s-.5-9,2.7-12.6,6.6-4.6,11.5-4.6,11.7,2.3,12.8,8.5c1.5,9,1.4,18.3,0,27.1-2.3,13.7-16.9,7.4-19.8,9.2h-.1ZM290.8,31.2c-.3.7-.8,1.4-2.2,2.2s-2.5,2-2.6,3.9l-.3,20c0,3.9,2.5,8.1,7,7.9s.5,0,1,0c.8.8,2.2,1.6,3.7.6,2.5-1.6,4.9-4.4,5-7.7.3-5.7,1.8-26.5-3.8-28.3s-6.2-.8-7.9,1.4h0Z"/>
        <path class="st12" d="M287.7,69.9c2.8-1.7,17.5,4.5,19.8-9.2,1.5-8.8,1.7-18.2,0-27.1s-7-8.5-12.8-8.5-8.7,1.6-11.5,4.6-3.1,7.8-2.7,12.6c.7,7.5-1,15.3,1.8,22.5,2.8,7.2,4.2,2.9,3.3,5.4-3-2.1-6.6-5.6-6.8-10-.3-8-.3-16,0-24s8.2-13,15.8-12.2,9.5-.1,12.1,4c4.5,7.3,4.2,16,3.6,24.1s-1.2,14.8-7.8,17.9-11,3.8-14.9-.2h0Z"/>
        <path class="st12" d="M293.8,65.2c3.9-.9,7.4-3.8,7-8,1.7-1.5,1.4-16.7,0-20s-.7-4.6-3.4-5.6-4.6-.2-6.6-.3c1.7-2.2,5.6-2.1,7.9-1.4,5.6,1.8,4.1,22.6,3.8,28.3-.2,3.3-2.5,6.1-5,7.7s-2.9.2-3.7-.6h0Z"/>
        <path class="st12" d="M292.8,65.2c-4.5,0-7.1-4.1-7-7.9l.3-20c0-1.9,1.4-3.2,2.6-3.9-1.6,6.3-.5,12.9-.9,19.8s.6,9.5,5.1,12h0Z"/>
        <path class="st4" d="M300.7,57.2v-20c1.4,3.3,1.7,18.5,0,20Z"/>
      </g>
      <g>
        <path class="st12" d="M580.4,61.2c-2.2-2-5.4-6.4-5.2-9.6,1.1-3.2,6.6-4.3,6.9-8.7s-.4-11-2.9-14.2c-7.9-3.4-16.3-2.4-25-2.2v41.9c0,1.6,6,1.7,6,0l.5-16.2c0-1.8,2.2-1.8,3.1-1.9,1.6-.1,3.1.8,4.2,2.2,7.6,10.2,4.8,19.6,14.3,16.1-1-2.6-1.7-4.2-2-7.5l5.3,9.9-10.5.2c-2-3.1-7.6-21.8-12.7-19.1l-.2,18.7c-3.3.5-6.3.5-9.8,0V24.5c12.4,3.5,29.2-5.4,31.4,11.7.9,6.7-1.3,12.7-7.8,16,2.1,3.3,3.7,6,4.4,9.1h0Z"/>
        <path class="st4" d="M580.4,61.2c.3,3.3,1,4.8,2,7.5-9.5,3.5-6.7-6-14.3-16.1-1.1-1.4-2.6-2.4-4.2-2.2s-3,.1-3.1,1.9l-.5,16.2c0,1.6-5.9,1.5-5.9,0V26.5c8.6-.1,17-1.2,24.9,2.2,2.5,3.2,3.3,10.1,2.9,14.2s-5.8,5.5-6.9,8.7c-.2,3.3,3,7.7,5.2,9.6h0ZM563.4,46.2c1.8,2.9,5.6,1.2,8.1.3,4.9-1.9,5-14.3,1.9-10.3-1-6.8-6.8-2.2-11-5,.2,5.4-.5,9.9,1,15Z"/>
        <path class="st12" d="M563.4,46.2c2.8.1,5.8.3,8.4-1.9s2.5-5.3,1.6-8.1c3.1-4,2.9,8.4-1.9,10.3s-6.3,2.6-8.1-.3Z"/>
      </g>
      <g>
        <path class="st12" d="M265.6,63.3c-1.8-.4-6.1-10.7-6-12.4.2-2.6,10.5-7.4,4.1-19.9s-5-4.6-8-4.6h-17.6c-2.3,5.1.4,10-.3,14.9l-1.1,7.9c1-6.9-.5,18.4,2,19.6,8.9,4.5,2.9-10.1,5.8-17s6.8-1.4,8.3,1.5c4.4,8.4,5.4,19,13.7,15.4,0-1.7-.7-2.8-1-5.5.8,2.7,4.3,4.6,3.8,7.9l-10.3-.2c-2.7-3.9-6.9-17.8-9.3-18.5s-4-1.1-4,.4l-.3,18c-3.3.4-6.3.4-9.8,0V25.1c6.6.7,12.4-.2,18-1s11.3,4.5,12.4,8.1,1,8.2,0,11.4-4.3,4.4-5.6,7.5c2.5,4,3.8,8.1,5,12.1h.2Z"/>
        <path class="st7" d="M253.8,24.3c-5.6.8-11.4,1.7-18,1,0-.8.9-1,1.9-1h16.1Z"/>
        <path class="st14" d="M265.6,63.3c.3,2.7,1.1,3.8,1,5.5-8.4,3.6-9.4-6.9-13.7-15.4s-7-4.7-8.3-1.5c-2.9,6.9,3.1,21.5-5.8,17s-1-26.5-2-19.6l1.1-7.9c.7-4.9-2-9.8.3-15h17.6c3,.1,6.7,2.2,8,4.7,6.3,12.5-3.9,17.3-4.1,19.9s4.1,12,6,12.4h0ZM244.8,45.2c3.6,2.4,12,.6,12.8-4.8s-.7-7-4-7.8-5.9-.2-8.5,0c-.2-.4-.3-1.3-1.3-1.3v12c0,1,.2,2,1,1.9h0Z"/>
        <path class="st12" d="M245.1,32.5c-.5,4.2-.2,8.5-.3,12.7-.8,0-1-.9-1-1.9v-12c1,0,1.1.8,1.3,1.3h0Z"/>
      </g>
    </g>
  </g>
</svg>