<?xml version="1.0" encoding="UTF-8"?>
<svg id="Layer_1" data-name="Layer 1" xmlns="http://www.w3.org/2000/svg" viewBox="0 0 752.45 144.03">
  <defs>
    <style>
      .cls-1 {
        fill: #a94c18;
      }

      .cls-2 {
        fill: #200a05;
      }

      .cls-3 {
        fill: #ebe3d9;
      }

      .cls-4 {
        fill: #eceae6;
      }

      .cls-5 {
        fill: #b1531c;
      }

      .cls-6 {
        fill: #b4afab;
      }

      .cls-7 {
        fill: #923b12;
      }

      .cls-8 {
        fill: #612008;
      }

      .cls-9 {
        fill: #e49b52;
      }

      .cls-10 {
        fill: #7e2d0c;
      }

      .cls-11 {
        fill: #3d1104;
      }

      .cls-12 {
        fill: #87340d;
      }

      .cls-13 {
        fill: #561d08;
      }

      .cls-14 {
        fill: #742709;
      }

      .cls-15 {
        fill: #b85b20;
      }

      .cls-16 {
        fill: #461505;
      }
    </style>
  </defs>
  <path class="cls-9" d="M639.58,119.98l-10.96.17c1.31,1.61,1.15,3.14.04,4.79l12.51.36c.52,1.79,1.63,2.85,1.58,4.74h-18.04s.01-22.99.01-22.99c5.54.17,10.46-.35,16.05.23,1.29.13,1.29,3.27-.01,3.54-4.09.85-8.1-.54-11.7.61-1.03.33-.51,4.3.87,4.37l8.78.42c1.12.05,1.05,1.6.85,3.77Z"/>
  <path class="cls-9" d="M454.95,119.63c-3.33,1.07-6.09-.16-9.11.61-.33,1.78-.31,3.14,0,4.73l11.79.12c.08,1.77.16,3.11,0,4.94h-16.92s.18-22.84.18-22.84c5.45-.18,10.38-.39,15.86.06,1.31.11,1.39,3.57.06,3.6l-12,.25c-.17,1.72-.16,3.14,0,4.86l10.02.29c1.08.03,1.32,2.99.12,3.38Z"/>
  <path class="cls-9" d="M596.57,110.34c.53-1.6,1.37-2.57,2-3.03.78-.58,4.09-.47,3.84.54-.86,3.44-8.46,22.11-8.33,22.07-.82.23-3.71.58-4.23-.35l-9.2-21.98c7.44-4.53,7.38,9.78,11.69,15.39l4.23-12.65Z"/>
  <path class="cls-9" d="M527.62,129.59c-1.05.86-2.44.38-3.89.31v-18.74s-6.12-.3-6.12-.3c.46.02-8.93-5.42,17.17-3.59,1.34.09,1.54,3.64.08,3.79-1.93.21-6.22-.92-6.69,1.15-1.26,5.62.08,11.04-.55,17.38Z"/>
  <path class="cls-9" d="M560.64,108.07l-.06,21.82c-1.84.15-3.28.37-4.4-.78-.6-.63.48-1.75.49-3.11l.17-18.64c1.13-.71,3.33-.34,3.79.72Z"/>
  <path class="cls-3" d="M169.72,143.03c.12.37-.33,1-1.12,1h-83.75c-.79,0-1.24-.63-1.12-1h86Z"/>
  <path class="cls-3" d="M560.58,129.89l.06-21.82c2.72,6.33.09,13.68,1.29,21.01.02.74-1.04,1.14-1.34.8Z"/>
  <g>
    <g>
      <path class="cls-4" d="M481.3,33.24c4.39-.41,7.56-.31,11.71-.04l-13.48,53.55c-4.43.51-8.3.38-12.81.16l-7.63-32.11-7.89,32.34-12.19-.23-13.13-53.26c4.05-1.05,7.61-.95,11.38-.08l8.76,35.78,8.06-35.23c1.93-2.1,7.36-1.18,10.09-.54l9.07,35.65,8.06-35.97Z"/>
      <path class="cls-4" d="M599.5,59.48c3.56,1.57,6.48,3.1,7.63,7.29,3.32,12.15-5.88,19.68-12.27,20.06-8.94.53-17.09.09-26.04.1l-.12-53.91,19.07.18c3.25.03,7.1.51,10.18,1.77,6.13,2.51,9.04,10.3,7.92,16.32-.72,3.88-2.17,5.94-6.37,8.19ZM594.85,49.41c.1-2.42-1.15-5.53-4.28-6.18s-6.38,0-9.82-.19v12.9c6.01.53,13.82.43,14.1-6.53ZM591.81,77.56c3.23-.92,4.18-4.39,3.91-6.92-.83-7.82-8.11-4.82-14.96-6.78v14.14c3.66-.19,7.18.65,11.05-.44Z"/>
      <path class="cls-4" d="M312.02,58.81c3.19,2.81,6.13,3.91,7.62,7.43,3.63,8.61-2.49,19.15-12.18,20.43-8.48,1.12-16.83-.03-25.67.31l-.09-53.94c11.09.58,33.93-3.35,37.02,10.89,1.35,6.24-.2,12.35-6.7,14.88ZM305.52,53.65c2.58-2.42,2.6-5.22,1.5-7.34-2.45-4.74-9.76-3.29-14.25-2.96,2.33,3.83.08,8.65.58,11.83,3.17,1.96,9.43,1.04,12.17-1.53ZM308.29,72.08c.37-2.1-.71-6.36-3.61-6.86-3.94-.67-7.66.4-11.3-.99-2.32,6.6,1.34,7.95-.78,13.75,6.54-.05,14.33,1.72,15.69-5.9Z"/>
      <path class="cls-4" d="M539.75,33.15l-.08,53.57c-3.86.61-7,.37-11.02.2l-16.63-31.13-.48,31c-3.73.42-7.05.33-10.83.15v-53.82c3.79-.12,7.06-.35,10.76.12l16.75,30.87c2.22-3.04.7-5.94.62-9.07-.19-7.29-.27-14.28.09-21.54,3.6-.78,6.32-.54,10.81-.34Z"/>
      <path class="cls-4" d="M372.85,86.25c-4.4,1.75-8.46.28-13.53.93l-8.22-16.56c-.86-1.73-.72-4.05-2.11-4.34-2.17-.46-4.01-.56-6.25.05l-.17,20.48-11.75.29v-53.8c11.28.04,30.45-2.91,36.22,7.22,4.87,8.55,2.35,18.85-6.61,23.85,5.45,8.44,5.67,12.54,12.42,21.89ZM356.14,54.91c.75-3.68,1.72-8.7-1.39-10.81-3.36-2.28-8.03-.59-11.97-1.04l-.04,13.96c4.7.25,8.64-.4,13.4-2.12Z"/>
      <path class="cls-4" d="M738.88,87.13l-10.55-21.43c-2.43,1.02-3.81,1.18-5.56.42l-.2,20.69c-4.12.4-7.72.28-11.85.14l.02-53.89c14.18.86,38.49-4.83,38.34,16.05-.05,6.5-2.18,11.45-8.97,14.73,4.11,8.19,7.54,15.54,12.34,22.86-4.49.73-8.18.11-13.57.43ZM737.52,51.18c.42-2.3-.37-5.97-2.82-7.04-3.89-1.7-7.79-1.1-11.96-1.01v13.81c5.65.49,13.64.5,14.78-5.75Z"/>
      <path class="cls-4" d="M419.38,71.25c-.83,10.77-9.15,18.16-19.7,16.64-8.86,1.58-17.02-3.51-19.96-12l.14-28.77c.05-9.6,11.58-15.28,21.22-14.69,10.57.65,17.78,7.4,18.36,18.05.36,6.64.5,13.53-.06,20.77ZM407.68,70.58l.07-19.58c.02-5.27-3.54-8.89-8.57-8.95-3.82-.05-8.09,3.59-8.29,8.17-.3,6.89-.4,13.61.1,20.4.36,4.92,3.83,8.07,8.34,8.3,4.05.2,8.32-3.15,8.34-8.34Z"/>
      <path class="cls-4" d="M686.94,76.09c-5.64,0-10.56-.43-15.6.27l-2.99,10.41c-3.86.45-7.49.55-11.84-.16l16.36-53.47c4.33-.14,8.09-.49,12.45.3l17.01,53.28c-4.23.57-8.18.36-12.39.23-1.06-3.74-1.42-6.85-3.01-10.86ZM684.16,65.54l-4.95-16.8c-2.12,5.68-3.72,11-4.74,17.18,3.69.04,6.44.61,9.7-.38Z"/>
      <path class="cls-4" d="M647.61,65.02l-17.86.03v12.96s20.72.17,20.72.17l.53,8.8-33.28.05v-54s32.88-.02,32.88-.02c.25,3.47.34,6.44-.17,9.87l-20.68.17v12.94s17.32.34,17.32.34c.82,3.04.8,5.68.53,8.69Z"/>
    </g>
    <path class="cls-9" d="M420.68,129.74c-10.19,3.11-7.28-9.41-13.52-9.05-1.01,3.01-.16,5.91-.52,9.26-1.7.09-3.08.12-4.9-.02l.16-22.64c6.01-.6,17.25-1.55,17.58,6.21.13,3.13-1.58,5.51-5.06,6.82l6.26,9.42ZM413.89,111.75c-2.02-1.01-6.63-1.55-7.9,0-.89,1.09-.31,3.84-.14,4.74s6.09,1.28,8-.83c.68-.75,1.82-3.02.04-3.91Z"/>
    <path class="cls-9" d="M495.11,129.35c-1.21-1.75-.94-3.62-1.91-4.42-1.93-1.59-8.52-1.06-9.47-.44s-1.29,2.29-1.65,4.08c-.41,2.03-4.82,2.16-5.19.59,2.31-6.65,5.89-14.08,8.47-20.42.77-1.88,2.42-1.8,3.81-1.79,1.61.02,2.54,1.51,3.2,3.36,2.34,6.61,4.98,12.68,7.88,19.05-1.11.8-4.07,1.51-5.14-.02ZM491.51,119.93c-1.34-3.05-1.4-5.25-3.39-7.01-1.12,2.6-1.91,4.54-2.54,6.99,2.41.25,3.93.21,5.93.03Z"/>
    <path class="cls-9" d="M364.71,119.42c.4,3.24,2.43,4.84,4.33,5.92,4.16,2.34,7.94-3.23,9.72-2.66,1.16.37,2.8,1.67,1.69,3.13-3.49,4.55-9.92,5.42-14.79,2.76s-7.45-9.28-5.03-14.48c1.76-3.78,4.55-6.09,7.54-7.24,3.75-1.44,8.45-.22,11.12,2.44,1.6,1.6,1.25,3.21.18,3.94-4.24,2.89-2.9-5.2-11.35-1.47-2.58,1.14-3.88,3.9-3.41,7.67Z"/>
    <g>
      <path class="cls-3" d="M207.27,136.59c-.39-.1-1.24.03-1.59.17-5.43-4.96-11.38-9.14-19.61-8.9,3.5-6.84,4.92-13.63,6.55-21.07,2.22-10.13,4.77-19.77,4.01-31.06-18.08,10.49-32.66,10.58-45.99,27.26-1.05,1.31-2.88,4.16-1.84,5.84,5.82,9.33,12.73,17.52,17.2,27.02-5.61-1.59-12.03-.62-18.09-.74-.2,1.29.53,2.36-.07,2.97l-13.1-10.04-1.13-1.88c-.25-.41.38-1.6,1.03-2.21,11.49-10.82,5.96-20.21,20.1-29.91,1.12-.77,2.62-1.53,3-3,8.81-4.66,17.88-8.57,27.55-12.38,7.23-2.85,13.37-7.4,20.41-9.61s13.46-4.37,21.03-4.93c3.83-.28,7.91-.08,10.85-2.1,4.18-2.88,6.36-8.19,8.21-12.81,1.96-4.9-8.97-5.28-15.63-12.5-2.24-2.43-3.46-5.46-5.23-7.84-2.97-4.01-14.16-6.24-19.19-7.18-11.38-2.13-14.08-16.61-15.38-3.7-1.16-.27-2.45.14-3.62.06-3.82-1.38-7.96-2.16-12.03-2.09-12.2-3.35-24.92-2.55-37.94-3.16-11.39-.53-21.6-5.11-32.03-7.75-1.64-.41-3.47-.24-5-1.18-.89-.54-1.94-.79-2.95-.98-.31-.06-.65.04-.97.01-1.44-1.21-3.33-.89-5.08-.86-5.92.12-19.3.19-23.07,5.75-1.83.25-2.81,1.82-3.79,3.24-4.32,1.08-7.05,5.5-10.23,7.87-2.63,1.97-4.01,3.45-5.93,6.05-3.95,5.33-4.34,11.67-6.14,18.08l-.84,3-4.37,18.92c-1.31,5.68-2.16,11.15-4.55,16.02-.8,1.62-1.46,3.66-1.09,6.01,2.85,18.04,8.45,35.04,16.09,51.08l-2.97-2.1c-7.99-14.86-12.3-31.74-15.24-48.77-.75-4.32,1.77-7.06,2.61-10.63l10.73-45.48c2.56-10.87,15.38-17.72,22.65-24.28C71.03.98,80.09.04,88.69,0c14.84-.06,36.29,10.67,46.99,10.86l20.96.38c2.78.05,5.23.6,8.19.95l22.59,2.73c1.55-1.94,2.32-4.46,4.85-4.11,9.43,1.31,2.59,6.33,13.4,8.44,5.74,1.12,11.48,2.92,16.88,4.96,5.01,1.9,6.21,7.13,9.11,10.94,3.75,4.92,16.12,6.58,16.74,12.93.37,3.76-2.64,6.47-4.12,9.37-2.36,4.62-5.43,7.71-11.01,8.2-11.97,1.06-23.61,3.38-34.39,10.04.31,10.72-1.49,20.93-4.02,31.39l-4.47,18.47c7.23,1.05,12.7,5.57,16.86,11.03Z"/>
      <path class="cls-6" d="M99.87,131.03c.94.44,2.01.56,2.98.92,1.84.69,2.66,2.69,3.9,4.03.18.4.85.64.97,1.05.5,1.64,2.23,2.12,3.84,2.05.04,1.49,1.26,2.07,3.06,2.06l32.79-.25c.46-.13.2-1.62.23-1.95.03-.22.02-.71.17-.86.61-.6-.13-1.68.07-2.97,6.06.13,12.48-.84,18.09.74.92.26,2.26,1.22,2.78,2.03,1.43,2.24,13.45,1.24,11.96.15h7c-.79,1.44,12.24,1.73,15-.07.84-.55,2.25-.26,2.95-1.2.35-.14,1.2-.27,1.59-.17,4.84,1.25,10.12-.26,15.44.6,5.46.88,10.35.87,16.21,1.05-.22,2.71-27.21,3.73-27.12,3.74-4-.45-7.41.79-11.16.82l-30.92.23h-86l-38.93-.26c-3.3-.02-6.72-.8-10.06-1.02l-14.05-.94-11.01-1.1c-3.24-.32-6.38.75-9.68-.8,6.77-2.29,12.94.15,19.47-1.19,9.12-1.87,20.79.79,24.36-1.75l2.97,2.1c.09.19.08.55.04.76-.13.72.71,1.57,1.71,1.34,3.71-.85,6.82.63,10.24.67l28.02.27c.88,0,1.07-.79.72-1.29-1.32-1.91-3.11-4.24-4.91-5.74.26-.95.89-1.84,1.09-2.81,9.14-1.2,7.73,2.47,16.15-.24Z"/>
      <path class="cls-2" d="M205.67,136.76c-.7.95-2.11.65-2.95,1.2l-15,.06h-7c-3.99.02-7.98.16-11.96-.14-.52-.81-1.86-1.77-2.78-2.03-4.47-9.5-11.38-17.69-17.2-27.02-1.04-1.67.79-4.53,1.84-5.84,13.33-16.68,27.92-16.77,45.99-27.26.76,11.29-1.78,20.92-4.01,31.06-1.63,7.44-3.05,14.23-6.55,21.07,8.23-.24,14.18,3.94,19.61,8.9Z"/>
      <path class="cls-12" d="M63.85,29.86c-1.41,2.49-4.36,2.39-6.88,3.58-3.13,1.48-3.41,6.18-3.25,9.09l-4.63,1.38c.45,2.15.37,5.49,1.31,7.59,2.86,1.93,4.87,4.02,7.2,6.76,11.22,13.21,15.86,8.02,27.63,16.33,3.42,2.42,7.25.94,9.68-1.65,1.97,9.75,1.29,19.46-1.93,28.86-2.29-.28-6.54,1.8-8.81-.51-7.47-7.6-14.25-15.52-22.18-22.12l-1.12-2.2c-2.35-4.61-7.66-6.8-10.93-10.82-.34-3.48-4.27-5.68-6.22-9.21-1.63,2.95-1.43,5.88-4.94,7.52-1.22-3.65,5.19-19.44,1.95-18.44l.84-3c2.97-1.06,1.74-8.96,6.05-16.08.31-.51.96-.86,1.07-1.43.06-.31-.63-.64-.99-.57,1.93-2.6,3.31-4.09,5.93-6.05,2.22.26,10.47,9.28,10.21,10.96ZM50.84,39.03c0-.61-.5-1.11-1.11-1.11s-1.11.5-1.11,1.11.5,1.11,1.11,1.11,1.11-.5,1.11-1.11Z"/>
      <path class="cls-2" d="M43.6,96.14c-2.11,3.72.84,6.01,3.35,8.7,17.23,18.44,4.97,22.85,27.7,30.18,1.21.39,1.43-2.63,1.24-3.44-.56-2.3-3.7-2.36-4.54-3.6-1.56-2.31,1.42-4.4,1.58-7.01,5.77-4.71,6.53-13.67,12.87-16.83-4.69,6.93-9.54,13.85-13.33,22.03,3.24,3.26,7.02,5.3,10.15,7.91,1.8,1.5,3.59,3.83,4.91,5.74-1.59-.32-3.18-.78-4.81-.78h-12l-23.88-.19c.04-.21.05-.57-.04-.76-7.64-16.04-13.24-33.05-16.09-51.08-.37-2.35.29-4.39,1.09-6.01,2.36.09,3.97,2.43,5.02,4.78,1.84,4.14,5.89,6.31,6.78,10.38Z"/>
      <path class="cls-15" d="M95.81,2.89c-.4.3-1.4-.29-1.93.54-.3.75,1.44.7,2.29.6.38-.05.7-.52.61-1.15,1.01.19,2.06.44,2.95.98.49,1.05,1.46,1.77,2.69,2.05.74.17,2.23.4,2.31-.87,10.42,2.64,20.64,7.22,32.03,7.75,13.02.6,25.74-.19,37.94,3.16-1.58.72,13.66,4.22,12.03,2.09,1.16.08,2.46-.33,3.62-.06,1.05.25,1.57,1.63,2.27,2.26-.42,1.21-.74,2.5-.77,3.8-.61.04-1.87.29-2.05-.53-.16-.73,1.32-1.85,1.07-2.72-.51-1.81-3,.06-4.51-.12l-35.92-4.1c-.47,1.76.4,3.04.56,4.38s0,2.81.29,4.14c-.53-2.58-3.18,11.06-3.38,11.47-1.37,2.86-5.83,3.19-8.28,4.36.03-2.94-5.26-3.12-10.92-5.97.81-.59,2.14-.96,2.63-1.87.11-.2-2.48-8.85-2.03-8.06-.56-.99-2.63-.59-3.87-1.82-2.31-2.27-4.45-8.05-7.96-8.36-3.34-.29-6.41-1.19-8.58-3.66-1.07-.26-3.78,1.46-4.45.77l-2.26-2.33-11.49-4.43c-1.75-.67-4.27.62-4.97-1.16,1.08-.08,2.09-.03,3.33-.06.98-.03,2.05-.49,1.67-1.94,1.75-.03,3.65-.36,5.08.86Z"/>
      <path class="cls-10" d="M205.72,21.68c5.04.94,16.23,3.17,19.19,7.18.37.84-.28.73-.6.8-.29.06-1.58-.47-1.94,0-1.68,2.16-2.06,8.03.8,9.86s6.01,2.67,7.58,5.62c-3.94,3.93-10.46,2.89-15.88,3.73-8.48-2.01-17.29-2.8-26.04-3.01-.27-3.61.43-7.15.71-10.74s2.21-7.32,2.3-11.09c.03-1.29.35-2.58.77-3.8l2.07.38c-.67-.12,2.98,5.86,5.06,7.13,3.15-3.59,6.4-2.74,9.99-3.03-1.87-1.18-4.01-1-4.01-3.03Z"/>
      <path class="cls-8" d="M49.93,66.17c.4,4.07,2.93,6.82,7.23,8.44,1.21.46,1.93,3.16,3.7,2.37l1.12,2.2c-3.35,12.72,2.71,12.89-7.31,19.92l-11.08-2.97c-.89-4.06-4.94-6.23-6.78-10.38-1.04-2.35-2.65-4.69-5.02-4.78,2.39-4.88,3.24-10.35,4.55-16.02l4.37-18.92c3.25-1-3.16,14.79-1.95,18.44,3.5-1.64,3.3-4.57,4.94-7.52,1.95,3.53,5.88,5.73,6.22,9.21ZM58.72,90.53c0-.28-.22-.5-.5-.5s-.5.22-.5.5.22.5.5.5.5-.22.5-.5ZM57.86,93.03c0-.35-.28-.63-.63-.63s-.63.28-.63.63.28.63.63.63.63-.28.63-.63Z"/>
      <path class="cls-2" d="M113.72,103.03c.28,1.03-.12,1.87-.65,1.9l-3.58.21c-2.71.16-3.02,6.88-1.72,9.72,2.01,4.42,5.72,6.97,8.95,10.12,5.39,5.25,11.67,8.32,18.78,10.46,2.42.73,5.08,3.13,7.5.85-2.39-3.7-6.42-5.18-8.26-8.24l13.1,10.04c-.16.15-.15.65-.17.86l-2.92.1h-28l-5.16.05c-1.61.07-3.34-.41-3.84-2.05l-.97-1.05c-1.24-1.34-2.06-3.34-3.9-4.03-.65-1.56-1.58-3.03-3.07-3.9-.03-.98-.07-1.16-.96-1.09-.94-3.74-13.19-14.51-11.69-17.98.49-1.14.97-2.5,2.69-2.67l16.54-1.69c2.68-.27,4.92-2.19,7.37-1.59Z"/>
      <path class="cls-16" d="M233.54,61.01c1.38.03,2.79.42,4.03,1-2.94,2.02-7.02,1.82-10.85,2.1-7.57.55-14.34,2.82-21.03,4.93,1.05-2.71-7.93,2.88-14.94,5.02-3.14.96-5.71,3.59-9.19,3.88-1.47.12-.84-3.44-1.74-3.84-3.22-1.43-6.55-3.72-9.89-4.04-.39,1.19.02,3.94-.39,4.93-.28.66-.77,1.09-1.84.21l.07-4.25c1.53-4.52,3.19-9.9,1.06-14.35,1.65-.57,3.16-1.61,4.95-1.19,1.62.38,2.72,2.53,4.1,3.44,5.94,3.92,11.42-.99,16.1-4.28,4.32-3.04,11.58-3.13,15.8-.89,2.19,1.17,2.82,3.7,5.69,3.78.61,6.13-14.22.94-9.86,9.83,2.67-2.34,28.41-6.25,27.94-6.26Z"/>
      <path class="cls-16" d="M154.72,94.03c-14.13,9.7-8.61,19.09-20.1,29.91-.65.61-1.28,1.8-1.03,2.21l1.13,1.88c1.84,3.07,5.86,4.54,8.26,8.24-2.42,2.28-5.08-.12-7.5-.85-7.11-2.13-13.38-5.2-18.78-10.46-3.23-3.14-6.93-5.69-8.95-10.12-1.29-2.84-.99-9.56,1.72-9.72l3.58-.21c.54-.03.93-.87.65-1.9-.08-.31.05-.68,0-1,.32.07.67-.04,1,0l1.9.24c-.79.95-.51,3.04-.57,4.09-.12,1.85,2.55,2.22,3.46,3.86.52.94.37,2.2.67,2.81s16.74,4.4,18.57,3.74c2.07-3.41,2.15-6.92,3.99-9.82l6.95-10.91c1.95-.26,3.54-1.7,5.04-2.98v1Z"/>
      <path class="cls-1" d="M90.72,2.03c.38,1.45-.69,1.91-1.67,1.94-1.24.03-2.25-.02-3.33.06-.92.07-2.1.78-2.62,1.57-.84,1.27,1.99,2.48,2.25,3.58-1.48,1.42-4.08,2.03-3.85,4.23.78,7.52,14.36,7.83,14.15,11.28-1,.16-1.7,1.37-2.74,2.43-.27-1.32-17.28-12.24-15.83-11.98-.99-.18-1.66.95-2.73,1.34-3.24,1.17-10.76-.15-11.5,1.18-2.43,4.35,6.21,5.95,3.98,13.57-1.04-.34-2.06-.78-2.99-1.37.26-1.68-7.99-10.7-10.21-10.96,3.17-2.38,5.9-6.79,10.23-7.87,1.42-.36,3.35-.7,3.79-3.24,3.77-5.56,17.15-5.64,23.07-5.75Z"/>
      <path class="cls-14" d="M235.66,47.16c1.24,1.93,4.79,4.64,8.19,2.98l1.92-.94c-1.85,4.62-4.03,9.93-8.21,12.81-1.24-.58-2.65-.97-4.03-1-3.28-6.95-12.6-5.29-14.31-7.34-1.52-1.82-2.04-4.27-4.35-4.81,5.42-.84,11.94.2,15.88-3.73,1.06-1.06,4.17.88,4.91,2.03Z"/>
      <path class="cls-11" d="M205.68,69.04c-7.03,2.22-13.18,6.77-20.41,9.61-9.67,3.81-18.74,7.72-27.55,12.38.55-2.15,3.41-2.43,4.81-4.21,2.72-3.45,2.81-8.25,5.16-11.62,1.07.88,1.57.45,1.84-.21.41-.99,0-3.74.39-4.93,3.34.32,6.67,2.61,9.89,4.04.9.4.26,3.96,1.74,3.84,3.48-.29,6.05-2.92,9.19-3.88,7.01-2.15,15.99-7.73,14.94-5.02Z"/>
      <path class="cls-7" d="M224.92,28.86c1.76,2.39,2.99,5.41,5.23,7.84,6.66,7.22,17.59,7.6,15.63,12.5l-1.92.94c-2.35-1.87-5.28-2.46-8.19-2.98-.74-1.15-3.85-3.09-4.91-2.03-1.57-2.95-4.78-3.82-7.58-5.62s-2.48-7.7-.8-9.86c.36-.46,1.65.06,1.94,0,.32-.06.96.05.6-.8Z"/>
      <path class="cls-1" d="M205.72,21.68c0,2.03,2.14,1.85,4.01,3.03-3.59.29-6.84-.56-9.99,3.03-2.08-1.27-5.73-7.25-5.06-7.13l-2.07-.38c-.7-.63-1.23-2.01-2.27-2.26,1.3-12.91,4,1.58,15.38,3.7Z"/>
      <path class="cls-14" d="M41.56,43.03c1.79-6.41,2.19-12.75,6.14-18.08.36-.07,1.05.26.99.57-.11.57-.76.92-1.07,1.43-4.32,7.12-3.08,15.02-6.05,16.08Z"/>
      <path class="cls-1" d="M186.72,18.03c1.64,2.12-13.61-1.37-12.03-2.09,4.07-.07,8.21.71,12.03,2.09Z"/>
      <path class="cls-12" d="M67.65,7.79c-.45,2.54-2.37,2.88-3.79,3.24.98-1.42,1.97-2.99,3.79-3.24Z"/>
      <path class="cls-1" d="M95.81,2.89c.32.03.66-.07.97-.01.09.63-.23,1.1-.61,1.15-.85.1-2.58.15-2.29-.6.52-.83,1.53-.24,1.93-.54Z"/>
      <path class="cls-1" d="M104.72,5.03c-.08,1.27-1.57,1.04-2.31.87-1.23-.28-2.2-1-2.69-2.05,1.53.94,3.36.76,5,1.18Z"/>
      <path class="cls-13" d="M154.72,94.03v-1c1-.86,1.83-1.38,3-2-.38,1.47-1.88,2.23-3,3Z"/>
      <path class="cls-4" d="M113.72,102.03c.05.32-.08.69,0,1-2.45-.6-4.69,1.31-7.37,1.59l-16.54,1.69c-1.72.18-2.2,1.53-2.69,2.67-1.5,3.47,10.75,14.24,11.69,17.98l-10.86.86c-1.56.12-3.08-.89-3.71.26s-.32,2.21-.52,3.19-.83,1.86-1.09,2.81c-3.13-2.61-6.91-4.65-10.15-7.91,3.79-8.18,8.65-15.1,13.33-22.03,2.34-.78,5.69.86,7.92-.1,3.37-1.47,6.87-.88,11.04-1.03,3.2-.12,6.11-1.58,8.96-.97Z"/>
      <path class="cls-3" d="M98.82,126.96c.89-.07.93.11.96,1.09l.09,2.97c-8.42,2.71-7.01-.96-16.15.24.21-.98-.1-2.05.52-3.19s2.16-.14,3.71-.26l10.86-.86Z"/>
      <path class="cls-3" d="M70.72,139.03c1.95,1.73,6.05,1.73,8,0h3c-.04,1.17,1.04,1.17,1,0,1.63,0,3.21.47,4.81.78.35.51.16,1.3-.72,1.29l-28.02-.27c-3.43-.03-6.54-1.51-10.24-.67-1,.23-1.84-.62-1.71-1.34l23.88.19Z"/>
      <path class="cls-4" d="M116.72,139.03c-.08.77.92,1.03,1.96,1.03h24.09c1.04,0,2.03-.25,1.96-1.03l2.92-.1c-.03.33.23,1.82-.23,1.95l-32.79.25c-1.8.01-3.02-.57-3.06-2.06l5.16-.05Z"/>
      <path class="cls-3" d="M202.72,137.96c-2.76,1.8-15.79,1.51-15,.06l15-.06Z"/>
      <path class="cls-3" d="M180.72,138.03c1.5,1.09-10.52,2.09-11.96-.15,3.98.3,7.97.16,11.96.15Z"/>
      <path class="cls-4" d="M102.85,131.95c-.97-.36-2.03-.48-2.98-.92l-.09-2.97c1.49.86,2.42,2.33,3.07,3.9Z"/>
      <path class="cls-4" d="M107.72,137.03c-.12-.41-.79-.65-.97-1.05l.97,1.05Z"/>
      <path class="cls-14" d="M66.83,31.23c1.9,4.84,6.25,8.11,9.89,11.73-.68,2.42.88,3.68,2.82,5.35,11.78,10.13,1.82,8.14,9.81,13.27-.46,4.05,2.46,4.99,5.45,5.28.05.75.4,1.52.4,2.28,0,1.23-.55,2.57-.3,3.81-2.43,2.59-6.26,4.06-9.68,1.65-11.77-8.3-16.42-3.12-27.63-16.33-2.32-2.74-4.34-4.83-7.2-6.76-.94-2.11-.86-5.45-1.31-7.59l4.63-1.38c-.16-2.91.12-7.62,3.25-9.09,2.52-1.19,5.47-1.09,6.88-3.58.93.59,1.94,1.03,2.99,1.37Z"/>
      <path class="cls-11" d="M103.92,78.83c1.14,3.39,6.48,2.44,13.6,5.15-1.32-2.99-.3-7.19,3.21-7.84,4.07-.75,8.11.07,11.77-.18l-.88,7.99c-3.35,3.65-6.36,7.72-8.7,12.09-6.45,1.92-2.7,1.92-6.29,6.23l-1.9-.24c2.03-4.77-11.67,1.01-21.74-.22,3.22-9.4,3.9-19.11,1.93-28.86-.25-1.23.3-2.58.3-3.81,2.2,3.88,4.73,7.62,8.71,9.68Z"/>
      <path class="cls-16" d="M92.98,101.81c-.16.69.54,1.59.74,2.22-2.22.97-5.57-.68-7.92.1-6.34,3.16-7.1,12.12-12.87,16.83-2.54-1.54-5.07-3.62-6.23-6.75-2.77-7.43-10.03-1.85-12.02-15.11,10.02-7.03,3.95-7.19,7.31-19.92,7.93,6.6,14.71,14.52,22.18,22.12,2.27,2.31,6.52.23,8.81.51Z"/>
      <path class="cls-16" d="M60.87,76.98c-1.78.79-2.49-1.92-3.7-2.37-4.3-1.62-6.83-4.37-7.23-8.44,3.27,4.02,8.58,6.2,10.93,10.82Z"/>
      <circle class="cls-14" cx="49.72" cy="39.03" r="1.11"/>
      <path class="cls-11" d="M54.68,99.1c1.99,13.26,9.25,7.68,12.02,15.11,1.17,3.13,3.69,5.21,6.23,6.75-.16,2.62-3.14,4.7-1.58,7.01.83,1.24,3.98,1.3,4.54,3.6.2.81-.03,3.83-1.24,3.44-22.73-7.33-10.47-11.74-27.7-30.18-2.51-2.69-5.46-4.98-3.35-8.7l11.08,2.97Z"/>
      <path class="cls-6" d="M78.72,139.03c-1.95,1.73-6.05,1.73-8,0h8Z"/>
      <path class="cls-6" d="M81.72,139.03h1c.04,1.17-1.04,1.17-1,0Z"/>
      <path class="cls-5" d="M85.72,4.03c.7,1.77,3.23.48,4.97,1.16l11.49,4.43,2.26,2.33c.67.69,3.38-1.03,4.45-.77,2.17,2.47,5.24,3.37,8.58,3.66,3.52.31,5.66,6.09,7.96,8.36,1.24,1.22,3.31.83,3.87,1.82-.45-.79,2.14,7.86,2.03,8.06-.49.91-1.83,1.28-2.63,1.87-.54-.27-1.31-.87-1.87-.97-.56-1.19-1.11-2.65-2.6-3.58-1.14-.71-2.39-.41-3.41.29-.61.42-.78,1.54-.92,2.49-1.02-.07-2.06.17-3.08-.03-2.36-1.65-5.46-1.22-8.04-2.17-1.62-.6-3-2.27-5.2.19-1.99-2.26-2.86-4.7-5.09-6.42-.69-.34-2.18-.15-2.82-.04.21-3.45-13.37-3.76-14.15-11.28-.23-2.2,2.37-2.81,3.85-4.23-.26-1.1-3.08-2.31-2.25-3.58.52-.79,1.7-1.5,2.62-1.57Z"/>
      <path class="cls-1" d="M191.84,24.03c-.09,3.77-2.01,7.35-2.3,11.09-2.22.88-4.55,1.57-6.96.64-5.05-1.94-2.22-9.38-6.26-8.24-1.65.46,1.83,7.44-3.07,9.92-1.62-6.13-10.39-10.99-14.62-10.28-.91-.4-1.55-1.18-1.85-2.12-.4-.34-.85-.59-1.28-.89l-4.52-3.2c-.16-1.34-1.03-2.61-.56-4.38l35.92,4.1c1.51.17,4-1.69,4.51.12.24.87-1.23,1.99-1.07,2.72.18.83,1.45.57,2.05.53Z"/>
      <path class="cls-7" d="M119.9,33.17c2.32.16,4.65.38,6.93.8.56.1,1.34.7,1.87.97,5.66,2.85,10.95,3.03,10.92,5.97-2.87,6.61-1.94.17-4.6,9.99-1.2-1.74-4.37-.56-6.07-.09-1.32-.54-1.84-1.54-3.33-1.94-1.32,2.48-2.41,4.57-4.02,5.84-2.27-2.41,1.65-4.39,1.53-6.14-.13-1.93-3.69-4.57-2.74-6.87-.28-.56-2.16-.17-1.73.63.21.38.46,1,.54,1.81.12,1.19-1.3.77-1.48.34l-.75-1.74-9.01-6.75c-.67-.5,1.78-1.8,2.1-.99.23.59.55,1.11,1.06,2.15,5.28-5.05,3.98-.55,5.7-4.01,1.02.19,2.06-.04,3.08.03Z"/>
      <path class="cls-9" d="M155.52,24.14l1.28.89c.3.94.93,1.73,1.85,2.12.78,5.06,3.1,9.76,4.91,15.06.85,2.51-.44,5.77,2.13,6.89l1.73,7.2c-1.62.64-3.24-.5-4.87-.92-4.36-1.14-7.78-4.57-6.73-9.18l-4.52-21.12c-.28-1.33-.13-2.78-.29-4.14l4.52,3.2Z"/>
      <path class="cls-13" d="M188.83,45.86c8.75.21,17.56,1,26.04,3.01,2.31.55,2.83,2.99,4.35,4.81,1.7,2.05,11.03.39,14.31,7.34.46.01-25.27,3.92-27.94,6.26-4.36-8.88,10.46-3.7,9.86-9.83-2.87-.08-3.5-2.62-5.69-3.78-4.22-2.24-11.48-2.15-15.8.89-4.68,3.29-10.16,8.2-16.1,4.28-1.38-.91-2.48-3.06-4.1-3.44-1.78-.42-3.3.62-4.95,1.19-.41.05-1.03-.45-1.41-.3l-1.73-7.2c.39.15,1.52.03,1.6-.45.06-.41-.5-1.51,0-2.4,6.68.95,14.76-.55,21.56-.39Z"/>
      <path class="cls-7" d="M189.54,35.12c-.28,3.59-.98,7.13-.71,10.74-6.79-.16-14.88,1.33-21.56.39-.51.9.06,2,0,2.4-.07.48-1.21.6-1.6.45-2.56-1.11-1.27-4.38-2.13-6.89-1.8-5.29-4.12-9.99-4.91-15.06,4.23-.71,13,4.15,14.62,10.28,4.9-2.48,1.42-9.46,3.07-9.92,4.04-1.14,1.21,6.3,6.26,8.24,2.41.92,4.74.24,6.96-.64Z"/>
      <circle class="cls-16" cx="57.22" cy="93.03" r=".63"/>
      <circle class="cls-16" cx="58.22" cy="90.53" r=".5"/>
      <path class="cls-6" d="M144.72,139.03c.07.77-.92,1.03-1.96,1.03h-24.09c-1.04,0-2.04-.26-1.96-1.03h28Z"/>
      <path class="cls-10" d="M108.77,30.97c2.59.96,5.69.52,8.04,2.17-1.72,3.45-.41-1.04-5.7,4.01-.51-1.03-.83-1.56-1.06-2.15-.32-.8-2.77.49-2.1.99l9.01,6.75.75,1.74c.18.42,1.6.85,1.48-.34-.08-.81-.33-1.43-.54-1.81-.44-.8,1.44-1.19,1.73-.63-.94,2.3,2.61,4.95,2.74,6.87.12,1.75-3.8,3.73-1.53,6.14,1.61-1.27,2.7-3.35,4.02-5.84,1.49.39,2.01,1.4,3.33,1.94,1.7-.47,4.87-1.65,6.07.09s2.65,1.59,5.49,2.73c-.81-.43-.85-1.38-.78-2.06.13-1.33,1.35-2,2.05-2.79,2.43-.04,4.04,2.6,6.33,3.64,1.03.47,1.66-1.59,2.13-1.25.64.46,1.2,1.62,1.29,2.1,1.12,5.79,10.06,3.96,9.84,4.17.53-.5.67-1.28,1.16-2.06,1.62.42,3.24,1.57,4.87.92.38-.15.99.35,1.41.3,2.13,4.46.47,9.83-1.06,14.35-1.83.2-3.58.51-5.67-.21,1.32-3.66-1.59-5.52-4.47-6.85-2.53-1.16-4.35-.86-6.27,1.21-.75-1.12-.86-1.79-1.14-2.08-.32-.34-1.87.03-1.46,1.16.36,1.01,1.94,1.35,2.11,2.42.44,2.83-2.26.56-2.64,6.07-2.09.89-4.12.07-6.45.57-.63,2.62-.18,5.66-2.24,7.52-2.24,2.04-5.36,2.59-7.91,3.18l.88-7.99c1.11-.08,2.53-2.17,4.5.07.71-.85.27-1.62.07-2.25-.22-.69-3.12-.03-3.04-.91l.52-6.12c-2.5.51-4.72,1.52-6.88-.2-1.27,1.33-1.89,2.71-4.11,3.49-.33-2.54-1.21-4.07-3.68-4.32-1.58-.16-.85-2.72-1.51-3.19-1.87-1.32-1.75,1.25-2.24,2.57s1.78.42,2.88,1.72c-1.69,1.38-3.2.72-4.43,1.3l-4.63-3.35c-1.18-.85.5-2.31,1.8-3.25-.61-.31-2.36-.58-3.12-.32-.87.29-.98,2.19-1.54,3.83-2.45-3.61-12.43-.54-12.26,1.84-2.99-.28-5.91-1.22-5.45-5.28-7.99-5.13,1.97-3.14-9.81-13.27-1.94-1.67-3.5-2.93-2.82-5.35,5.92-4.02-6.38-11.7,4.56-10.2,1.04-1.13.22-3.3.72-4.56,3.34-1.36,3.37,2.68,4.6,3.99,3.67,1.99,8.24,1.51,12.21,2.78,1.05-1.31.94-2.95,2.11-3.53,2.59,1.87,6.83,2.36,7.85-.47ZM155.05,62.91c2.16-.76,2.11-2.78,1.26-4.93-.5,1.31-2.09,2.13-1.26,4.93ZM141.72,71.53c0-.28-.22-.5-.5-.5s-.5.22-.5.5.22.5.5.5.5-.22.5-.5Z"/>
      <path class="cls-8" d="M167.75,70.95l-.07,4.25c-2.34,3.37-2.44,8.17-5.16,11.62-1.4,1.78-4.26,2.05-4.81,4.21-1.17.62-2,1.14-3,2-1.5,1.29-3.09,2.72-5.04,2.98-1.04-1.54-2.56-3.23-4.32-4.49-2.79-2-5.45.02-7.97.98-8.75,3.34-4.24,6.57-14.49,3.53,2.34-4.37,5.35-8.44,8.7-12.09,2.55-.59,5.67-1.14,7.91-3.18,2.06-1.87,1.61-4.9,2.24-7.52,2.33-.51,4.36.31,6.45-.57.38-5.52,3.07-3.25,2.64-6.07-.16-1.06-1.75-1.41-2.11-2.42-.41-1.13,1.14-1.5,1.46-1.16.28.29.38.96,1.14,2.08,1.92-2.08,3.75-2.38,6.27-1.21,2.88,1.33,5.79,3.19,4.47,6.85,2.09.72,3.84.41,5.67.21Z"/>
      <path class="cls-13" d="M149.69,96.02l-6.95,10.91c-1.85,2.9-1.93,6.42-3.99,9.82-1.82.66-18.28-3.15-18.57-3.74s-.14-1.87-.67-2.81c-.91-1.63-3.58-2.01-3.46-3.86.07-1.04-.22-3.13.57-4.09,3.59-4.3-.16-4.31,6.29-6.23,10.24,3.04,5.74-.19,14.49-3.53,2.52-.96,5.18-2.98,7.97-.98,1.76,1.26,3.28,2.94,4.32,4.49Z"/>
      <path class="cls-2" d="M114.72,102.03c-.33-.04-.68.07-1,0-2.85-.61-5.76.84-8.96.97-4.18.16-7.67-.43-11.04,1.03-.2-.63-.9-1.54-.74-2.22,10.07,1.23,23.77-4.54,21.74.22Z"/>
      <path class="cls-7" d="M95.65,24.7c.64-.1,2.13-.3,2.82.04,2.23,1.72,3.11,4.16,5.09,6.42,2.2-2.45,3.58-.79,5.2-.19-1.02,2.83-5.27,2.35-7.85.47-1.17.59-1.06,2.22-2.11,3.53-3.96-1.26-8.54-.78-12.21-2.78-1.24-1.31-1.26-5.36-4.6-3.99-.5,1.26.32,3.43-.72,4.56-10.93-1.5,1.36,6.18-4.56,10.2-3.64-3.63-7.99-6.9-9.89-11.73,2.23-7.62-6.4-9.23-3.98-13.57.74-1.33,8.25,0,11.5-1.18,1.07-.39,1.74-1.51,2.73-1.34-1.45-.26,15.56,10.66,15.83,11.98,1.04-1.06,1.74-2.27,2.74-2.43Z"/>
      <path class="cls-10" d="M243.85,50.14c-3.4,1.66-6.96-1.05-8.19-2.98,2.91.52,5.84,1.12,8.19,2.98Z"/>
      <path class="cls-12" d="M114.56,68.11c1.12.81,2.38,1.65,3,3.01-1.89-.15-1.85,1.81-2.67,2.97-.7.98-2.37,1.54-2.19,3.15-1.76.85-3.63,3.43-5.8,1.73-.42-.33-1.16-1.72-1.66-1.82-.55-.12-1.1,1.18-1.33,1.68-3.98-2.06-6.51-5.81-8.71-9.68,0-.76-.35-1.53-.4-2.28-.17-2.38,9.82-5.45,12.26-1.84.56-1.64.67-3.54,1.54-3.83.77-.26,2.52,0,3.12.32-1.3.95-2.98,2.4-1.8,3.25l4.63,3.35Z"/>
      <path class="cls-8" d="M132.49,75.96c-3.65.25-7.69-.57-11.77.18-3.51.65-4.52,4.85-3.21,7.84-7.11-2.71-12.45-1.76-13.6-5.15.24-.5.79-1.8,1.33-1.68.5.11,1.24,1.49,1.66,1.82,2.17,1.69,4.05-.88,5.8-1.73.84-.41,2.31.3,2.96-.78.49-.81.67-2.48-.77-2.37.82-1.16.77-3.12,2.67-2.97.05.68-.2,1.25-.66,2.41-.25.63,1.56.68,2.31.48s.66-1.48.48-2.44-1.39-.39-2.13-.45c-.62-1.35-1.88-2.2-3-3.01,1.23-.58,2.75.08,4.43-1.3-1.09-1.3-3.35-.42-2.88-1.72s.36-3.89,2.24-2.57c.67.47-.07,3.03,1.51,3.19,2.46.25,3.34,1.78,3.68,4.32,2.21-.78,2.84-2.16,4.11-3.49,2.15,1.72,4.37.71,6.88.2l-.52,6.12c-.08.89,2.82.23,3.04.91.2.63.64,1.41-.07,2.25-1.96-2.24-3.39-.15-4.5-.07Z"/>
      <path class="cls-15" d="M126.83,33.97c-2.28-.43-4.62-.64-6.93-.8.14-.95.31-2.07.92-2.49,1.02-.69,2.26-1,3.41-.29,1.49.93,2.04,2.39,2.6,3.58Z"/>
      <path class="cls-7" d="M156.8,25.03l-1.28-.89c.42.3.88.55,1.28.89Z"/>
      <path class="cls-7" d="M155.81,46.2c-1.05,4.61,2.37,8.05,6.73,9.18-.49.78-.63,1.57-1.16,2.06.23-.21-8.72,1.62-9.84-4.17-.09-.48-.66-1.64-1.29-2.1-.47-.34-1.1,1.71-2.13,1.25-2.29-1.03-3.9-3.67-6.33-3.64.43-.47-.16-1.82.77-2.16s2.16,1.11,3.1,1.03c3.64-.33,6.79-1.95,10.14-1.45Z"/>
      <path class="cls-8" d="M155.05,62.91c-.83-2.81.76-3.63,1.26-4.93.85,2.15.9,4.18-1.26,4.93Z"/>
      <path class="cls-1" d="M151.28,25.08l4.52,21.12c-3.35-.5-6.51,1.12-10.14,1.45-.94.09-2.12-1.37-3.1-1.03s-.35,1.68-.77,2.16c-.71.79-1.92,1.46-2.05,2.79-.07.68-.03,1.63.78,2.06-2.84-1.14-4.28-.98-5.49-2.73,2.66-9.81,1.73-3.38,4.6-9.99,2.45-1.16,6.91-1.5,8.28-4.36.2-.42,2.85-14.06,3.38-11.47Z"/>
      <circle class="cls-8" cx="141.22" cy="71.53" r=".5"/>
      <path class="cls-10" d="M112.71,77.24c-.18-1.61,1.49-2.17,2.19-3.15,1.45-.11,1.26,1.56.77,2.37-.65,1.09-2.12.38-2.96.78Z"/>
      <path class="cls-10" d="M117.57,71.12c.73.06,1.94-.56,2.13.45s.25,2.25-.48,2.44-2.56.15-2.31-.48c.46-1.17.71-1.73.66-2.41Z"/>
    </g>
  </g>
</svg>