<?xml version="1.0" encoding="UTF-8"?>
<svg id="Layer_1" data-name="Layer 1" xmlns="http://www.w3.org/2000/svg" viewBox="0 0 1920 1080">
  <defs>
    <style>
      .cls-1 {
        fill: #692e13;
      }

      .cls-2 {
        fill: #a95722;
      }

      .cls-3 {
        fill: #4b2412;
      }

      .cls-4 {
        fill: #612b12;
      }

      .cls-5 {
        fill: #221a14;
      }

      .cls-6 {
        fill: #b25d24;
      }

      .cls-7 {
        fill: #9b4b1d;
      }

      .cls-8 {
        fill: #733416;
      }

      .cls-9 {
        fill: #542511;
      }

      .cls-10 {
        fill: #4f220f;
      }

      .cls-11 {
        fill: #3f1b0d;
      }

      .cls-12 {
        fill: #2c150b;
      }

      .cls-13 {
        fill: #0f0a07;
      }

      .cls-14 {
        fill: #d84;
      }

      .cls-15 {
        fill: #211913;
      }

      .cls-16 {
        fill: #823c18;
      }
    </style>
  </defs>
  <path class="cls-14" d="M1034.41,552.38c-4.6,4.21-5.29-7.05-12.69-2.99-2.22,1.22-3.69,3.9-6.69,3.14l7.74-17.13c.52-1.15,2.03-1.2,2.97-.99,2.16.48,5.65,13.4,8.67,17.97Z"/>
  <path class="cls-14" d="M968.51,550.79c.74.98-.54,1.54-1.04,1.92-2.87,2.17-5.51-7.17-8.93-7.01,0,3.95.71,6.96-3.57,7.49l-.48-18.04c5.37.29,13.8-1.54,14.14,4.44.16,2.77-.74,4.73-4.22,5.79l4.1,5.42ZM964.39,540.84c.81-1.86-4.17-3.76-5.36-2.39-1.42,1.64-.7,4.83.93,4.72.99-.07,3.34.18,4.43-2.33Z"/>
  <path class="cls-14" d="M1147.04,544.45c-1.06,1.5-6.72-.61-7.61,1.41-.35.79-.5,3.14.63,3.18l8.29.25c.9.03,1.15,1.71.91,2.25-1.19,2.68-9.75,1.35-13.74,1.28-.03-6.17-.49-11.88.23-17.68,4.84.11,8.64-.38,12.89.57.79,3.58-5.85,1.85-8.47,2.37-.9.18-1.75,3.42-.36,3.59l7.05.87c.61.07.51,1.45.19,1.9Z"/>
  <path class="cls-14" d="M998.55,542.28c12.38,3.28-6.88.9-6.91,4.82-.03,2.73,5.13,1.97,8.17,2.24.64.06,1.19,2.09.45,2.47-3.75,1.97-8.1,1.51-12.3.82-.62-6.03-.27-11.28-.22-17.33,4.34-.15,8.35-.63,12.28.27,1,.23.19,2.52-.47,3.05-1.15.93-3.05-1.86-7.04-.09-.79.35-1.81,2.59-.59,3.21,2.07,1.05,4.35-.07,6.64.54Z"/>
  <path class="cls-14" d="M923.98,545.07c3.35,8.17,11.59.81,12.74,4-2.71,4.17-6.82,4.91-10.84,3.15-3.24-1.42-6.67-4.53-6.16-9.1.38-3.43,3.2-6.65,5.74-7.55,3.43-1.21,6.96-1.56,9.83.8,1.09.9,1.26,1.88.77,2.74-1.78,3.11-4.6-3.68-9.75.09-1.81,1.33-3.24,3.62-2.32,5.87Z"/>
  <path class="cls-14" d="M1109.86,547.28c2.11-4.59,2.66-12.58,7.98-12.13.82.07.52,1.65.08,2.65l-5.45,12.45c-.65,1.5-.9,3.12-2.63,2.9-.97-.13-2.52-1.03-3.1-2.44l-6.11-14.74c-.37-.88,2.35-1.04,3.08-.7,3.2,1.46,2.32,8.37,6.14,12.01Z"/>
  <path class="cls-14" d="M1057.87,538.34c-2.12,3.73,1.91,15.15-2.95,14.78-3.37-.26-.08-12.28-2.1-15.19-2.68.11-5.39.96-5.62-2.3,2.11-.76,15.41-.91,15.94.14.36.72.72,2.32-.64,2.35-1.16.03-3.27-.66-4.64.22Z"/>
  <path class="cls-14" d="M1083.99,535.63c.4,3.86,1.35,14.35-.87,16.57-5.72,5.73-3.05-14.27-3.49-16.58.88-.83,3.77-.81,4.35.01Z"/>
  <g>
    <g>
      <path class="cls-3" d="M784.56,508.12l-1.79,9.99c-.66.09-1.2-1.17-1.59-.9.29-.2-6.75,34.25-1.4,28.88,1.2.32,2.14,1.15,3,2,.5.85.9,1.85,1.05,2.71.26,1.45-1.33,2.56-3.06,2.54l-19.46-.22c.45-3.89,1.03-7.08-.03-10.92-2.05.59-1.9,2.65-2.98,4.94-2.56-5.19-5.31-10.25-7.64-16.05-.58-1.45.13-3.1.04-4.48-.06-.9,1.61-2.31,3.4-1.5,2.02.92.62,4.95,2.07,6.57,1.59,1.78,2.27,3.51,3.54,5.51-.1-6.42-1.61-11.53-2.68-16.92,6.9-3.66,14.66-5.86,21.39-10.47,2.05-1.41,4.05-4.09,6.14-1.68Z"/>
      <path class="cls-9" d="M698.88,448.28c-1.57.26-3.01,1.63-4.88,1.22-2.07-.45-4.48-.9-6.08.61-.51.48-1.77.19-2.23.95-.17.28-.6.75-.88.89-.98.51-1.79,1.24-2.07,2.35-.38.22-2.07.47-2.29,1.25-.32,2.88,2.08,5.22,2.91,7.99.36,1.22-.51,2.82-.35,3.72.22,1.25,3,1.56,3.32,2.5,1.7,4.95,2.05,10.69,6.77,13.58l-3.22,1.31c-1.53.62-.83,8.39-4.75,11.4-2.11-2.68-3.39-5.19-5.91-6.7-4.66,5.03-3.93.1-8.32,3.21-1.45-.86-2.94-3.03-4.76-2.4-.37.13-.83-.1-1.22-.02-2.03,3.69,5.58-28.88,3-24.98,1.6-2.62,3.94-4.32,6.63-6.59,10.38-8.77,7.2-11.32,24.33-10.29Z"/>
      <path class="cls-4" d="M810.92,471.5c-.33,6.2,4.61,3.94,4.88,5.97.09.66.28,2.29-.58,2.63-.63.25-1.68-.09-2.39.08-1.6-.89-3.22-1.75-4.57-3.91-6.35,1.4-12.27,3.83-17.67,7.6-3.31,2.31-15.69.3-16.88.43l-6.74.76c-1.86.21-3.37-2.23-5.16-2.07-.18-.8-.29-1.62-.33-2.44.08-1.55-.22-3.09-.93-4.47l.21-1.84c2.66,2.52,5.87,1.85,9.52,1.4,9.55-1.19,5.77-5,15.55-6.5,2.71-2.32,3.69-6.13,8.9-5.33-.38-1.52-1.58-1.6-2.05-2.55,5.14.08,18.61,3.01,18.23,10.26Z"/>
      <path class="cls-9" d="M679.89,506.19c2.3,1.31,4.32,3.35,5.26,5.77-1.52,1.42-2.8,3.21-4.09,5.51l-5.65-4.79c-.8,1.95-.89,3.76-1.99,4.35-.62.33-1.55-.25-2.71-.14,1.15,2.44-.35,3.98-1.96,6.02,2.29-.13,4.89-1.67,6.1.46,1.27,2.24.91,7.97,6.21,5.81-2.75,1.17.05.09-.42.5-1.04.91-.54,3.93,1.63,3.25,3.97-1.24,1.2,16.1,8.1,11.06,1.73-1.26,2.56-4.41,1.62-5.8,5.35-2.16,2.77-5.51,5.52-4.88-.66,2.23-2.19,3.73-2.93,6.11l-1.27,4.07c-2.01,6.43,6.64,3.78,8.58,9.6l-14.45.02c-2.63,0-5.02,2.08-7.42-.13.92-.61,2.16-.48,2.94-1.44-1.11-.9-2.1-.55-2.77-1.54,1.3-2.01,2.76-1.54,4.98-3.21-3.57-.13-3.43-3.3-5.13-4.78-2.29-2-5-3.01-5.63-6.71-.9-5.24-8.19-2.87-3.51-6.85-2.11-.06-4.11-.3-6.19-.74-2.19-3.32-4.99-8.04-4.81-12.58,3.66,1.12.75-5.48,4.63-10.33,2.94-1.62,5.09-.45,7,1.83.31.37,8.07,2.42,8.38-.42ZM672.92,514.61c0-.28-.22-.5-.5-.5s-.5.22-.5.5.22.5.5.5.5-.22.5-.5Z"/>
      <path class="cls-12" d="M718.86,526c-3.86,2.3-8.62,1.48-13.06,2.56,9.75,2.46,22-3.58,32.04-1.46l-2.7,9.18c-.97,3.31.14,6.79-.3,9.8-.56.2-.99.99-1.97.93-.15-3.1.62-6.01-1.1-8.56-3.48.55-6.1,2.46-9.44,3.49.93,3.24,3.01,3.49,4.75,6.26-6.83,3.28-2.03,3.77-7.6,2.91-.43-.07-.88,2.04-.37,1.98,6.75-.83,20.26,3.48,23.71-1,.51.34,1.97.9,1.88,1.5-.08.5-1.22,1.53-1.93,1.53l-25.14-.28-14.77-27.76c1.68-3.08,3.6-6.6,4.68-9.97.96-.29,1.34.56.88,1.43-1.38,2.66-.55,4.92,1.98,6.2,2.82,1.43,5.7,1.34,8.46,1.27Z"/>
      <path class="cls-16" d="M707.84,501.31c.99.08,1.98.02,2.94-.19-.16.46.05,1.28-.08,1.79-.7.07-1.36.32-1.69.86-.41.68-.1,1.46.75,1.43-.71,3.57-1.09,8.32-2.24,11.89-1.08,3.37-3,6.89-4.68,9.97-2.11,1.26-4.52,3.4-5.37,6.24-2.75-.63-.17,2.72-5.52,4.88-4.1-2.15-5.8-7.23-5.24-12.41.18-1.62,2.83-3.27,2.64-5.55,2.18,1.12,3.24.49,1.66-.89-.95-3.73-2.64-6.76-5.9-7.37-.94-2.42-2.96-4.46-5.26-5.77-1.37-.93-2.13-4.3-3.87-5.17,2.45-1.4,4.8,3.66,15.92,4.8l6.79.69c2.88.29,5.1-.48,7.5,3.05l1.6-8.25Z"/>
      <path class="cls-6" d="M743.78,455.99c1.27.37,3,.2,4.12.99l1.99,1.99c-2.33-.71,7.47,11.98,7.48,10.08.39.24,1.19.76,1.49,1.11l.93,2.01c.32.69.57,1.42.98,2.06l-.21,1.84c-.97.43-1.71,1.62-1.41,2.48.38,1.08,1.19,3.01,2.34,1.99.04.82.14,1.64.33,2.44l-1.05,1.21c-.9-.09-1.8-.11-2.69-.07.01-.33-.2-.69-.15-1.01.71-4.95-7.63-2.19-3.13-8.52-2.27.36-3.44-.36-4.01-2.43-2.97,1.05-1.26,5.71-3.85,5.74.05-.23-.12-.5-.12-.74-.29-2.14,1.92-3.94.4-6.46-2.44.98-1.07,3.12-1.39,4.46-2.5,1.78-5.35-.23-8.22-.12l.25-2.87c.19-2.12-.23-2.61-2.55-2.96-1.83-.28-1.17,1.6-2.49,2.83-.08-.2-.07-.67.02-.87.54-1.34-5.05-11.01-8.3-10.1.36-1.79,2.31-1.6,1.97-2.78-1.72-.09-2.87.17-3.07-.52-.18-.61.07-.91.3-1.21-.49.64,13.35-.26,14.6.02,2.18.48,4.23,1.36,5.44-.56Z"/>
      <path class="cls-2" d="M743.78,455.99c-1.2,1.92-3.26,1.03-5.44.56-1.25-.27-15.08.62-14.6-.02-.23.3-.47.6-.3,1.21.2.69,1.35.44,3.07.52.34,1.18-1.61.99-1.97,2.78,3.25-.91,8.84,8.76,8.3,10.1-3.19,2.29-7.15-1.58-8.05,2.17-1.96-.32-4.07.29-5.88.91.23-1.31,1.62-2.96,1.02-4.41-.4-.98-1.8-1.46-1.86-2.41-.07-1.02.36-1.88.6-2.74-14.56-3.27-6.18-7.08-15.48-9.82-.86-.55-1.46-2.64-3.33-3.25-.21-.82,12.91.21,10.99-1.42,1.75.19,3.05,1.11,4.81,2.13,9.37,5.4,19.96,1.12,28.09,3.69ZM723.85,469.66c0-.28-.22-.5-.5-.5s-.5.22-.5.5.22.5.5.5.5-.22.5-.5Z"/>
      <path class="cls-12" d="M757.15,518.22c.09.66-.26,1.4-.13,2.05,1.07,5.39,2.58,10.49,2.68,16.92-1.26-2.01-1.94-3.73-3.54-5.51-1.45-1.62-.04-5.65-2.07-6.57-1.79-.81-3.46.6-3.4,1.5.09,1.38-.62,3.03-.04,4.48,2.33,5.8,5.08,10.86,7.64,16.05,1.08-2.29.94-4.35,2.98-4.94,1.06,3.84.47,7.03.03,10.92l19.46.22c1.72.02,3.31-1.09,3.06-2.54-.15-.86-.56-1.86-1.05-2.71,2.22,2.22,5.48,3.31,7.37,6.79l-29.91.15-15.51-30.73c-2.08-1.09-5.21.63-6.88.81-2.76.29-5.76-.45-8.91.13s-6.14,1.17-9.06.87c1.82-.97,4.81-2.11,6.99-2,3.15.16,5.97-.83,9.31-1.27,3.87-.51,7.23-.49,11.01-2.42,3.11-1.59,7.02-1.01,9.98-2.19Z"/>
      <path class="cls-12" d="M664.93,490.14l-.97,1.76c-.55,1,1.24,1.37,2.13,1.24.47.45.79,1.01.98,1.62-.56.8-3.4,1.41-3.59,2.95-.76,6.12-3.37,11.63-3.6,17.41-.18,4.54,2.62,9.26,4.81,12.58,1.08,4.5.42,9.94,3.14,14.41,4.7,7.68.55,13.1,5.39,9.47.29-.22.15.36.16,1.48,1.98.17,4.7-.61,6.62-.09,2.4,2.21,4.79.13,7.42.13l14.45-.02c1.01-.05,1.28.75.9,2.05l-33.37-.25c-4.03-13.62-8.25-26.28-11.44-39.76-.82-3.46,1.78-7.46,2.3-10.72l4.35-27.5c.69-4.34,1.22-8.3,3.31-11.73,2.59-3.91-5.02,28.66-3,24.98Z"/>
      <path class="cls-8" d="M792.69,461.25c.47.95,1.67,1.03,2.05,2.55-5.21-.8-6.19,3.01-8.9,5.33-9.78,1.5-6.01,5.31-15.55,6.5-3.65.46-6.86,1.13-9.52-1.4-.41-.64-.66-1.37-.98-2.06,4.05-3.11,4.55-.69,12.6-2.66,5-15.91,17.55-8.18,10.84-12.37-1.14.32-2.32.18-2.97-.4-.19-.17,1.31-1.38,1.51-1.4,5.7.94,5.63,3.74,10.93,5.89Z"/>
      <path class="cls-7" d="M710.87,450.18c1.92,1.63-11.2.6-10.99,1.42,1.87.61,2.46,2.7,3.33,3.25,9.29,2.74.91,6.56,15.48,9.82-.24.86-.67,1.72-.6,2.74.06.95,1.46,1.43,1.86,2.41.59,1.45-.79,3.1-1.02,4.41-1.93-.07-3.36-2.45-4.49-3.73.23,4.59-8.63-4.93-10.02-6.05s-3.86.27-4.33-1.05c-2.64-7.36,1.27-6.44-1.41-9.61-1.15-1.36-2.99.28-4.89-.03-1.67-.27-.29-3.28.24-4.26,1.87.41,3.31-.96,4.88-1.22,4.06-.68,7.99,1.46,11.98,1.89Z"/>
      <path class="cls-7" d="M758.86,470.17c-.29-.35-1.1-.87-1.49-1.11-.03-.65.55-2.31-.37-2.94-3.04-2.09-4.79-4.83-7.11-7.14l-1.99-1.99c10.68-3.3,23.81,2.9,29.72-1.4.59,4.43-1.17,2.69-9,8.06-.73.5-2.44-.49-3.25-.27.96-.25-6.77,6.74-6.5,6.8Z"/>
      <path class="cls-11" d="M734.84,546.08c2.07,1.78,5.93,4.62,7.99,5.99-3.46,4.48-16.97.17-23.71,1-.51.06-.06-2.05.37-1.98,5.56.87.77.37,7.6-2.91-1.74-2.77-3.82-3.02-4.75-6.26,3.34-1.02,5.96-2.93,9.44-3.49,1.72,2.56.95,5.46,1.1,8.56.98.06,1.41-.73,1.97-.93Z"/>
      <path class="cls-9" d="M822.72,479.15c-.5-.16-.77.15-.77.51,0,.72.75,1.08.77,1.49.04.67.23,1.48.18,2.15-.08,1.13-.27,2.53,1.07,2.93-1.9,4.39-7.5,6.62-4.25,6.91-.52.74-1.34.61-2,1,.04-.88-2.2-1.71-2.83-1.17.38-4.43-.98-8.52-2.07-12.79.71-.17,1.76.17,2.39-.08.86-.34.67-1.97.58-2.63-.26-2.03-5.2.23-4.88-5.97,3.86,2.66,7.65,5.43,11.8,7.65Z"/>
      <path class="cls-16" d="M781.77,455.35c-.2.01-1.7,1.22-1.51,1.4.64.59,1.83.72,2.97.4,6.71,4.19-5.84-3.55-10.84,12.37-8.06,1.96-8.55-.45-12.6,2.66l-.93-2.01c-.26-.07,7.47-7.06,6.5-6.8.81-.21,2.52.77,3.25.27,7.84-5.37,9.59-3.62,9-8.06.75-.55,1.42-1.3,2.67-1.4.59-.05,1.1.64,1.48,1.17Z"/>
      <path class="cls-12" d="M817.73,494.13c-4.19,2.5-29.56,2.96-33.89,11.69-.7.03-1.37.23-2.06.3.81-1.46,1.26-3.11,1.08-4.79,3.35,1.8,5.82-2.65,8.13-3.23,4.98-1.26,10.21-2.38,15.71-3.45,3.06-.6,6.01.23,8.21-1.68.63-.54,2.86.29,2.83,1.17Z"/>
      <path class="cls-14" d="M781.78,506.12c.69-.07,1.37-.26,2.06-.3.64.56.87,1.45.72,2.29-2.09-2.42-4.09.27-6.14,1.68-6.73,4.61-14.49,6.81-21.39,10.47-.13-.65.22-1.39.13-2.05,2.52-1.01,5.06-1.73,6.32-4.3l2.33.19c4.22-1.83,8.54-3.91,11.98-6.99.32-.29.46-.8.84-1.06,1.05.08,2.11.16,3.16.06Z"/>
      <path class="cls-16" d="M737.83,525.1c-.13.63.18,1.38,0,2-10.03-2.12-22.28,3.93-32.04,1.46,4.44-1.09,9.2-.26,13.06-2.56l1,.1c2.92.3,5.81-.28,9.06-.87s6.16.17,8.91-.13Z"/>
      <path class="cls-12" d="M782.77,518.11c-1.01,5.68-1.73,11.48-2.43,17.63-.41,3.64-2.53,7.33-.57,10.34-5.34,5.38,1.69-29.07,1.4-28.88.39-.26.93.99,1.59.9Z"/>
      <path class="cls-12" d="M819.73,493.13c-3.25-.29,2.35-2.52,4.25-6.91.41-.95,2.57-1.35,1.79-3.08-.3-.65.38-1.76-.65-1.94-.89-.16-1.68-.1-2.39-.05-.03-.41-.77-.77-.77-1.49,0-.36.27-.66.77-.51,1.43.76,3.87.49,4.62,2.07,2.23,4.71-6.36,10.12-7.61,11.91Z"/>
      <path class="cls-8" d="M687.93,450.12c1.65,1.37.25,4.05,1.01,6.06,1.01,2.68,11.89,21.24,16.4,13.18,2.38,7.82,2.79,1.16,3.39,10.26,1.46.14,4.55-1.32,5.35.36.5,2.81-.2,5.89,1,8.48-2.89,1.13-5.67,1.28-7.17,4.17s-1.7,5.62-.07,8.69l-1.6,8.25c-2.41-3.53-4.62-2.76-7.5-3.05l-6.79-.69c-11.12-1.14-13.47-6.2-15.92-4.8-3.34-1.68-5.23-5.28-8.95-6.26-.19-.62-.51-1.18-.98-1.62l.05-2.98c1.83-.62,3.31,1.55,4.76,2.4.14.45.11,1.31.72,1.32,5.93.08,2.16,1.98,4.17,1.77,4.05-.43,6.76,1.93,9.76,3.87,16.13.53,12.3-2.16,18.49-7.08,1.02-.81,2.37-1.35,2.28-2.67-.05-.74-1.91-1.27-1.88-2.11l2.14-1.17c-.39.21-2.18-4.61-2.49-4.82-.44-.29-1.65.38-2.57.35-2.2-4.65-6.02-8.77-11.93-9.29,1.53-2.28,3.27-2.46,2.92-4.09-.51-2.34-5.47-1.76-5.26-3.09l.38-2.38c.49-3.07-3.58-5.88-4.88-8.87.28-1.11,1.09-1.84,2.07-2.35.75.47,1.34-.16.88-.89.46-.76,1.72-.47,2.23-.95Z"/>
      <path class="cls-1" d="M670.91,492.56c4.38-3.11,3.65,1.83,8.32-3.21,2.52,1.51,3.79,4.02,5.91,6.7,3.92-3.01,3.22-10.78,4.75-11.4l3.22-1.31c-4.71-2.88-5.07-8.63-6.77-13.58-.32-.94-3.1-1.25-3.32-2.5-.16-.9.71-2.5.35-3.72-.83-2.77-3.23-5.11-2.91-7.99.22-.78,1.91-1.03,2.29-1.25,1.3,2.98,5.38,5.8,4.88,8.87l-.38,2.38c-.21,1.32,4.75.74,5.26,3.09.36,1.63-1.39,1.81-2.92,4.09,5.91.52,9.73,4.64,11.93,9.29.93.04,2.14-.64,2.57-.35.31.21,2.1,5.03,2.49,4.82l-2.14,1.17c-.03.84,1.83,1.37,1.88,2.11.09,1.32-1.26,1.86-2.28,2.67-6.2,4.92-2.36,7.61-18.49,7.08-3-1.94-5.71-4.29-9.76-3.87-2.02.21,1.75-1.69-4.17-1.77-.61,0-.58-.87-.72-1.32Z"/>
      <path class="cls-11" d="M666.09,493.14c-.9.13-2.68-.23-2.13-1.24l.97-1.76c.39-.08.84.14,1.22.02l-.05,2.98Z"/>
      <path class="cls-16" d="M684.82,451.96c.28-.15.72-.61.88-.89.45.74-.13,1.37-.88.89Z"/>
      <path class="cls-10" d="M812.83,480.18c1.09,4.27,2.45,8.36,2.07,12.79-2.2,1.91-5.15,1.08-8.21,1.68-5.5,1.08-10.73,2.2-15.71,3.45.43-3.3-.93-4.77-4.15-5.41-2.96-.58-4.68.37-5.72,4.04-.27.95-1.32,1.81-1.98,1.86-.5.04-1.93-.09-2.13-.64-1.25-3.52-3.83-1.73-6.28-2.11s-3.81-4.48-6.59-3.62l-1.26-3.08c.19-1.97-.69-3.59-2.12-4.95l1.05-1.21c1.79-.16,3.31,2.28,5.16,2.07l6.74-.76c1.19-.13,13.56,1.88,16.88-.43,5.4-3.77,11.32-6.2,17.67-7.6,1.34,2.16,2.97,3.02,4.57,3.91Z"/>
      <path class="cls-7" d="M761.48,480.54c-1.15,1.02-1.96-.91-2.34-1.99-.3-.86.44-2.05,1.41-2.48.71,1.38,1.01,2.92.93,4.47Z"/>
      <path class="cls-11" d="M680.01,552.96c-1.91-.52-4.63.26-6.62.09-.01-1.12.14-1.7-.16-1.48-4.84,3.62-.7-1.79-5.39-9.47-2.73-4.46-2.06-9.91-3.14-14.41,2.09.43,4.09.68,6.19.74-4.68,3.98,2.61,1.61,3.51,6.85.63,3.7,3.34,4.72,5.63,6.71,1.7,1.48,1.56,4.65,5.13,4.78-2.21,1.67-3.68,1.2-4.98,3.21.67.99,1.66.65,2.77,1.54-.79.95-2.03.83-2.94,1.44Z"/>
      <path class="cls-11" d="M676.02,501.02c1.74.88,2.5,4.24,3.87,5.17-.31,2.84-8.06.79-8.38.42-1.91-2.27-4.07-3.45-7-1.83-3.88,4.85-.98,11.45-4.63,10.33.23-5.78,2.84-11.28,3.6-17.41.19-1.53,3.03-2.14,3.59-2.95,3.72.98,5.61,4.58,8.95,6.26Z"/>
      <circle class="cls-1" cx="672.42" cy="514.61" r=".5"/>
      <path class="cls-11" d="M726.85,524.1c-2.18-.11-5.17,1.03-6.99,2l-1-.1c-2.76.07-5.64.16-8.46-1.27-2.53-1.29-3.36-3.55-1.98-6.2.46-.88.08-1.73-.88-1.43,1.15-3.57,1.52-8.32,2.24-11.89.44-.58,1.71-1.29.93-2.3,4.9,9.85,10.59,7.88,10.49,17.61,2.19.49,3.5-.4,5.29-.27l.36,3.85Z"/>
      <path class="cls-1" d="M766.57,509.24c.08.98.81,1.91.98,2.88-.81.45-1.43,1.11-1.75,2l-2.33-.19c-.96-1.54-1.87-4.94-4.29-4.44-1.09.23-2.45,3.7-4.19,2.63-4.16-2.57-8.49-1.51-13.02-2.46-3.77-.79,3.2-7-17.9-4.55-3.01-2.97-5.75-5.9-9.54-7.61-1.57-.71-3.29,2.32-3.75,3.63-.97.21-1.96.27-2.94.19-1.63-3.07-1.44-5.77.07-8.69s4.29-3.04,7.17-4.17c.34.32.94.52,1.1.91.33.8-.26,1.67-.18,2.84,1.63-.58,2.72-1.13,4.31-1.2,1.2-.06,1.42,2.32,2.31,2.81,3.97-3.34,8.45,2.49,11.76-2.63,1.42,2.13,1.53,3.93.49,5.89l5.93-3.59c.25,1.62-.86,2.12-.95,3.14.1-1.16,7.63,5.23,9.21,2.63l4.09-6.71c2.09.19,1.68,3.59,3.14,5.07l7.95,8.07c1.08,1.09.39,3.85,2.32,3.59Z"/>
      <path class="cls-9" d="M763.47,513.92c-1.26,2.57-3.8,3.29-6.32,4.3-2.96,1.19-6.87.6-9.98,2.19-3.78,1.93-7.14,1.91-11.01,2.42-3.34.44-6.16,1.43-9.31,1.27l-.36-3.85c-1.78-.14-3.1.75-5.29.27.1-9.73-5.59-7.77-10.49-17.61.12-.51-.09-1.33.08-1.79.46-1.31,2.19-4.33,3.75-3.63,3.8,1.71,6.53,4.65,9.54,7.61,21.1-2.45,14.13,3.77,17.9,4.55,4.53.94,8.85-.11,13.02,2.46,1.73,1.07,3.1-2.41,4.19-2.63,2.42-.5,3.33,2.9,4.29,4.44Z"/>
      <path class="cls-1" d="M710.71,502.91c.77,1.01-.49,1.72-.93,2.3-.86.03-1.16-.75-.75-1.43.33-.55.99-.79,1.69-.86Z"/>
      <path class="cls-1" d="M685.15,511.96c3.26.61,4.95,3.64,5.9,7.37,1.58,1.38.51,2.01-1.66.89.18,2.28-2.47,3.93-2.64,5.55-.57,5.18,1.14,10.26,5.24,12.41.94,1.39.11,4.54-1.62,5.8-6.9,5.04-4.13-12.3-8.1-11.06-2.17.68-2.68-2.35-1.63-3.25.47-.41-2.33.68.42-.5-5.29,2.17-4.94-3.56-6.21-5.81s-3.81-.59-6.1-.46c1.62-2.04,3.11-3.58,1.96-6.02,1.16-.11,2.09.47,2.71.14,1.1-.59,1.19-2.39,1.99-4.35l5.65,4.79c1.29-2.29,2.58-4.08,4.09-5.51Z"/>
      <path class="cls-7" d="M760.76,484.19c1.44,1.36,2.31,2.98,2.12,4.95-2.99.12-5.52-1.51-7.26-3.79.99-.19,2.06-.25,2.44-1.23.9-.04,1.8-.02,2.69.07Z"/>
      <path class="cls-7" d="M732.84,471.16c-.08.2-.09.67-.02.87.22.6.84,2.08,1.92,1.9,1.38-.23,2-1.73,3.12-1.77l-.25,2.87c-.15,1.71.44,3.41,2.54,4.09l6.91,2.24c.53-1.32-.39-2.33-.14-3.45,2.59-.03.87-4.69,3.85-5.74.57,2.07,1.74,2.8,4.01,2.43-4.49,6.34,3.85,3.57,3.13,8.52-.67,0-1.78-.23-2.08.54-.2.51.13,1.2-.2,1.71-.71-.93-2.44-1.29-2.22-3.2-1.43,2.73-3.47,1.69-5.92,2.91.81,1.17,3.4,1.57,2.07,2.8-1.74,1.6-2.71-2.44-3.88-2.68-3.28-.68-6.79-.27-10.36-.56-1.37-8.83-11.53-1.07-10.52-11.3.9-3.75,4.86.12,8.05-2.17Z"/>
      <path class="cls-2" d="M745.82,475.15c-.14.82.27,1.6.98,2.01,0,.24.17.51.12.74-.24,1.12.68,2.13.14,3.45l-6.91-2.24c-2.1-.68-2.69-2.38-2.54-4.09,2.86-.11,5.72,1.9,8.22.12Z"/>
      <path class="cls-2" d="M737.86,472.15c-1.12.04-1.74,1.54-3.12,1.77-1.08.18-1.7-1.3-1.92-1.9,1.32-1.23.66-3.11,2.49-2.83,2.32.35,2.74.84,2.55,2.96Z"/>
      <path class="cls-14" d="M757.37,469.05c0,1.9-9.81-10.79-7.48-10.08,2.32,2.31,4.06,5.05,7.11,7.14.92.63.35,2.29.37,2.94Z"/>
      <path class="cls-7" d="M746.81,477.16c-.72-.41-1.13-1.19-.98-2.01.32-1.34-1.06-3.48,1.39-4.46,1.51,2.52-.69,4.33-.4,6.46Z"/>
      <path class="cls-16" d="M757.91,483.11c-.05.32.17.68.15,1.01-.38.99-1.45,1.04-2.44,1.23.33-.51,0-1.2.2-1.71.3-.77,1.41-.54,2.08-.54Z"/>
      <path class="cls-16" d="M694.01,449.51c-.54.98-1.91,3.98-.24,4.26,1.9.31,3.74-1.33,4.89.03,2.69,3.17-1.23,2.24,1.41,9.61.48,1.33,2.99-.02,4.33,1.05s10.26,10.64,10.02,6.05c1.12,1.28,2.56,3.66,4.49,3.73,1.81-.62,3.91-1.23,5.88-.91-1.01,10.23,9.15,2.47,10.52,11.3,3.57.29,7.08-.12,10.36.56,1.16.24,2.14,4.27,3.88,2.68,1.33-1.22-1.26-1.62-2.07-2.8,2.45-1.22,4.49-.18,5.92-2.91-.22,1.9,1.51,2.26,2.22,3.2,1.74,2.28,4.27,3.91,7.26,3.79l1.26,3.08c2.03,4.98,1.95,11.28,2.43,17.01-1.93.26-1.24-2.5-2.32-3.59l-7.95-8.07c-1.46-1.48-1.05-4.88-3.14-5.07l-4.09,6.71c-1.59,2.6-9.11-3.78-9.21-2.63.09-1.02,1.2-1.52.95-3.14l-5.93,3.59c1.04-1.96.93-3.77-.49-5.89-3.32,5.12-7.79-.7-11.76,2.63-.89-.49-1.11-2.86-2.31-2.81-1.59.08-2.68.62-4.31,1.2-.08-1.17.51-2.04.18-2.84-.16-.38-.76-.59-1.1-.91-1.2-2.59-.5-5.67-1-8.48-.8-1.68-3.89-.21-5.35-.36-.6-9.09-1.01-2.44-3.39-10.26-4.51,8.06-15.39-10.49-16.4-13.18-.76-2.01.64-4.69-1.01-6.06,1.6-1.51,4.01-1.06,6.08-.61ZM710.87,473.65c0-.28-.22-.5-.5-.5s-.5.22-.5.5.22.5.5.5.5-.22.5-.5ZM719.31,487.2c.98-1.28.78-3.6.25-4.77-.35-.76-2.96-.6-2.76.72.15.98,1.9,1.24,1.68,2.31-.11.53-1.26,1.83.84,1.73ZM745.82,487.64c0-.28-.22-.5-.5-.5s-.5.22-.5.5.22.5.5.5.5-.22.5-.5Z"/>
      <circle class="cls-7" cx="723.35" cy="469.66" r=".5"/>
      <path class="cls-10" d="M825.76,483.14c.78,1.73-1.38,2.13-1.79,3.08-1.34-.4-1.15-1.8-1.07-2.93l2.85-.15Z"/>
      <path class="cls-4" d="M825.76,483.14l-2.85.15c.05-.67-.14-1.48-.18-2.15.71-.05,1.49-.11,2.39.05,1.03.19.35,1.29.65,1.94Z"/>
      <path class="cls-11" d="M790.98,498.1c-2.31.58-4.78,5.03-8.13,3.23-1.67-.9-2.21-.96-3.11.44-1.02,1.59-1.31,2.83-1.13,4.29-.38.25-.51.77-.84,1.06-1.99-.52-3.59.2-4.97,2.08-1.3,1.78-3.68,2.03-5.27,2.91-.17-.97-.9-1.89-.98-2.88-.47-5.74-.4-12.03-2.43-17.01,2.78-.86,4.13,3.23,6.59,3.62s5.02-1.41,6.28,2.11c.2.55,1.63.68,2.13.64.65-.05,1.71-.91,1.98-1.86,1.05-3.67,2.76-4.62,5.72-4.04,3.22.63,4.58,2.11,4.15,5.41Z"/>
      <path class="cls-10" d="M782.86,501.33c.18,1.68-.27,3.33-1.08,4.79-1.05.1-2.11.03-3.16-.06-.18-1.46.11-2.71,1.13-4.29.9-1.4,1.44-1.34,3.11-.44Z"/>
      <path class="cls-13" d="M777.78,507.12c-3.44,3.08-7.77,5.17-11.98,6.99.32-.89.94-1.54,1.75-2,1.58-.89,3.97-1.14,5.27-2.91,1.38-1.88,2.97-2.6,4.97-2.08Z"/>
      <path class="cls-8" d="M719.31,487.2c-2.09.1-.95-1.2-.84-1.73.22-1.07-1.53-1.32-1.68-2.31-.2-1.33,2.41-1.49,2.76-.72.54,1.17.73,3.49-.25,4.77Z"/>
      <circle class="cls-7" cx="745.32" cy="487.64" r=".5"/>
      <circle class="cls-7" cx="710.37" cy="473.65" r=".5"/>
    </g>
    <g>
      <g>
        <path class="cls-5" d="M1013.47,499.13l.22-1.35c4.78-.84,2.6-29.7,11.62-22.91l-5.81,26.14c-1.11,4.98-2.71,9.89-3.49,14.85-.34,1.99-7.05,2.12-7.82.22l-4.85-26.91c-.3-1.64.22-2.71-1.09-3.25-.87-.36-1.34-.69-3.41-.71-.91,10.6-3.66,21.09-5.96,31.75-2.94.21-4.79.55-7.32-.17l-5.1-23.85-4.27-18.64c2.61-.57,3.88-.16,6.37.1.82,8.03,3.42,15.52,3.85,23.7.15,2.87,1.78,6.53,4.83,5.85l5.61-20.44c.57-2.07,1.56-3.17,1.12-5.34-.64-3.12,1.7-4.44,3.98-4.26,2.59.2,3.12,1.92,3.56,4.55l3.39,20.26c.56,3.35,1.21,5.78,4.19,8.34,1.2-2.42,1.41-5.29.36-7.93Z"/>
        <path class="cls-13" d="M1013.47,499.13c1.04,2.64.84,5.51-.36,7.93-2.98-2.57-3.63-4.99-4.19-8.34l-3.39-20.26c-.44-2.63-.97-4.35-3.56-4.55-2.27-.17-4.61,1.15-3.98,4.26.44,2.17-.55,3.27-1.12,5.34l-5.61,20.44c-3.06.68-4.68-2.97-4.83-5.85-.43-8.19-3.02-15.68-3.85-23.7-2.48-.27-3.75-.68-6.37-.1l4.27,18.64,5.1,23.85c2.53.72,4.37.37,7.32.17,2.3-10.66,5.05-21.15,5.96-31.75,2.07.02,2.54.35,3.41.71,1.31.54.8,1.61,1.09,3.25l4.85,26.91c.77,1.9,7.48,1.78,7.82-.22.77-4.96,2.38-9.87,3.49-14.85l5.81-26.14c-9.02-6.8-6.84,22.07-11.62,22.91,1.32-8.01,2.81-16.12,4.72-24.48,3.58-.07,6.24-.32,9.03.2l-8.37,37.19c-.64,2.84-2.19,5.12-1.61,8.41l-10.82-.02c-.42-8.07-2.51-15.26-4.04-23.04-.45-2.31.21-4.65-1.74-6.89l-6.54,29.83c-3.47.41-6.28.06-10.28.13l-9.9-46.96c3.45.9,6.22,1.55,9.85.87l5.78,29.83,7.01-30.51c2.96-.29,6.02-.36,9.05.35,1.3,5.01,5.05,22.59,4.66,26.42-.1,1.03,1.42,2.4,1.96,1.6.36-.52.87-.96.99-1.58Z"/>
      </g>
      <path class="cls-13" d="M1160.28,473.15c-.28,1.77.82,4.75-1.04,5.9-2.86.7-14.95-1.06-14.94,1.09l.03,11.95,12.84.06c.25,2.46.26,4.49,0,6.93-4.3.32-8.09-.51-12.51.43-.56,4.44-.61,8.68-.07,12.54,6.34.28,11.15.2,16.57-1.22.19,3.18.18,5.36.02,8.3l-26.61-.11c-.39-.45-.16-1.55-.16-1.92.37.1.89-.4.89-1.08v-40.81c0-.71-.62-1.19-.99-1.07v-1h25.97ZM1156.21,494.89c-5.01-3.11-8.81.09-13.48-1.38-.86-4.82-.43-9.97-.21-15.43,5.49-2.11,13.15.81,15.91-1.31,5.59-4.3-20.45-2.04-22.12-2.62l.09,43.18,22.44-.65c.96-.18-.06-3.62-1.51-3.62l-14.96.04c.09-5.22-.82-10.34.97-15.38,4.11-1.32,8.56.16,12.87-2.82Z"/>
      <g>
        <path class="cls-15" d="M1189.24,511.12c-.18-.71.6-2.93-.88-2.94l-7.11-.05c2.02-2.15,5.02-.08,8.06-1.54-3.71-.98-7.67-.28-11.85-.25l-3.05,9.97c-.41,1.36-3.39,1.22-5.4.45l10.59-42.4c3.06-.42,5.96-.5,9.34.29.14,4.96,1.54,9.24,2.79,13.91l7.49,27.89c-1.56.66-4.74,1.53-6.17,0-1.74-1.87-1.02-4.85-2.17-7.35-.85.57-.81,1.69-1.64,2.03ZM1187.84,500.7l-3.83-15.03c-1.55,5.47-3.27,9.82-3.95,15.32,2.74.12,4.58.6,7.78-.29Z"/>
        <path class="cls-13" d="M1189.24,511.12c.83-.35.78-1.46,1.64-2.03,1.15,2.49.43,5.47,2.17,7.35,1.43,1.54,4.61.67,6.17,0l-7.49-27.89c-1.25-4.67-2.65-8.95-2.79-13.91-3.39-.79-6.29-.71-9.34-.29l-10.59,42.4c2.01.77,4.99.91,5.4-.45l3.05-9.97c4.18-.03,8.15-.72,11.85.25-3.04,1.46-6.04-.61-8.06,1.54-4.27-1.39-4.28,7.36-5.09,10.81-3.36.39-6.43.39-9.72-.18l11.89-46.44c3.83-.31,7.05-.33,10.63-.02l10.08,37.94c.84,3.17,2.23,5.61,3.45,8.76l-11.1.04c-.2-2.98-1.11-5.84-2.15-7.91Z"/>
      </g>
      <path class="cls-3" d="M1134.42,517.11l-.1-42.96c.37-.12.99.36.99,1.07v40.81c0,.68-.53,1.18-.89,1.08Z"/>
      <path class="cls-3" d="M1160.28,473.15h-25.97c-.07-.77.92-1.02,1.95-1.02h22.06c1.04,0,2.03.26,1.95,1.02Z"/>
      <path class="cls-14" d="M1159.25,479.05c-4.39,2.72-10.03.28-14.94,1.09,0-2.15,12.08-.39,14.94-1.09Z"/>
      <g>
        <path class="cls-15" d="M1046.43,477.15c.12.25.02.71,0,1-.23,3.69,4.2,8.94,5.72,14.34.49.86,1.47.6,1.27-.35,1.01,2.11,2.7,5.23,3.99,6.99.28.29,1.6.12,1.95-.47.15-.25-.66-.47-.95-.53v-5c.43.11.93-.35.94-1.04l.18-17.61c2.47-.59,4.46-.52,6.89-.14l-.05,42.59c-2.36.38-6.6,1.24-8.27-.43-1.75-2.48-9.98-21.07-10.39-21.21-.75-.27-1.54-.26-2.29-.16v-1c.42-.3,1.18-1.02.98-1.46-.31-.7-1.15-1-1.68-.67.04-.29-.11-.61-.09-.9.85-.63.54-1.37.25-1.94-.46-.91-.65-2.88-1.72-1.55-.58.72-1.66,1.54-1.66,2.74l-.05,26.49c-1.75,1.04-4.07.4-6.01-.02l.03-42.32c10.82-2.4,6.45,2.67,10.95,2.65Z"/>
        <path class="cls-13" d="M1045.43,495.13c.74-.09,1.54-.1,2.29.16.41.14,8.64,18.74,10.39,21.21,1.67,1.67,5.91.81,8.27.43l.05-42.59c-2.44-.39-4.42-.45-6.89.14l-.18,17.61c0,.69-.51,1.16-.94,1.04l.03-16.98c0-1-.38-1.72-.91-2.01,0-.49-.27-.97.11-2.1,3.11,1.49,6.15,1.09,9.76,1.08v45.88c-3.51.25-6.34.16-10.04.01l-8.49-17.29c-1.2-2.44-1.89-4.75-3.46-6.6Z"/>
        <path class="cls-13" d="M1046.43,477.15c-4.5.03-.13-5.05-10.95-2.65l-.03,42.32c1.94.42,4.26,1.06,6.01.02l.05-26.49c0-1.2,1.08-2.02,1.66-2.74,1.07-1.33,1.26.63,1.72,1.55.29.57.6,1.31-.25,1.94-1.7.14-.71,2.29-1.21,3.03-1.34,1.96-1.98,5.27,0,6.99v2c-1.68,1.24-1.68,4.75,0,5.99,0,3.11.25,6.18-.22,9.72-2.98.43-5.72.46-8.73.12l-.39-46.56c4.02-.22,6.8-.34,10.01-.07l2.33,4.82Z"/>
        <path class="cls-13" d="M1053.42,492.13c.2.95-.78,1.21-1.27.35-1.52-5.4-5.95-10.64-5.72-14.34,1.63-1.1,7.04,14.09,6.99,13.99Z"/>
        <path class="cls-2" d="M1058.41,493.13v4c-.75.08-1.04-.92-1.04-1.95l.16-21.03c.53.29.91,1.01.91,2.01l-.03,16.98Z"/>
        <path class="cls-15" d="M1043.43,501.13c-1.98-1.72-1.34-5.03,0-6.99v6.99Z"/>
        <path class="cls-15" d="M1043.43,509.12c-1.68-1.24-1.68-4.75,0-5.99v5.99Z"/>
        <path class="cls-13" d="M1045.43,494.13c-.6.08-.79-.33-.81-.64-.04-.58.07-1.15.12-1.49.53-.33,1.36-.03,1.68.67.2.44-.56,1.16-.98,1.46Z"/>
        <path class="cls-13" d="M1057.42,499.13c.3-.37.63-.7,1-1,.29.06,1.1.28.95.53-.35.59-1.67.76-1.95.47Z"/>
      </g>
      <g>
        <path class="cls-15" d="M875.65,495.13c.33.32.88.85,1,1,3.95,3.39,7.31,11.57,2.56,17.27-2.7,3.25-7.05,3.95-11.53,3.87l-15.33-.24c.47-14.48.47-28.24.02-42.91,7.66.46,21.18-1.39,25.62,2.24-.13-.11,5,11.74-2.06,16.09-.76.47-1.41,1.17-1.29,1.9.05.32.79.55,1.01.78ZM859.67,492.13h5.91c4.17-.01,5.86-3.23,6.22-6.56.41-3.87-2.8-6.39-7.06-6.06-1.86.15-3.48.21-5.07-.37-.14-.07-.71.02-.92.36.36,4.46-1.28,9.19.92,12.62ZM860.67,498.13h-1c-.77-.07-1.02.91-1.02,1.94l.04,13.03c1.96-.26,15.79,1.16,11.97-1.98.47-2.1,3.25-4.25,2.81-6.87-.83-4.94-6.69-6.11-10.8-6.11.18-.79-.62-1.3-1.47-1-.33.12-.67.48-.53,1Z"/>
        <path class="cls-13" d="M853.61,472.23c-1.62,1.46,12.42.84,14.06.92,2.79.14,6.25-.73,9.06.96,3.94,2.36,4.93,7.05,4.76,11.68-.13,3.62-2.43,6.74-5.83,9.34-.23-.23-.96-.46-1.01-.78-.12-.73.54-1.43,1.29-1.9,7.06-4.36,1.93-16.2,2.06-16.09-4.44-3.63-17.96-1.78-25.62-2.24.45,14.68.45,28.43-.02,42.91l15.33.24c4.48.07,8.83-.63,11.53-3.87,4.74-5.71,1.38-13.88-2.56-17.27,6.39,1.33,8.37,10.81,4.82,17.3-4.25,7.77-22.36,5.26-30.81,5.67l.13-45.93c0-1.23,2.11-.94,2.81-.94Z"/>
        <path class="cls-3" d="M867.66,473.15c-1.64-.08-15.68.54-14.06-.92l11.88-.09c1.43-.01,2.23.22,2.17,1.01Z"/>
        <path class="cls-13" d="M870.66,511.12c3.82,3.14-10.01,1.72-11.97,1.98l-.04-13.03c0-1.03.25-2.01,1.02-1.94.21,4.3-.46,8.82.36,13.45,3.84,1.51,7.24-.13,10.63-.47Z"/>
        <path class="cls-13" d="M859.67,492.13c-2.2-3.43-.56-8.16-.92-12.62.2-.34.77-.43.92-.36v12.99Z"/>
        <path class="cls-13" d="M862.67,498.13h-2c-.14-.52.2-.89.53-1,.85-.3,1.65.21,1.47,1Z"/>
      </g>
      <g>
        <path class="cls-15" d="M1121.33,493.13l-2.25,1.88c3.66,1.11,3.79,4.39,5.25,6.12-.1,4.1.24,9.61-2.89,13.02-4.24,4.63-18.75,2.64-26.13,3.01l.06-43c17.38,1.16,22.78-4.29,27.75,8.56,1.48,3.83-1.14,6.59-1.79,10.42ZM1114.2,491.58c4.44-3.61,3.04-10.43-1.49-12.47-3.2-1.44-6.6-.78-10.37-.8-1.02,4.53-2.63,11.17.94,14.94,2.26,2.39,8.35.41,10.92-1.68ZM1104.36,512.12c3.08,1.91,8.77,1.85,11.76-1.33,2.04-2.17,2.07-7.21.23-8.66-2.99-2.34-8.03-5.11-13-3.79.68,4.69-1.36,9.81,1.02,13.78Z"/>
        <path class="cls-13" d="M1116.34,473.15c5.94.01,8.31,7.57,8.18,12.82-.09,3.59-.54,5.63-3.19,7.16.64-3.83,3.27-6.59,1.79-10.42-4.97-12.85-10.37-7.4-27.75-8.56l-.06,43c7.38-.37,21.89,1.62,26.13-3.01,3.13-3.41,2.79-8.92,2.89-13.02,2.47,2.92,2,6.82.61,10.42-4.33,11.15-21.47,6.55-31.31,7.68-.43-1.02-.33-1.7-.25-2.11,2.51-14.2.03-28.76,1.2-44l21.77.04Z"/>
        <path class="cls-8" d="M1116.34,473.15l-21.77-.04c-1.16,15.24,1.31,29.8-1.2,44v-44.94s21.03-.05,21.03-.05c1.02,0,2.02.27,1.94,1.03Z"/>
        <path class="cls-13" d="M1114.2,491.58c-2.56,2.09-8.65,4.07-10.92,1.68-3.57-3.77-1.97-10.41-.94-14.94,3.77.02,7.16-.64,10.37.8,4.54,2.04,5.93,8.85,1.49,12.47ZM1113.43,489.56c3.04-2.71,1.37-8.24-2.08-9.21-2.74-.77-5.22-.02-7.97-.17l.02,11.87c3.45.29,7.01.2,10.03-2.5Z"/>
        <path class="cls-13" d="M1104.36,512.12c3.02-.94,6.94-.31,9.98-2.02,2.81-1.57,1.86-5.6,2-7.97,1.84,1.45,1.82,6.49-.23,8.66-2.99,3.18-8.68,3.24-11.76,1.33Z"/>
      </g>
      <path class="cls-15" d="M1156.21,494.89c-4.31,2.98-8.76,1.5-12.87,2.82-1.79,5.04-.88,10.16-.97,15.38l14.96-.04c1.45,0,2.47,3.44,1.51,3.62l-22.44.65-.09-43.18c1.67.58,27.71-1.68,22.12,2.62-2.76,2.12-10.42-.8-15.91,1.31-.22,5.46-.65,10.61.21,15.43,4.67,1.47,8.48-1.72,13.48,1.38Z"/>
      <g>
        <path class="cls-5" d="M944.48,517.83c-.51.31-1.37,0-1.91.28.85-2.49-2.6-3.48-3.33-5.38-2.79-7.23-1.14-14.99-1.79-22.53-.42-4.81-.5-9.05,2.72-12.62,2.71-3.01,6.57-4.56,11.45-4.56,5.73,0,11.69,2.31,12.76,8.53,1.54,8.95,1.38,18.31-.12,27.14-2.31,13.67-16.93,7.43-19.77,9.16ZM947.56,479.15c-.34.74-.82,1.45-2.16,2.19-1.2.66-2.55,1.96-2.57,3.86l-.27,19.99c-.05,3.87,2.54,8.07,7,7.93.13,0,.46-.03,1,0,.77.84,2.2,1.59,3.72.65,2.53-1.57,4.85-4.39,5.01-7.65.27-5.73,1.82-26.49-3.79-28.33-2.37-.78-6.19-.84-7.93,1.37Z"/>
        <path class="cls-13" d="M944.48,517.83c2.84-1.73,17.46,4.51,19.77-9.16,1.49-8.84,1.66-18.19.12-27.14-1.07-6.22-7.02-8.53-12.76-8.53-4.88,0-8.75,1.55-11.45,4.56-3.21,3.57-3.13,7.81-2.72,12.62.65,7.54-1,15.3,1.79,22.53.73,1.9,4.18,2.89,3.33,5.38-3.04-2.07-6.63-5.62-6.81-10-.33-8.04-.34-15.97-.07-23.97s8.17-12.99,15.81-12.16c4.4.48,9.54-.1,12.12,4.03,4.53,7.27,4.17,15.98,3.58,24.11-.45,6.23-1.2,14.84-7.8,17.87-4.93,2.27-11.02,3.78-14.92-.16Z"/>
        <path class="cls-13" d="M950.56,513.11c3.91-.87,7.35-3.8,6.99-7.99,1.74-1.48,1.4-16.68,0-19.98-.78-1.84-.75-4.59-3.4-5.65-2.17-.86-4.59-.21-6.59-.35,1.74-2.21,5.56-2.15,7.93-1.37,5.62,1.85,4.07,22.6,3.79,28.33-.16,3.27-2.48,6.08-5.01,7.65-1.51.94-2.95.19-3.72-.65Z"/>
        <path class="cls-13" d="M949.56,513.11c-4.46.14-7.05-4.07-7-7.93l.27-19.99c.03-1.89,1.37-3.19,2.57-3.86-1.6,6.26-.45,12.91-.93,19.78-.37,5.29.61,9.51,5.09,12Z"/>
        <path class="cls-5" d="M957.55,505.12v-19.98c1.4,3.3,1.74,18.5,0,19.98Z"/>
      </g>
      <g>
        <path class="cls-13" d="M1237.18,509.12c-2.19-1.96-5.37-6.38-5.15-9.64,1.11-3.23,6.58-4.32,6.93-8.74.32-4.01-.43-11-2.94-14.16-7.92-3.41-16.31-2.36-24.99-2.24l.12,41.91c0,1.56,5.86,1.66,5.91.1l.49-16.19c.05-1.77,2.17-1.83,3.09-1.9,1.62-.13,3.12.79,4.19,2.22,7.62,10.16,4.83,19.6,14.31,16.13-.98-2.65-1.67-4.18-1.96-7.49l5.26,9.86-10.52.23c-2.03-3.11-7.57-21.79-12.66-19.08l-.23,18.69c-3.33.48-6.27.54-9.75-.04l.07-46.44c12.3,3.46,29.08-5.38,31.29,11.69.86,6.66-1.33,12.67-7.83,15.97,2.09,3.34,3.75,6.02,4.38,9.12Z"/>
        <path class="cls-5" d="M1237.18,509.12c.29,3.31.98,4.84,1.96,7.49-9.49,3.47-6.69-5.96-14.31-16.13-1.08-1.44-2.57-2.36-4.19-2.22-.92.07-3.04.14-3.09,1.9l-.49,16.19c-.05,1.55-5.9,1.46-5.91-.1l-.12-41.91c8.68-.12,17.07-1.17,24.99,2.24,2.51,3.16,3.26,10.15,2.94,14.16-.35,4.41-5.83,5.5-6.93,8.74-.22,3.26,2.97,7.68,5.15,9.64ZM1220.2,494.13c1.81,2.9,5.59,1.24,8.08.29,4.86-1.86,5.03-14.27,1.91-10.28-1.02-6.8-6.83-2.23-10.96-4.99.19,5.36-.52,9.94.98,14.98Z"/>
        <path class="cls-13" d="M1220.2,494.13c2.79.12,5.83.31,8.42-1.89,1.91-1.62,2.52-5.29,1.56-8.1,3.12-3.99,2.95,8.42-1.91,10.28-2.49.95-6.27,2.61-8.08-.29Z"/>
      </g>
      <g>
        <path class="cls-13" d="M922.45,511.17c-1.83-.43-6.13-10.72-5.97-12.44.24-2.56,10.46-7.37,4.14-19.87-1.26-2.5-5.02-4.59-7.99-4.6l-17.61-.09c-2.29,5.19.38,10.14-.31,15l-1.13,7.89c.98-6.86-.47,18.4,2.01,19.64,8.94,4.47,2.94-10.07,5.82-16.98,1.34-3.2,6.84-1.36,8.33,1.52,4.38,8.45,5.39,19.01,13.74,15.39.11-1.66-.69-2.76-1.04-5.45.75,2.69,4.28,4.57,3.8,7.94l-10.3-.17c-2.7-3.89-6.85-17.83-9.31-18.46-1.02-.26-3.97-1.06-3.99.37l-.25,17.99c-3.31.44-6.32.41-9.78.12v-45.81c6.57.7,12.36-.25,17.99-1,4.99-.67,11.25,4.55,12.39,8.08,1.23,3.86,1,8.15.07,11.42s-4.29,4.39-5.57,7.46c2.51,3.96,3.85,8.09,4.95,12.06Z"/>
        <path class="cls-8" d="M910.61,472.15c-5.63.75-11.42,1.69-17.98,1-.07-.78.91-1.02,1.94-1.02l16.03.02Z"/>
        <path class="cls-15" d="M922.45,511.17c.35,2.7,1.15,3.8,1.04,5.45-8.35,3.63-9.36-6.94-13.74-15.39-1.49-2.88-6.99-4.72-8.33-1.52-2.89,6.91,3.12,21.46-5.82,16.98-2.48-1.24-1.03-26.5-2.01-19.64l1.13-7.89c.69-4.86-1.97-9.81.31-15l17.61.09c2.97.02,6.72,2.11,7.99,4.6,6.33,12.5-3.9,17.3-4.14,19.87-.16,1.72,4.14,12.01,5.97,12.44ZM901.62,493.13c3.59,2.42,11.96.58,12.78-4.8.46-2.97-.68-6.98-4.02-7.85-3.07-.8-5.87-.25-8.48-.05-.19-.42-.27-1.27-1.26-1.27l-.05,12.03c0,1.03.24,2.01,1.02,1.94Z"/>
        <path class="cls-13" d="M901.91,480.44c-.5,4.21-.23,8.46-.29,12.7-.78.08-1.02-.91-1.02-1.94l.05-12.03c.99,0,1.07.85,1.26,1.27Z"/>
      </g>
    </g>
  </g>
</svg>