<?xml version="1.0" encoding="UTF-8"?>
<svg id="Layer_1" data-name="Layer 1" xmlns="http://www.w3.org/2000/svg" viewBox="0 0 170.06 107.34">
  <defs>
    <style>
      .cls-1 {
        fill: #31180f;
      }

      .cls-2 {
        fill: #4c2413;
      }

      .cls-3 {
        fill: #582814;
      }

      .cls-4 {
        fill: #833f1d;
      }

      .cls-5 {
        fill: #a95726;
      }

      .cls-6 {
        fill: #682f15;
      }
    </style>
  </defs>
  <path class="cls-5" d="M120.03,7.7c.42,3.77-3.94,4.01-6.43,5.93-2.21,1.71-3.32,2.6-6.29,2.28-1.68.14-3.36,4.37-5.87,3.69-1.41-.65-1.84.92-.55,1.45.18,3.59,2.71,6.73,3.18,10.22.39,2.93.05,6.04,1.13,8.96.11.3-.26.77-.23,1.1l-.27,1.94c-1.6-2.56-4.56-3.26-6.77-5.22.84-.86,1.89-1.36,1.74-2.14-.06-.33-.46-.8-.79-.42-.77,1.19-1.1,2.68-2.09,1.81-.29-.25-.55-1.3-1-2.24l-6.78,2.67c2.25-.89-7.23,1.07-7.72-4.32-6.7,5.49-6.36-4.35-13.88-.01-.06-2.77,1.09-6.56-1.24-7.88-2.14-1.21-4.55,1.46-6.75.75-3.62-7.81-12.33-2.52-10.61-10.77-.94.61-1.17,1.09-1.48,1.31-.67.48-.65-.09-.82-.34-.39-.57-.16-1.04.25-1.67,1.98-3.09-5.65-2.07-.66-5.12-4.24-.43-6.32-4.51-6.97-8.38,4.82-2.3,15,.82,20.16,3.72,8.67,4.87,22.15,0,28.72,3.67,6.08-.3,12.45-.93,18.89-.06,4.65.63,9.42,1.79,13.13-.91ZM102.57,17.07c.88.32.78-1.46.14-1.74-.35-.15-.81-1.15-1.13-.91-1.63,1.2,7.07,4.87.98,2.65Z"/>
  <path class="cls-1" d="M99.46,70.37c.09.74-.3,1.57-.16,2.3.72,3.88,2.03,7.57,2.02,11.55-.64.15-2.1.38-2.17-.86-.14-2.53.59-4.41.27-7.14-2.93-1.25-6.32-1.88-9.12-.45,2.39,8.59,6.09,15.81,10.28,23.15.59,1.04,3.81.09,3.5,1.88l-.74,4.19c4.41-.31,24.63,3.19,22.92-3.49,1.65,1.81,4.64,2.01,6.29,5.39l-29.99.35-15.55-30.74c-1.96-1.55-5.3,1.1-6.88.77-2.64-.56-6.63.65-9,1-4.41.65-8.92.44-13.9,1.18l-9.18,1.36c9.88,2.03,13.87-1.54,23.09-1.54h9c-.95,3.12-2.27,6.38-2.91,10.06-.5,2.87.59,5.79-1.09,7.93-.02.64.27,1.86-.98,2,0-2.95.57-5.44-1.94-7.48-1.38,1.9-4.19,2.99-4.57,4.78-.31,2.11.5,3.69-.48,5.24-1.53,2.42-3.07,2.29-6.16,2.8,2.1,1.94,4.63-.16,7.13.55,5.78,1.64,11.14,1.41,17,.1.2.49.2,2.01-.98,2.01l-24.74-.06c-3.55-5.25-13.26-22.83-14.28-26.95s5.88-14.01,5.71-21.98c.23-.98,1.41-1.83,1.15-3.12,4.02,7.86,11.22,7.3,10.44,17.57l5.28-.27c.21,1.54.2,3.28,1.04,3.63.48.2,15.29-1.94,15.33-1.95,5.01-1.18,9.54-3.17,14.36-3.79Z"/>
  <path class="cls-4" d="M37.14.91c.62-.12,1.37.42,2,.37.65,3.87,2.73,7.96,6.97,8.38-4.99,3.05,2.64,2.03.66,5.12-.4.63-.64,1.1-.25,1.67.18.25.16.82.82.34.31-.22.54-.7,1.48-1.31-1.72,8.26,6.99,2.97,10.61,10.77,2.19.71,4.6-1.96,6.75-.75,2.33,1.32,1.19,5.11,1.24,7.88,7.52-4.33,7.18,5.5,13.88.01.49,5.39,9.97,3.44,7.72,4.32l6.78-2.67c.44.93.71,1.99,1,2.24.99.87,1.32-.62,2.09-1.81.33-.37.73.09.79.42.15.78-.9,1.28-1.74,2.14,2.21,1.97,5.16,2.66,6.77,5.22l.27-1.94,1.99,3.16c-1.11,6.14,1.88,10.9,1.99,16.91-1.64.42-1.46-1.58-2.33-2.84-5.99-8.72-9.65-5.77-10.16-10.84-.08-.82-2.54-.22-2.44.04l.95,2.57c.64,1.73-8.17,1.17-11-1.2-4.81-4.04-7.16,3.37-12.2,2.22.81.18-8.92-7.04-8.62-8.29-2,.07-2.99,1.85-4.85.7.39-1.76,1.96-1.77,1.98-3.39-8.19-2.28.1-5.73-9.56-8.78.32-7.88-.54-2.17-3.01-10.19-1.48,2.1-3.75,2.28-6.37,1.4-.91-.3-3.66-5.51-5.34-5.45-.53.02-.74,1.57-1.08,2.1-5.26-1.24-1.89-17.73-6.29-10.18-1.08-1.22-1.8-2.65-2.66-4.02C28.06.04,32.61,1.82,37.14.91ZM88.14,39.78c0-.28-.22-.5-.5-.5s-.5.22-.5.5.22.5.5.5.5-.22.5-.5ZM96.14,44.78c0-.28-.22-.5-.5-.5s-.5.22-.5.5.22.5.5.5.5-.22.5-.5ZM83.14,45.78c0-.28-.22-.5-.5-.5s-.5.22-.5.5.22.5.5.5.5-.22.5-.5ZM78.14,46.78c0-.28-.22-.5-.5-.5s-.5.22-.5.5.22.5.5.5.5-.22.5-.5Z"/>
  <path class="cls-2" d="M125.6,59.28c.36,3.61.26,7.43-.46,11-.66.06-1.18-1.14-1.6-.9.09-.05-6.67,34.27-1.4,28.9,2,.36,2.94,1.92,4.13,3.22,1.71,6.68-18.51,3.18-22.92,3.49l.74-4.19c.31-1.79-2.9-.84-3.5-1.88-4.18-7.34-7.88-14.55-10.28-23.15,2.8-1.43,6.19-.8,9.12.45.32,2.73-.41,4.61-.27,7.14.07,1.24,1.52,1.01,2.17.86,2.69,2.65-.74,5.83,2.33,5.08-.94.23,5.72-11.97,2.66-17.94,1.68-5.42,5.93-2.41,13.25-8.72,1.94-1.67,3.61-3.37,6.04-3.37Z"/>
  <path class="cls-3" d="M8.36,43.5c-2.59-3.69.44-8.32.83-12.63l.95-10.58c.05-.59.31-1.2.3-1.79,2.6-1.91,5.21-4.22,6.74-7.08.21-.39.57-.9.97-1.09l4.04-2.04c.48.65,1.03,1.35,1.47,2.06.79,1.27-1.44,1.64-1.58,3.28.56,1.18,2.14-.24,2.69.06,2.11,1.14.61,4.32.79,5.68.26,1.93,4.93,1.32,5.95,7.96.24,1.55-1.67,2.72-.76,3.83,1.29,1.57,2.24,2.96,4.47,3.76-.32,1.78-1.9,1.52-3.35,2.21l-2.76,9.07c-.38,1.25-2.46,2.71-3.23,1.33-1.13-2.01-1.85-5.5-4.61-5.82-3.7,5.47-13.52-.12-12.91,1.81Z"/>
  <path class="cls-3" d="M162.14,30.28c2.38,3.85,4,1.32,7,5-.08.53-.44,1.51-.36,2.07-1.73.64-3.44,2.18-4.56,3.76-2.47.05-5.12.52-7.97.06-2.31-.37-2.18-3.46-3.3-4.39-4.53-3.77-9.6-1.9-14.28-.52-5.35,1.58-10.98,1.23-16.49,2.09-7.93,4.97-5.68-.98-16.97,1.88-1.07-2.92-.74-6.03-1.13-8.96,6.32,1.4,12.36,1.01,19.07.45,3.79-.32,7.87,1.54,9.66-4.18,2.53-8.06,16.01,1.69,18.43-2.9,3.63-6.88-16.11-8.44-15.09-11.36,8.55,3.47,14.52,1.2,18.9,11.31,1.18,2.71,5.64,3.33,7.1,5.69Z"/>
  <path class="cls-6" d="M136.14,13.28c-1.02,2.93,18.72,4.48,15.09,11.36-2.42,4.59-15.9-5.15-18.43,2.9-1.79,5.72-5.87,3.86-9.66,4.18-6.71.56-12.75.95-19.07-.45-.46-3.49-3-6.63-3.18-10.22,1.47,3.32,10.9.81,14.6.44,1.63-5.84,4.66-11.89,11.75-9.92.69-.66.4-1.6-.06-1.71-.53-.13-1.46-.48-2.21-.46-1.94.23-2.83-1.7-.84-2.12,4.38.79,7.96,4.36,12,6Z"/>
  <path class="cls-2" d="M22.18,84.26c1.33.63,2.59.91,4.47,1.49-1.25,1.64.66,3.58.46,4.93-.39,2.56-.71,3.59,1.24,5.11s3.72,1.22,5.6-.85c.65-.71,1.47-1.08,2.19-.66-.64,1.41-.77,2.53-1.07,4.03-.34,1.73.43,2.72,1.55,4.96.95-.98,2.2-1.59,3.51-1.9,1.47,1.18,3.7,1.73,4,3.91-7.18-.54-19.48,2.14-26.11-.14-1.26-.43-3.1.59-4-.03-2.05-1.41-1.19-3.44-1.89-5.37-2.4-6.58-5.71-13.46-5.26-20.23,1.2-.86,2.5-3.1,3.88-1.51.26.3-.55,1.45-.33,1.57.27.15.77.19.94.01.19-.2.45-.7.63-1.25.49-1.48,1.69-1.44,2.64-1.05,1.42.6-.3,2.17,3.39,6.52,1.11,1.3,2.54,1.79,4.15.45Z"/>
  <path class="cls-4" d="M51.85,58.3c.17,7.97-6.68,18.07-5.71,21.98-.64-.58-1.39-.74-2.13-.58-.9.2-1.22,1.29-1.87,1.58-7.01,3.08-1.37,8.01-9.22,8.57.51-1.89,1.83-2.8.81-3.5-2.93,1.84-3.91-.19-4.38-1.83-.66-2.3.44-3.54,1.85-5.16,1.72-1.98,2.92-2.96,6.35-2.35-2.03-3.99-4.73-6.34-5.88-10.25-.57-1.94-2.58-1.67-3.27-2.47-1.64-1.89-3.58-3.34-5.38-4.98s-2.77-4.98-4.9-6.32c-.46-1.02,1.14-.62,1.6-.39,10.3,9.14,19.8,1.99,19.87,8.68,1.03-1.14,2.23-4.21,4.56-3.62,1.91.49,2.35,3.77,4.94,3.71.86-2.05.03-3.95,1.22-5.84.3,1.07.32,2.51,1.53,2.76Z"/>
  <path class="cls-1" d="M8.36,43.5c.55.78.25,2.1,1.5,3.04,3,2.25,5.41,4.65,8.26,6.45,2.12,1.34,3.11,4.7,4.9,6.32l-7.3,1.33c-2.1.38-2.41-3.31-4.97-4.8-2.82,8.94-7.98,2.79-5.91,12.28-2.28-1.24-3.4-.68-1.99,1.18.4,4.04,1.35,8.16,4.02,10.22-.45,6.77,2.87,13.65,5.26,20.23.7,1.93-.16,3.96,1.89,5.37.9.62,2.74-.41,4,.03,6.64,2.28,18.93-.4,26.11.14,1.02-.05,1.28.75.9,2.06l-33.42-.25C7.58,93.44,3.36,80.78.16,67.28c-.82-3.47,1.78-7.47,2.3-10.74L7.7,23.85c.27-1.71,1.1-3.18,2.43-3.57l-.95,10.58c-.39,4.31-3.41,8.94-.83,12.63Z"/>
  <path class="cls-6" d="M42.14,81.28c-2.19,4.24-4.04,8.65-6,13-.71-.42-1.54-.05-2.19.66-1.88,2.07-3.59,2.42-5.6.85s-1.63-2.56-1.24-5.11c.2-1.35-1.7-3.28-.46-4.93-1.88-.58-3.13-.86-4.47-1.49-.07-1.26.89-1.77,2.07-3.34-4.37.14-5.92-2.14-7.17-5.68-.8-2.27-4.42-3.26-4.26-6.22,4.76-1.14,7.19,4.61,12.7,2.96.02-2.27-.49-3.98.55-6,1.59.66,1.45,2.11,2.95,2.36.34-1.93-.51-2.9-.61-4.06.69.8,2.7.53,3.27,2.47,1.15,3.91,3.84,6.26,5.88,10.25-3.44-.61-4.63.37-6.35,2.35-1.41,1.62-2.51,2.86-1.85,5.16.47,1.64,1.45,3.67,4.38,1.83,1.03.69-.29,1.61-.81,3.5,7.85-.55,2.21-5.48,9.22-8.57Z"/>
  <path class="cls-1" d="M168.77,37.35c.42,3.22-4.25,5.19-7.62,8.93-15.33,4.09-18.92,1.44-34.44,9.41l-.68,2.24c-6.46,1.53-11.63,6.14-17.84,8.52.86-1.55,1.3-3.32.76-5.05-.11-6.01-3.1-10.77-1.99-16.91,1.91-.12,2.04,2.44,3.38,3.46,1.8,1.36,4.73-.35,6.5.68,2.98,1.75,3.04,5.52,4.85,8.32.48.74,3.01.3,3.16-.49l.6-3.08c.17-.9,1.05-2.15,1.13-2.06l1.57,1.96c-.75-.93,18.8-7.11,26.76-7.31,4.05-.1,7.35-2.08,9.32-4.86,1.12-1.58,2.82-3.12,4.56-3.76Z"/>
  <path class="cls-2" d="M76.14,97.27l10,8.01c-5.86,1.31-11.21,1.54-17-.1-2.51-.71-5.03,1.38-7.13-.55,3.09-.51,4.63-.38,6.16-2.8.98-1.55.17-3.14.48-5.24.38-1.79,3.19-2.88,4.57-4.78,2.51,2.03,1.94,4.52,1.94,7.48,1.25-.14.96-1.36.98-2Z"/>
  <path class="cls-4" d="M124.14,7.28c-1.99.42-1.1,2.36.84,2.12.74-.02,1.68.34,2.21.46.46.11.75,1.04.06,1.71-7.09-1.97-10.12,4.08-11.75,9.92-3.7.37-13.13,2.88-14.6-.44-1.29-.53-.86-2.09.55-1.45,2.51.68,4.19-3.55,5.87-3.69,2.97.32,4.07-.58,6.29-2.28,2.49-1.92,6.85-2.16,6.43-5.93.69-.5,1.39-1.3,2.6-1.4.52-.04,1.09.45,1.5.98Z"/>
  <path class="cls-1" d="M125.14,70.28c-1.14,5.69-1.84,11.48-2.44,17.65-.36,3.64-2.56,7.34-.56,10.35-5.27,5.36,1.49-28.95,1.4-28.9.42-.24.94.97,1.6.9Z"/>
  <path class="cls-1" d="M37.14.91c-4.53.91-9.07-.86-11.17,4.35-1.31.73-3.03,1.54-3.78,3.02l-4.04,2.04C20.47,4.96,31-2.63,37.14.91Z"/>
  <path class="cls-1" d="M17.18,11.41c-1.53,2.86-4.14,5.17-6.74,7.08-.01-3.37,3.55-6.45,6.74-7.08Z"/>
  <path class="cls-6" d="M80.14,77.28c-.13.63.19,1.39,0,2h-9v-1c2.37-.35,6.36-1.56,9-1Z"/>
  <path class="cls-4" d="M40.13,101.37c-1.31.31-2.56.92-3.51,1.9-1.12-2.24-1.89-3.23-1.55-4.96,2.26-.09,3.51,1.81,5.07,3.06Z"/>
  <path class="cls-1" d="M169.14,35.28c-3-3.68-4.62-1.15-7-5,1.55-.37,8.41,2.18,7.89,4.22-.08.31-.85.46-.89.78Z"/>
  <path class="cls-5" d="M126.03,57.93c-.08.27-.22,1.04-.43,1.35-2.42,0-4.1,1.7-6.04,3.37-7.32,6.31-11.57,3.3-13.25,8.72-1.79-.38-3.75-.34-5.17.91-.21.19-.65.23-.92.33s-.63,0-.92.07c-.13-.73.25-1.56.16-2.3,2.06-.26,4.29-1.7,5.48-3.18,1.19.41,2.28-.37,3.25-.74,6.21-2.38,11.38-6.99,17.84-8.52Z"/>
  <path class="cls-2" d="M164.21,41.11c-1.97,2.78-5.27,4.75-9.32,4.86-7.97.2-27.51,6.38-26.76,7.31l-1.57-1.96c-.08-.1-.95,1.16-1.13,2.06l-.6,3.08c-.15.79-2.68,1.23-3.16.49-1.81-2.79-1.87-6.57-4.85-8.32-1.77-1.04-4.7.68-6.5-.68-1.34-1.02-1.47-3.58-3.38-3.46l-1.99-3.16c-.02-.33.34-.8.23-1.1,11.29-2.86,9.04,3.09,16.97-1.88,5.51-.85,11.14-.5,16.49-2.09,4.68-1.39,9.76-3.25,14.28.52,1.12.93.99,4.01,3.3,4.39,2.85.46,5.5,0,7.97-.06Z"/>
  <path class="cls-4" d="M102.57,17.07c6.09,2.22-2.62-1.45-.98-2.65.32-.24.78.76,1.13.91.63.27.74,2.06-.14,1.74Z"/>
  <path class="cls-6" d="M108.95,61.4c.54,1.73.1,3.5-.76,5.05-.97.37-2.06,1.15-3.25.74.56-1.79-.14-5.75-2.89-5.53-1.66.13-2.78,2.77-4.38,2.65-6.55-.5-1.38-4.89-13.79-1.17-.52-1.89-1.03-3.57-2.69-5.29-1.1-1.14-2.89-1.13-5.01-1.09l-9.07.16-10.15-7.13c-1.91-1.34-4.38,3.27-3.96,5.39.26,1.29-.92,2.14-1.15,3.12-1.21-.26-1.24-1.69-1.53-2.76-1.2,1.89-.36,3.79-1.22,5.84-2.59.05-3.03-3.23-4.94-3.71-2.33-.59-3.53,2.48-4.56,3.62-.07-6.69-9.57.47-19.87-8.68-.46-.23-2.05-.62-1.6.39-2.85-1.8-5.27-4.2-8.26-6.45-1.25-.94-.95-2.26-1.5-3.04-.61-1.92,9.21,3.66,12.91-1.81,2.77.31,3.49,3.81,4.61,5.82.77,1.38,2.85-.09,3.23-1.33l2.76-9.07c1.44-.69,3.03-.43,3.35-2.21-2.24-.81-3.19-2.2-4.47-3.76-.91-1.11,1-2.28.76-3.83-1.03-6.63-5.7-6.03-5.95-7.96-.18-1.35,1.31-4.53-.79-5.68-.55-.3-2.13,1.12-2.69-.06.15-1.64,2.37-2.01,1.58-3.28-.44-.71-.98-1.41-1.47-2.06.75-1.48,2.47-2.29,3.78-3.02.86,1.37,1.58,2.8,2.66,4.02,4.4-7.55,1.03,8.95,6.29,10.18.35-.53.56-2.08,1.08-2.1,1.68-.07,4.43,5.14,5.34,5.45,2.61.88,4.89.71,6.37-1.4,2.47,8.01,3.34,2.31,3.01,10.19,9.66,3.05,1.36,6.5,9.56,8.78-.01,1.61-1.58,1.63-1.98,3.39,1.86,1.15,2.85-.63,4.85-.7-.3,1.25,9.43,8.47,8.62,8.29,5.04,1.15,7.39-6.26,12.2-2.22,2.82,2.37,11.64,2.93,11,1.2l-.95-2.57c-.09-.26,2.36-.86,2.44-.04.51,5.07,4.17,2.12,10.16,10.84.86,1.26.68,3.26,2.33,2.84ZM47.14,56.78c0-.28-.22-.5-.5-.5s-.5.22-.5.5.22.5.5.5.5-.22.5-.5Z"/>
  <path class="cls-3" d="M104.93,67.19c-1.19,1.48-3.42,2.92-5.48,3.18-4.82.62-9.35,2.61-14.36,3.79-.05.01-14.86,2.14-15.33,1.95-.84-.35-.83-2.09-1.04-3.63l-5.28.27c.77-10.28-6.42-9.71-10.44-17.57-.43-2.11,2.05-6.73,3.96-5.39l10.15,7.13,9.07-.16c2.12-.04,3.91-.05,5.01,1.09,1.66,1.73,2.16,3.4,2.69,5.29,12.41-3.72,7.24.67,13.79,1.17,1.6.12,2.72-2.51,4.38-2.65,2.75-.22,3.45,3.73,2.89,5.53Z"/>
  <path class="cls-3" d="M106.31,71.37c3.07,5.97-3.6,18.17-2.66,17.94-3.07.75.36-2.43-2.33-5.08.01-3.98-1.31-7.67-2.02-11.55.3-.07.64.03.92-.07.09,1.13,1.09.48.92-.33,1.42-1.25,3.38-1.29,5.17-.91Z"/>
  <path class="cls-4" d="M71.14,78.28v1c-9.21,0-13.21,3.57-23.09,1.54l9.18-1.36c4.99-.74,9.5-.53,13.9-1.18Z"/>
  <circle class="cls-6" cx="82.64" cy="45.78" r=".5"/>
  <circle class="cls-6" cx="95.64" cy="44.78" r=".5"/>
  <circle class="cls-5" cx="87.64" cy="39.78" r=".5"/>
  <circle class="cls-6" cx="77.64" cy="46.78" r=".5"/>
  <path class="cls-3" d="M23.02,59.31c1.8,1.63,3.74,3.09,5.38,4.98.1,1.17.95,2.13.61,4.06-1.49-.26-1.36-1.7-2.95-2.36-1.03,2.02-.53,3.73-.55,6-5.51,1.64-7.94-4.11-12.7-2.96-.16,2.96,3.46,3.95,4.26,6.22,1.25,3.54,2.8,5.83,7.17,5.68-1.18,1.57-2.15,2.08-2.07,3.34-1.61,1.34-3.05.85-4.15-.45-3.69-4.35-1.97-5.92-3.39-6.52-.95-.4-2.15-.43-2.64,1.05-.18.56-.45,1.06-.63,1.25-.17.18-.66.14-.94-.01-.23-.12.59-1.28.33-1.57-1.38-1.59-2.68.65-3.88,1.51-2.67-2.06-3.63-6.18-4.02-10.22-1.41-1.86-.29-2.42,1.99-1.18-2.08-9.49,3.08-3.34,5.91-12.28,2.56,1.49,2.87,5.18,4.97,4.8l7.3-1.33ZM15.14,66.78c0-.28-.22-.5-.5-.5s-.5.22-.5.5.22.5.5.5.5-.22.5-.5ZM12.14,75.78c0-.28-.22-.5-.5-.5s-.5.22-.5.5.22.5.5.5.5-.22.5-.5Z"/>
  <circle class="cls-4" cx="46.64" cy="56.78" r=".5"/>
  <path class="cls-1" d="M100.22,72.61c.27-.1.71-.14.92-.33.17.81-.83,1.46-.92.33Z"/>
  <circle class="cls-2" cx="11.64" cy="75.78" r=".5"/>
  <circle class="cls-6" cx="14.64" cy="66.78" r=".5"/>
</svg>