<?xml version="1.0" encoding="UTF-8"?>
<svg id="Layer_2" data-name="Layer 2" xmlns="http://www.w3.org/2000/svg" viewBox="0 0 256.23 158.65">
  <defs>
    <style>
      .cls-1 {
        fill: #e77d2f;
      }

      .cls-2 {
        fill: #8e3313;
      }

      .cls-3 {
        fill: #e17129;
      }

      .cls-4 {
        fill: #210b07;
      }

      .cls-5 {
        fill: #581f10;
      }

      .cls-6 {
        fill: #c14d1c;
      }

      .cls-7 {
        fill: #a23b12;
      }

      .cls-8 {
        fill: #d45d21;
      }

      .cls-9 {
        fill: #993613;
      }

      .cls-10 {
        fill: #4e1b0e;
      }

      .cls-11 {
        fill: #66220d;
      }

      .cls-12 {
        fill: #7e2c10;
      }

      .cls-13 {
        fill: #75260d;
      }

      .cls-14 {
        fill: #46180c;
      }

      .cls-15 {
        fill: #3e140a;
      }

      .cls-16 {
        fill: #ac4018;
      }
    </style>
  </defs>
  <g id="Layer_1-2" data-name="Layer 1">
    <g>
      <path class="cls-16" d="M66.15,2.11c2.49.21,5.08.6,7.15,2.06.32.88.59,1.77.81,2.68-2.59-.39-2.12,2.39-3.24,4.07-1.54,2.3-4.72,2.48-5.64,5.04-3.6,9.99,6.6,10.56-1.53,16.24,2.95,1.67,9.92,3.7,7.93,7.16,3.4-.54,6.65.21,6.71,4,1.95-.87,2.2-2.22,3.06-2.14,3.84.37.46,1.63,3.94,4.26,1.54,1.16,2.26-.73,3.71-.86,1-.09,2.09,1.25,2.9.87,1.49-.69,1.79-1.63,2.72-3.53,1.07,1.51.74,3.4,2.4,3.86,1.94.54,3.94.27,4.14-1.93l1.19-.14c2.04.77,2.21,3.04,3.57,5.17,1.53-1.2,1.48-2.32,2.17-2.71,1.35-.77,3.35-.61,4.26.14.76.63,1.36,1.52,2.44,1.7-.73.63.66,1.53,1.71,2.03-1.08,3.16-.4,7.11,1.35,10.14l3.81-.91c.54,2.67,2.48,2.63,4.38,3.28s2.92-.57,4.54-1.77c.92,1.64,1.64,2.53,2.13,3.75.27.69-1.04,1.45-1.31,2.34-.69,2.3-3.23,5.1-6.36,4.13-1.57-.48.11-2.14-.08-3.37-11.18,5.77-.3-3.55-16.66,4.18.19,2.72-.95,4.01-1.35,1.04-8.85-.39-6.02-3.47-9.01-2.02-1.18.57-2.95-1.18-4.12-1.72-1.89-.86-2.61,1.08-3.69,1.57-.91.4-2.63.9-3.57.83-.79-.74-.64-2.34-1.24-2.42-.82-.11-2.7-.19-3.21.25,2.25,1.31,2.25,3.1,2.13,4.78-.28.32-.55.66-.8,1.02-1.84.67-3.76.05-5.64-.23-.97-.91-1.12-2.01-.87-4.08-1.88.9-2.63,2.51-5.19,3.09-.31.97.78,1.6,1.5,2.22,0,.55.09,1.15-.04,1.69-2.55.99-3.99-2.08-6.45-1.57l-9.43,2.86c-.33,1.16,1.41,1.41,1.9,2.71-3.89-.62-5.04.92-7.35,2.9-.97.83-2.18-1.39-1.94-2.19.29-.95.79-1.89,1.18-2.81-.09-3.58,3.35-1.96,4.04-3.42-1.23-1.04-2.9-1.06-3-1.96-.32-2.91,6.4-.26,4.19-4.41,2.38-.19,3.41,1.9,4.22,4.97,1.76-1.65.04-3.34-.95-6.65,3.46-.16,6.31,1.17,9.67,2.92,1.78-1.46,3.01-3.09,4.16-5.15-2.79-.99-4.45-.19-7.34-.41,1.25-2.4,1.95-4.01,3.02-6.89,1.6,2.3,2.57,3.57,4.54,4.76,4.48-3.34.34-5.97,1.62-7.14,1.59-1.45,3.64.7,5.48.64-.13-2.47.65-4.4,2.67-4.16,1,.12,2.08,1.45,3.77,1.8,1.46.3,1.28-3.39-.33-3.39-2.85,0-5.89-1.28-8.37-1.03-.73.1-.94,2.68-1.42,3.23-.76.84-1.86-.04-3.13.04-3.14.21-5.79-1.45-5.64-4.8-2.06-.75-3.85.03-5.26-1.23,1.25-.88,2.48-.06,3.17-1.16-2.43-2.36-3.52-5.07-3.22-7.74.24-.31,1.18-.47,1.5-.61.68-.31.52-.7.09-1.02-.57-.42-1.03-.78-1.78-.8-1.89-.47-1.78-1.01.17-1.92-6.21-14.07-7.77-8.14-3.56-13.88,3.09-4.22,5.86-14.12,1.87-17.72.31-.05.61-.28.92-.3,1.29-.1,2.6-.3,3.89-.19ZM66.15,41.49c0-.28-.22-.5-.5-.5s-.5.22-.5.5.22.5.5.5.5-.22.5-.5ZM71.49,45.16c-.61.41-.78,1.79-.41,2.03.42.27.9.21,1.29.02.47-.23,1.12-1.29.61-1.72-.28-.24-.68-.87-1.49-.33ZM83.15,54.45c0-.28-.22-.5-.5-.5s-.5.22-.5.5.22.5.5.5.5-.22.5-.5ZM86.15,58.44c0-.28-.22-.5-.5-.5s-.5.22-.5.5.22.5.5.5.5-.22.5-.5ZM70.24,72.59c-.57-1.04-1.1-.6-1.23.54.16,2.32,1.36,2.02,1.23-.54Z"/>
      <path class="cls-8" d="M89.15,8.09c-.1.27.17.78,0,1-.27.35-.36.66,0,1-1.91,2.53-.04,6.45-1.61,9.22-.83,1.46-4.74,1.36-4.47,3.4.17,1.3.52,3.9,2.06,4.14,1.24.16,1.86-1.5,2.64-1.82,1.35,2.59,1.16,4.4,1.26,7.01,2.05.18,1.41-1.45,2.39-3.13,1.78,1.04.01,2.39-.38,4.59,11.98-3.58,16.8,4.81,18.99-2.57,1.01.3,2.26.47,3.12,1.14s.66,2.48,2.31,3.09c1.42-.99.52-4.22,2.68-2.61,1.02.77.96,2.73,2.46,2.64,1.42-.08,2.54-1.22,3.73-1.76.67.41,1.15,2.29,1.88,2.92.96.84,2.53-.11,3.62.22,1,2.1,3.62,5.21,6.32,4.63,1.21-.26,2.29-1.4,3.39-1.35,3.36.15.84,6.11,2.71,5.49.92-.31,2.16-.07,2.42-.98s-1.13-1.33-1.38-2.99c3.77.34,7.29,1.17,10.89.54.72,2.27,1.41,4.5,3.12,6.22-1.11,1.72.09,3.82.06,5.74-2.39-1.86-2.53-5.17-3.65-7.93-1.19,1.28-.83,2.59-1.84,3.29s-2.19.19-4.1-.08c-1.18-.09.11,1.64.35,2.79-1.84-.61-2.34-1.99-3.49-2.93-1.05,1.78-.88,2.85-1.5,4.35-.45,1.09,1.59,1.14,2.14,2.39,1.02,2.31-.87,3.38-2.38,3.63-5.38.91-2.03-1.49-8.01-1.57-.98-.01-1.91,2.22-3.12,1.96-1.69-.36-1.92-2.58-3.12-3.72-2.57.83-5.02-.06-6.54-1.75,2.12-1.73.82-2.04-.63-1.1-2.31,1.14-2.41-.54-2.55-2.69-.11-1.66.88-1.56,2.33-2.22.91-.5.28-4.17-.67-3.88-1.54.75-2.62,1.5-3.85,1.21-.38.74-1.14,1.79-1.87,2.42-1.09-.17-1.68-1.06-2.44-1.7.67.89,1.37-.41,1.75-1.05.26-.42-1.32-.88-1.33-1.57-.03-1.24,1.17-1.61.43-2.35-1.15-1.13-1.63-1.17-2.91-.26-3.18,2.26-6.91-1.38-7.92,2.63l-1.19.14c-2.25-3.18-5.64-5.12-10.08-5.99-1,.92-.03,2.07-1.1,2.87-1.11-1.47-.94-3.09-2.19-3.82-1.36-.8-3.09-.41-4.54-.08.14-.94-.51-1.46-1.15-1.89l-5.59-3.79c-.41.91-.58,1.8-1.06,1.95-.6.18-1.08-1.33-3.15-.45,1.95-1.03,1.29-2.72,1.42-4.46.25-3.19,1.21-5.96-2.36-7.43,2.06-2.85,2.61-5.5,4.22-8.02l4.07-1.8c-1.3-2.33-3.58-3.32-5.59-4.12-.22-.91-.5-1.8-.81-2.68l15.85,3.93Z"/>
      <path class="cls-10" d="M182.48,142.88c3.87,2.21,6.45,6.41,10.78,7.79,2.4.76,4.71,2.82,5.89,4.98,0,.41.2,1.1-.05,1.44-.71.98-20.91.71-24.51.07-5.81-1.03-11.39-.2-17.25-.6l-4.08-8.15c1.74.19,3.7-1.06,5.76-.7,3.16.54,3.27,3.85,5.39,6.05.17-2.76-1.3-4.54-.44-6.89.92-2.54-4.73-21.44-5.81-24.12-.35-.86.25-2.09,0-2.99,5.37-2.96,12.94-9.24,17.57-5.11,2.62,2.34,2.53,4,2.09,7.55-.72,5.74-4.46,18.16.95,20.92,1.12.57,2.71,1.8,3.71-.24Z"/>
      <path class="cls-15" d="M117.15,139.69v2.99c-5.51,2-1.32,5.56-7.21,10.84.89,1.45,3.85,2.06,3.52,3.8-7.41-.14-13.94.81-20.86-.07l-12.96-24.04c4.34.66,6.95.12,10.59-1.37,3.08-1.26,2.29,6.78,18.39-4.52,2.06-1.45,3.83-3.64,6.62-2.04,4.05,2.31-1.16,12.47,1.92,14.41Z"/>
      <path class="cls-2" d="M62.26,2.3c-.31.02-.61.25-.92.3-.51.15-2.28-.96-3.04-.3-2.82,2.43-2.61,6.59-.76,9.71-4.66,7.09-.94,3.72-4.52,12.13-1.2.12-2.74.07-3.6.73-1.22.95-.95,2.61-1.41,4.21-.58,2.05,1.21,3.09,2.25,3.57,1.98.9,3.78-.48,4.98-1.63,1.44,7.14,3.01,1.8,1.86,6.78-11.45,1.08-3.98,7.54-11.23,9.03,6.39,5.22-1.51-2.28,5.97,1.77.65.35.82-.62,1.28-.8.78-.32,1.6.64,2.09.95-.42.75-.81,1.45-1.57,2.52-.4.57-.1,1.35,1.5,2.22-1.92,1.34-4.24.72-6.05-.58,1.12,1.35,1.45,2.38,1.21,3.63s-1.82,1.64-3.43,1.88l-1.18,3.92c-1.42-.12-2.28-.25-3.07-.03-1.54.42-1.64,2.31-1.59,3.31.16,2.94,6.75.09,5.07,3.62-.36.75-2,.82-3.17.68-1.91-.24-1.62-2.83-3.96-3.4-.59,1.46.18,2.39-.19,2.98-.17.26-10.47,3.1-11.57,2.67-1.74-1.22-2.49-4.15-4.42-5.1,1.36.66,2.93.79,4.1.36,1.42-.52.97-3.23,1.97-3.8,3.22-1.82,6.68-2.83,9.4-5.62-.32-1.74-1.81-2.86-.86-4.56,2.22,1.18,3.04,2.49,4.23,2.02.82-.32,1.72-1.32,1.69-2.03-.07-1.46-1.54-1.45-2.65-2.26-1.05-.76.76-1.55,1.7-2.26l-3.39-1.71c1.91-1.07,4.36-.88,3.94-2.62-.36-.68-1.93-.95-1.8-2.05.06-.46.73-.79,1.29-.47.28.16.69.06,1.61.28.89-2.4,1.95-4.3,3.74-5.73-5.59-2.42-6.97-9.32-4.31-13.92-3.05-8.15,4.75-11.61,4.46-12.21l-1.26-2.57c-.48-.98,2.77-1.68,2.51-3.27-.21-1.31-.54-2.45-1.02-3.53,3.39-.36,7.04.97,10-.88.77-.48,2.53-.06,3.4,0,.77.05.73,1.46.7,2.07ZM34.3,64.99c-.07-1.5-2.24-1.5-2.3,0-.12,2.68,2.42,2.68,2.3,0Z"/>
      <path class="cls-2" d="M47.09,94.73c2.48.16,4.12,3.84,5.68,5.42l14.61,14.8c-1.2,2.29-3.83,3.25-5.64,5.49.45-.56-3.31,6.78-2.2,8.28.55.75,1.61,1.07,2.61,1.01-1.07.95-1.37,2.54-3,2.99-1.73.48-2.32,2.56-3,3.99-.24.23-.83.57-1,.85-2.81-.27-5.46-.17-8.83-1.5,2.23-3.34.37-6.57.95-9.37.69-3.32,6.62-6.32,5.82-9.73-.89-3.81-6.92-3.44-8.39-5.34-2.27-2.94-2.08-5.77-5.73-5.58,1.03-.06-10.78-3.73-12.64-2.22-.4-3.26,3.37-1.89,4.49-3.33,6.16-7.91,8.71-3.83,16.27-5.75Z"/>
      <path class="cls-4" d="M83.35,84.69c-2.4,2.03-.89,5.84-2.1,8.25-1.3,2.59-1.13,5.38-1.88,8.08l-3.71,13.26c-.38,1.37-1.41,2.48-.97,3.81-.26-.8,3.59,4.62,3.08,4.34-.62-.35,9.45.18,11.15-3.89,7.05-1.16,13.65-2.48,20.13-4.16-.51.13,15.36-2.58,13.11,1.39h-2c-7.98,0-15.91,2.18-24.1,2.33,8.19,2.04,15.6-.48,23.1-1.33.72,7.67-.82,15.33-2,22.93-3.08-1.94,2.12-12.1-1.92-14.41-2.79-1.59-4.56.6-6.62,2.04-16.1,11.3-15.31,3.26-18.39,4.52-3.64,1.49-6.25,2.03-10.59,1.37l12.96,24.04c6.92.88,13.46-.07,20.86.07l16.7.31h3c.12.36-.37,1-1.06,1l-40.72-.1-11.73-21.25-8.48-16.54.83-2.99c3-2.23,7.22-23.34,7.17-25.92l-.04-1.99c2.53-2.27,1.11-7.42,4.04-7.98.21.91.08,1.9.19,2.82Z"/>
      <path class="cls-7" d="M191.15,10.08c4.73,5.11,11.6,7.46,18,9.97,2.69,1.06,5.53,2.45,8,3.99l5,3.12c-.45.87-.93,3.07-2.01,3.12-3.03.12-5.51-3.44-8.14-3.77-3.8-.48-6.29-1.27-9.4-2.76-3.35-1.61-5.41,4.28-6.3,6.56s-3.78,3.37-3.1,6.8c1.05,5.26-9.96,6.95-9.19,7.04-3.04-.34-14.65-3.05-18.69,1.9-1.9-.88-4.6-.88-4.98-3.33-.15-1,1.25-2.04,2.58-1.74,4.34.97,7.68-.76,11.41-1.39,3.29-.55,4.24-1.99,6.54-3.51,3.33-2.19,4.65-3.79,6.05-7.41,1.31-3.38,2.94-5.19,1.32-9.09-1.17-2.82-3.65-4.42-7.1-5.37-.46-1.85,6.88-6.91,8.01-5.89l1.98,1.78Z"/>
      <path class="cls-14" d="M133.18,112.78c-.5-.27-1.25.52-1.03,1-3.49-.39-6.88.43-10,1.99,2.25-3.96-13.62-1.26-13.11-1.39.38-1.21,1.12-2.62.62-3.77-.75-1.75-5.79-3.77-10.25-6.17-.52-.28-19.04-4.3-20.05-3.42.75-2.7.58-5.49,1.88-8.08,5-.69,2.76,4.29,8.97,3.95,5.6-.3,12.03-.4,16.62,2.98,2.79,2.06,5.49,0,8.32.59,4.05.82,7.5,2.45,12.11,2.56,2.1.05,5.66,2.13,6.6,3.74,1.27,2.19-.5,4.4-.68,6.01Z"/>
      <path class="cls-12" d="M55.15,137.55c-4.18,6.9,9.59,12.76,12,18.39-3.85,2.22-8.11.74-12.22.44.29-1.77-.35-3.45-1.22-4.82-1.12-1.77-4.4.44-5.59-.31-1.88-1.92-1.74-5.43-4.69-7.17-1.53-.9,1.48-4.19.48-4.88-1.69-1.17-4.05-.58-5.05-1.76-.81-.95-1.7-14.79,4.65-16.94-2.96-4.7-2.86-9.76-4.55-14.47,3.66-.2,3.47,2.64,5.73,5.58,1.47,1.9,7.51,1.54,8.39,5.34.79,3.41-5.14,6.41-5.82,9.73-.58,2.81,1.28,6.03-.95,9.37,3.37,1.33,6.02,1.22,8.83,1.5Z"/>
      <path class="cls-16" d="M181.16,14.2c3.45.95,5.93,2.55,7.1,5.37,1.62,3.89-.01,5.71-1.32,9.09-1.4,3.61-2.73,5.22-6.05,7.41-2.3,1.52-3.26,2.96-6.54,3.51-3.73.63-7.07,2.36-11.41,1.39-1.33-.3-2.73.74-2.58,1.74-.63.3-1.68-.08-2.25.3.13-.91.15-1.88-.46-2.85-.41-.65-1.35-1.08-2.29-1.08h-.96c-.04-.97-1.43-1.86-2.31-2.11-.19-1.48-.27-3.23,1.17-4.07,1.85.35,4-.41,4.62,2.77.31,1.58,1.55,3,2.91,3.29,1.73.37,2.73-1.18,4.21-2.05,2.38-1.39,11.23-3.61,8.69-8.83-.63-1.29-2.64-.37-3.6-1.01-1.51-1.01-3.07-1.32-4.94-1.07-1.33.17-2.72-1.19-4-1.1,2.06-2.15,6.25.04,8.28-2.3,1.64-1.89,1.52-5.25,1.5-7.27.79-.15,1.79.09,2.31-1.01-1.62-.29-2.44-.46-3.09-1.24,3.6-1.65,5.24-.47,11.01,1.13Z"/>
      <path class="cls-15" d="M218.17,72.69c-.33,1.68-16.92,2.61-15.02,6.19-.3.1-.69-.08-1,0-8.94,2.17-17.83,5.03-26.1,9.91-.7.41-1.64.02-1.76.72-.09.55-.22,1.06-.05,1.54-1.86,1.12-3.05,3.88-5.9,2.96l-.06-1.26c1.9-2.02.68-4.83-.52-7.01-.33-.59-.43-1.38-.92-1.89.29-3.54-1.73-6.65-2.69-9.96l2.01-.22c.11,2.12.42,4.19,2.05,6.31l7.48-1.43c9-7.32,20.05-8.16,31.56-7.83l8.89.26c.75.02,1.46.26,1.8.6.24.24.31.64.23,1.1Z"/>
      <path class="cls-13" d="M253.2,59.95c-.45,1.37-1.75,2.56-2.05,3.97-.31-.09-.7.02-1-.09-5.67-2.16-10.91-.06-14.13-6.58-6.94,1.17-16.61-1.33-21.07,2.21-5.32-7.7-10.63,1.98-16.81-3.53.2-3.52,10.72-.24,12.5-5.3.97-2.76,2.1-3.48,4.29-4.57,2.47-1.24,3.3,2.22,5.21,2.47,20.34,2.7,15.08,5.32,33.06,11.43Z"/>
      <path class="cls-4" d="M34.03,156.32c1.28-.09,2.7,0,4,0s2.82-.06,4.07.16c4.25.75,8.61-.41,12.83-.1s8.37,1.78,12.22-.44c1.36.25,3.51.5,3.97,2.71l-52.57-.09c-6.64-15.99-13.51-39-17.4-54.76.36-.33.75-.65,1.14-.94,5.28,16.91,9.56,33.31,15.66,50.64,1.8,5.11,9.95,3.24,16.07,2.81Z"/>
      <path class="cls-8" d="M156.15,13.07c2.96-.93,6.93.67,10,0,1.2-.26,2.85.53,4,0,.65.79,1.47.95,3.09,1.24-.52,1.1-1.52.86-2.31,1.01-6.19-3.54-10.48,2.52-13.85,7.61-1.29.49-4.87-.89-3.94,1.1-.45.72-1.38,1.39-2,1.99-.37.36-.76.7-1.1,1.09-7.31-12.85-10.1-8.03-8.33-13.67,5.02.58,10.38,1.47,14.43-.37Z"/>
      <path class="cls-4" d="M42.15,1.11c.37.3.7.63,1,1-3.54-.69-4.74,2.63-6.84,4.23-3.09,2.37-7.21,4.88-8.83,8.51-5.1,3.21-.76,1.92-9.21,9-2.1,1.76-4.53,3.06-4.95,6.78-.75,6.64-4.11,20.46-2.36,22.43-.06.49-.06.99.01,1.48-2.25.73-2.22,3.27-2.61,5.66l-4.57,27.56c-.55,3.33-2.5,6.8-1.47,9.95-.74,1.05-1.73,2.59-1.16,4.1H.15c.17-.79-.32-1.79-.09-3.1L12.86,26c6.17-7.4,17.89-15.57,23-21.94,2.44-3.04,3.52-2.04,6.29-2.95Z"/>
      <path class="cls-10" d="M117.15,142.69c0,1.41-.26,2.39,0,2.99,2.79,5.28,8.73,6.78,13,9.97v1.99l-16.7-.31c.33-1.74-2.63-2.35-3.52-3.8,5.9-5.27,1.71-8.84,7.21-10.84Z"/>
      <path class="cls-4" d="M202.15,78.88c-4.42,4.79-11.12,1.39-12.13,10.06l-4.97,42.84c-.4,3.43-2.35,8.24-.07,10.99,2.53,3.06,6.44,4.65,8.28,7.9-4.34-1.38-6.91-5.58-10.78-7.79.82-2.81.23-5.88.68-9.23l1.72-12.99c.52-3.91.95-7.37,1.27-10.87.62-6.74,2.15-13.72,2.23-21.04.03-2.61-2.69.43-3.49.97-8.3,5.7-17.26,11.61-25.83,16.74-3.16,1.89-4.7,3.76-2.88,6.41,1.21,1.75-.17,5.37,1.97,6.89.25.9-.35,2.13,0,2.99h-1c-1.1-5.04-3.34-9.91-3.92-15.1,2.52-.93,5.67-1.14,6.76-3.85,7.86-3.68,21.56-12.42,28.42-18.73-5.39,1.63-9.95,3.43-14.17,5.98-.17-.48-.04-.99.05-1.54.12-.7,1.06-.31,1.76-.72,8.27-4.88,17.16-7.73,26.1-9.91Z"/>
      <path class="cls-2" d="M234.15,41.81l2.97,5.08c2.84,1.19,5.59,1.89,8.63,2.47,2.77,2.51,6.14,3.04,9.38,2.63,1.58,1.95.08,4.03-.98,5.95-1.99.58-2.27-2.27-3.7-3.16-2.41-1.51-6.47.51-8.55-1.36-2.55-2.29-14.12-6.4-12.09-10.37.52-1.02,1.41-1.76,2.39-2.27.74.12,1.39.74,1.95,1.03Z"/>
      <path class="cls-7" d="M71.89,113.96c-.6.8-.02,2.88.09,3.8l-.83,2.99c-5.73,4.02-2.15,2.91-9,8.97-1,.07-2.06-.26-2.61-1.01-1.11-1.5,2.64-8.84,2.2-8.28,1.8-2.23,4.44-3.2,5.64-5.49,1.2-.59,3.17-.9,4.52-.99Z"/>
      <path class="cls-7" d="M239.07,42.11c1.42,2.41,22.1,6.99,16.06,9.89-3.24.4-6.61-.12-9.38-2.63-3.05-.58-5.79-1.28-8.63-2.47l-2.97-5.08c1.6.31,3.29.21,4.92.3Z"/>
      <path class="cls-11" d="M235.15,33.01c-1.29-.15-2.88-.08-1.34,1.01.34,1.62,1.07,2.81,1.34-1.01,3.53,2.58.28,5.65,3.92,9.09-1.62-.09-3.31.02-4.92-.3-.56-.29-1.21-.91-1.95-1.03,2.88.46-2.3-.97-2.03-1.29.53-.64,2.16-.56,2.74-1.1-.48-2.08-2.21-3.89-.59-6.25l-5.03-3.11c-.24-.15-.82-.17-1.12-.18-.25-.89-1.24-.91-2.02-.82-.48-.62-1.42-.5-2-.87l-5-3.12c2.37-.31,4.72.5,6.95,2.08,3.08,1.24,11.5,3.75,11.05,6.89Z"/>
      <path class="cls-4" d="M203.15,78.88c-1.9-3.58,14.69-4.51,15.02-6.19,5.16,1.59,9.93-2.1,15.07-2.14,3.16-.02,4.96-.4,7.82-1.65,3.24-1.41,8.55-.37,9.08-5.07.3.12.69,0,1,.09-.91,4.34-6.14,6.39-10.81,7.17l-14.45,2.43c-8,1.35-15.52,2.82-22.75,5.35Z"/>
      <path class="cls-4" d="M153.26,148.41l4.08,8.15c5.86.4,11.44-.43,17.25.6,3.59.64,23.79.92,24.51-.07.25-.34.05-1.03.05-1.44.6.49,2.88,1.65,1.89,2.9l-43.86.1c-8.69-15.21-17.87-29.51-25.03-44.87-.22-.47.53-1.27,1.03-1,3.15,8.16,17.38,30.25,20.08,35.63Z"/>
      <path class="cls-1" d="M120.15,115.77c-.2.35-.54.94-1,1-7.49.85-14.91,3.37-23.1,1.33,8.18-.15,16.11-2.33,24.1-2.33Z"/>
      <path class="cls-12" d="M232.2,40.78c-.98.51-1.87,1.25-2.39,2.27-2.03,3.97,9.54,8.08,12.09,10.37,2.08,1.87,6.14-.15,8.55,1.36,1.43.9,1.71,3.74,3.7,3.16-.35.63-.73,1.33-.95,2.01-17.97-6.11-12.72-8.73-33.06-11.43-1.91-.25-2.74-3.71-5.21-2.47-2.19,1.1-3.32,1.82-4.29,4.57-1.79,5.06-12.3,1.78-12.5,5.3-.61-.01-1.23.02-1.84.09-4.57-6.86-6.05-1.09-20.81-2.65-2.8-.3-4.22-1.71-7.44-.8-2.31.65-5.13-1.43-7.98.18-.7.39-.49-1.61-.88-1.96,1.35.96,3.02-1.58,4.29-1.43,6.2.76,12.11.89,18.46.93,2.72.02,6.01,1.75,7.26-1.4,1.81.51,3.31-.37,5.35-.57l6.75-.67c-.71-3.04.02-8.49,3.73-8.09,2.25.25,3.97,1.77,6.39,1.25s2.12-2.81,3.83-4.61c2.31-2.43,6.69-.58,9.66-.16,1.7-2.29,1.48-4.91,2.37-7.01l5.03,3.11c-1.62,2.36.1,4.17.59,6.25-.57.54-2.21.47-2.74,1.1-.27.33,4.91,1.75,2.03,1.29Z"/>
      <path class="cls-12" d="M89.15,8.09l-15.85-3.93c-2.07-1.46-4.66-1.85-7.15-2.06-2.15-2.85,24.25,3.88,23,5.98Z"/>
      <path class="cls-12" d="M166.15,13.07c-3.07.67-7.04-.93-10,0-2.72.4-5.29-.81-8-1,3.56-.88,6.46-1.45,11.16.09,2.02.66,5.63-1.43,6.84.91Z"/>
      <path class="cls-14" d="M58.15.23c-2.96,1.85-6.61.52-10,.88-1.61.17-3.35,1.32-5,1-.3-.37-.63-.7-1-1,5.15-1.7,10.54-.92,16-.88Z"/>
      <path class="cls-2" d="M106.15,10.08c-5.16-1.29-11.18,1.71-16-1-4.9-.92,21.55.14,16,1Z"/>
      <path class="cls-4" d="M130.15,155.65c-4.27-3.19-10.21-4.69-13-9.97,1.95.98,12.94,8.12,13,9.97Z"/>
      <path class="cls-15" d="M133.15,157.64h-3v-1.99c1.25.94,3.36.22,3,1.99Z"/>
      <path class="cls-11" d="M209.15,20.05c-6.4-2.51-13.27-4.86-18-9.97,2.63.34,4.8,2.08,7.17,3.83,3.55,2.62,7.88,3.34,10.83,6.14Z"/>
      <path class="cls-12" d="M56.15,136.7c.68-1.43,1.27-3.51,3-3.99.1,1.86-1.46,3.3-3,3.99Z"/>
      <path class="cls-15" d="M2.36,102l-.07.86c-.4.29-.78.6-1.14.94-.16-.63-1.18-1.18-1-1.99h1c.4,0,.82.26,1.21.2Z"/>
      <path class="cls-9" d="M133.06,66.96c.41,2.25,4.33,5.49,6.54,5.1,1.77-.91,3.75.28,4.89.12,2.68-.85,5.61-1.16,8.8-1.1,2.72.05,5.68-3.62,8.91-2.16.75,1.66,1.44,3.22,1.95,4.99.96,3.31,2.98,6.42,2.69,9.96-2.78-2.86-14.12-8.86-15.61-4.2-.08.24,1.47.66,1.56.9s-.29,1.05-.86,1.11c-1.46-3.01-4.15-2.46-6.81-2.34-2.15.1-4.73-3.26-9.45,2.65-.69-3.35-4.47-4.86-6.27-3.06-.81.81.09,3.67-1.28,4.04-2.94.8-5.88.88-8.88,2.22-1.19-1.58-1.36-3.32-2.88-4.29-4.14,1.83-3.39,5.58-3.04,8.88-.9,1.09-2.16-.05-3.37-.07-3.93-.09-7.97,6.23-20.81-4.3-.8-2.57-.4-6.25-4.32-7.34,1.72-1.14,2.84-1.75,1.3-2.55-.5-.26-1.12-.78-1.82-1.33.12-1.68.12-3.47-2.13-4.78.51-.44,2.39-.36,3.21-.25.6.08.45,1.68,1.24,2.42.93.06,2.65-.43,3.57-.83-.19,1.49-.25,3.05,1.14,4.32,1.63,1.49,7.47-2.25,7.23-1.75.27-.58-.6-1.7-.55-2.43,2.98-1.45.15,1.63,9.01,2.02.41,2.97,1.54,1.67,1.35-1.04,16.36-7.73,5.48,1.59,16.66-4.18.18,1.23-1.49,2.89.08,3.37,3.14.97,5.67-1.84,6.36-4.13.54.05,1.08.07,1.63.06ZM92.26,76.72c-2.7-.17-3,2.13-.47,2.31,1.58-.08,2.14-1.47.47-2.31Z"/>
      <path class="cls-7" d="M61.34,2.6c3.99,3.6,1.22,13.5-1.87,17.72-4.22,5.75-2.65-.19,3.56,13.88-1.94.91-2.05,1.44-.17,1.92.75.02,1.21.38,1.78.8.43.32.59.72-.09,1.02-.31.14-1.25.3-1.5.61-.3,2.67.79,5.38,3.22,7.74-.69,1.1-1.92.27-3.17,1.16,1.42,1.26,3.2.48,5.26,1.23-.15,3.35,2.49,5.01,5.64,4.8,1.28-.09,2.38.8,3.13-.04.49-.54.69-3.13,1.42-3.23,2.48-.25,5.52,1.03,8.37,1.03,1.6,0,1.79,3.69.33,3.39-1.69-.35-2.78-1.68-3.77-1.8-2.01-.25-2.8,1.69-2.67,4.16-1.84.07-3.89-2.09-5.48-.64-1.28,1.17,2.86,3.8-1.62,7.14-1.97-1.19-2.94-2.46-4.54-4.76-1.07,2.89-1.77,4.5-3.02,6.89,2.88.22,4.54-.58,7.34.41-1.15,2.06-2.38,3.69-4.16,5.15-3.37-1.75-6.21-3.08-9.67-2.92.99,3.31,2.72,5,.95,6.65-.81-3.07-1.84-5.15-4.22-4.97-.22-.41.07-.91.35-.93l1.42-.12c.33-.03.95-.63.92-1-.15-1.74.67-3.18,2.36-5.3-1.89-1.8-3.79-.01-5.53.4-.77.19-2.49-1.88-1.81-2.61.5-.54,2.02-.51,2.58-1.17l5.32-6.27c-2.11-2.19-4.25-4.25-6.77-4.22-.5-.31-1.32-1.28-2.09-.95-.48-1.77,1.07-2.92,2.72-3.56-.89-.94-1.7-1.75-1.62-2.7.2-2.5,5.51-2.43,2.88-3.73,1.16-4.98-.41.35-1.86-6.78-.45-2.21-3.26-4.45-2.23-6.87,3.58-8.41-.14-5.04,4.52-12.13-1.86-3.13-2.07-7.29.76-9.71.76-.65,2.53.45,3.04.3ZM61.68,47.19c-.74-.98-2.33-2.33-3.45-1.85.93,2.12.7,2.65,1.45,2.41.7-.22,1.09-.44,2-.56Z"/>
      <path class="cls-9" d="M59.07,67.91c-.36.28-.67.62-.92,1l-1.42.12c-.29.02-.57.52-.35.93,2.22,4.15-4.51,1.5-4.19,4.41.1.91,1.76.93,3,1.96-.69,1.46-4.13-.15-4.04,3.42-1.18.32-1.72,2.68-2.8,3.16-1.93.33-4.2.88-6.39,1.56-2.18-.74-5.39-2.05-6.93-3.59l-7.77-7.8c.05-.31.05-.62-.04-.93,1.09.42,11.4-2.41,11.57-2.67.37-.59-.4-1.52.19-2.98,2.34.57,2.04,3.17,3.96,3.4,1.16.14,2.81.07,3.17-.68,1.68-3.53-4.91-.68-5.07-3.62-.05-.99.05-2.89,1.59-3.31.79-.22,1.65-.09,3.07.03l1.18-3.92c1.61-.24,3.2-.65,3.43-1.88s-.1-2.29-1.21-3.63c1.8,1.29,4.12,1.92,6.05.58-1.6-.87-1.9-1.65-1.5-2.22.76-1.07,1.15-1.77,1.57-2.52,2.51-.03,4.65,2.02,6.77,4.22l-5.32,6.27c-.56.66-2.09.63-2.58,1.17-.67.74,1.04,2.8,1.81,2.61,1.74-.42,3.65-2.21,5.53-.4-1.68,2.12-2.5,3.55-2.36,5.3ZM47.79,65.42c0-.35-.28-.63-.63-.63s-.63.28-.63.63.28.63.63.63.63-.28.63-.63Z"/>
      <path class="cls-6" d="M83.48,75.17c-.26,1.04.11,2.99-.98,3.7-1.62,1.05-2.17,2.57-2.53,5.09-1.42.1-1.95-1.65-3.3-.33,1.99,2.25,2.93,4.1,2.44,6.22l.04,1.99-1.83,1c.08-1.04-.28-2.44-1.46-1.96-.8.32-1.29.85-2.22,1.88-.17-3.83-14.3-2.07-7.22-4.74.66-.25,1.44.66,2.14.66s1.34-.63,1.28-1.34c-.02-.19-1.73-5.17-4.14-4.14-3.61,1.54,1.31,7.64-6.93,10.36-1.01.33-1.82,1.38-2.84.75-.53-.33-.61-1.22-1.83-1.41,1.14,1.92-1.11,5.58-2.06,4.37-2.01-2.55-2.58-3.68-4.94-3.59-1.11.05-1.71-1.88-2.03-2.68-.15-.38-.66-.8-.99-1.04-1.22-.92-2.95-1.83-4.01-2.92-.96-2.24-2.49-4.49-5.01-5.15v-.99c1.52,1.54,4.73,2.85,6.91,3.59,2.19-.68,4.46-1.23,6.39-1.56,1.08-.48,1.63-2.84,2.8-3.16-.4.92-.9,1.86-1.18,2.81-.24.8.97,3.03,1.94,2.19,2.3-1.98,3.46-3.52,7.35-2.9-.49-1.3-2.23-1.54-1.9-2.71l9.43-2.86c.5,1.55,1.27,3.49,2.9,3.67s3.16-.56,3.56-2.1c.14-.54.04-1.14.04-1.69,1.35.2,2.23.74,3.34,2.74.96-1.19.53-2.73,1.22-3.97,1.88.27,3.79.9,5.64.23Z"/>
      <path class="cls-6" d="M74.11,6.85c2.01.8,4.29,1.78,5.59,4.12l-4.07,1.8c-1.61,2.52-2.16,5.17-4.22,8.02,3.56,1.47,2.61,4.24,2.36,7.43-.14,1.75.52,3.43-1.42,4.46,2.07-.88,2.54.63,3.15.45.48-.14.64-1.03,1.06-1.95l5.59,3.79c0,.4-.07.9.02,1.51.07.48.64.5,1.14.38,1.45-.33,3.19-.72,4.54.08,1.25.73,1.08,2.35,2.19,3.82,1.07-.8.1-1.95,1.1-2.87,4.44.87,7.83,2.81,10.08,5.99-.2,2.21-2.2,2.47-4.14,1.93-1.66-.46-1.33-2.35-2.4-3.86-.93,1.9-1.23,2.83-2.72,3.53-.81.38-1.91-.96-2.9-.87-1.45.13-2.18,2.02-3.71.86-3.48-2.63-.1-3.88-3.94-4.26-.86-.08-1.11,1.27-3.06,2.14-.06-3.79-3.3-4.54-6.71-4,1.99-3.46-4.98-5.49-7.93-7.16,8.13-5.68-2.08-6.25,1.53-16.24.92-2.56,4.11-2.74,5.64-5.04,1.12-1.68.65-4.45,3.24-4.07Z"/>
      <path class="cls-13" d="M113.3,89.74l3.81,1.51c12.04-2.01,8.09-5.42,13.42-3.93-.08-1.82-.29-3.05.4-3.33.75-.3,2.31-1.43,2.84-.95.7.63.65,2.79,1.02,4.45,2.24-.8,4.04-3.72,6.64-4.04,10.12-1.26,17.2,1.53,26.33,2.29,1.2,2.18,2.42,4.99.52,7.01-2.23-1.78-4.45-4.06-7.28-5.58-2.24-1.2-3.63,1.53-5.11,2.24-3.43,1.65-6.67-1.91-9.77-1.3l-9.71,1.91c-.96.19-1.64,1.78-2.61,1.5-.7-.2-1.27-1.9-1.86-2.12-3.68-1.39-3.8,3.75-5.33,4.79-2.78,1.89-7.92-.57-10.64,1.62-.74.23-1.99-.27-2.8-.11-.48-.8-8.81-3.06-7.87-.15-.83-.55-2.7-1.64-3.73-2.12-6.21.77-13.23-5.59-18.2-8.72-.11-.92.02-1.91-.19-2.82-.23-1-.58-1.97-.65-3,1.09-.71.72-2.66.98-3.7.25-.35.51-.69.8-1.02.7.55,1.32,1.08,1.82,1.33,1.54.8.41,1.41-1.3,2.55,3.93,1.09,3.53,4.77,4.32,7.34,12.84,10.52,16.88,4.21,20.81,4.3,1.21.03,2.47,1.16,3.37.07Z"/>
      <path class="cls-6" d="M157.35,53.86c.78.61,1.2,1.35,1.8,2.09l1.08,6.85c-1.62-.46-2.62-1.45-2.79-3.87-2.23,1.01-.91,2.22-.54,3.87-6.07-1.89-11.21,6.44-14.58-.29-2.29,2.57-4.9,2.63-8.56.75-.57,1.98,1.55,1.54,2.2,2.65-.86,1.09-2.02.61-2.9,1.05-.54.01-1.09,0-1.63-.06.27-.89,1.59-1.65,1.31-2.34-.49-1.22-1.2-2.11-2.13-3.75-1.62,1.2-2.69,2.4-4.54,1.77s-3.84-.61-4.38-3.28l-3.81.91c-1.75-3.03-2.43-6.98-1.35-10.14-1.05-.5-2.44-1.4-1.71-2.03s1.49-1.68,1.87-2.42c1.24.29,2.31-.45,3.85-1.21.95-.29,1.57,3.38.67,3.88-1.45.66-2.44.56-2.33,2.22.14,2.15.24,3.83,2.55,2.69,1.45-.94,2.75-.64.63,1.1,1.52,1.69,3.97,2.59,6.54,1.75,1.2,1.14,1.43,3.35,3.12,3.72,1.21.26,2.14-1.98,3.12-1.96,5.98.08,2.63,2.49,8.01,1.57,1.51-.26,3.4-1.33,2.38-3.63-.55-1.25-2.59-1.3-2.14-2.39.62-1.5.45-2.57,1.5-4.35,1.15.94,1.65,2.32,3.49,2.93-.23-1.15-1.53-2.87-.35-2.79,1.91.27,3.12.76,4.1.08s.65-2.01,1.84-3.29c1.13,2.76,1.26,6.07,3.65,7.93Z"/>
      <path class="cls-6" d="M112.4,46.33c-.9-.75-2.9-.91-4.26-.14-.68.39-.64,1.51-2.17,2.71-1.36-2.13-1.53-4.4-3.57-5.17,1.01-4.01,4.75-.37,7.92-2.63,1.28-.91,1.76-.87,2.91.26.75.73-.45,1.11-.43,2.35.01.68,1.59,1.15,1.33,1.57-.39.64-1.08,1.94-1.75,1.05Z"/>
      <path class="cls-7" d="M97.98,70.86c-.05.73.83,1.85.55,2.43.24-.51-5.6,3.24-7.23,1.75-1.39-1.27-1.32-2.83-1.14-4.32,1.08-.49,1.8-2.43,3.69-1.57,1.17.53,2.95,2.29,4.12,1.72Z"/>
      <path class="cls-7" d="M77.84,74.94c-.69,1.24-.26,2.79-1.22,3.97-1.12-2-2-2.54-3.34-2.74-.72-.61-1.81-1.25-1.5-2.22,2.56-.58,3.31-2.19,5.19-3.09-.25,2.07-.1,3.17.87,4.08Z"/>
      <path class="cls-7" d="M73.23,77.86c-.39,1.53-1.85,2.29-3.56,2.1s-2.4-2.12-2.9-3.67c2.46-.51,3.9,2.56,6.45,1.57Z"/>
      <path class="cls-7" d="M71.49,45.16c.81-.54,1.21.09,1.49.33.51.43-.14,1.5-.61,1.72-.38.19-.87.25-1.29-.02-.37-.24-.2-1.62.41-2.03Z"/>
      <path class="cls-7" d="M70.24,72.59c.14,2.57-1.07,2.86-1.23.54.13-1.15.66-1.59,1.23-.54Z"/>
      <circle class="cls-7" cx="65.65" cy="41.49" r=".5"/>
      <circle class="cls-7" cx="85.65" cy="58.44" r=".5"/>
      <circle class="cls-7" cx="82.65" cy="54.45" r=".5"/>
      <path class="cls-3" d="M152.07,36.97c.88.25,2.27,1.15,2.31,2.11-.76.89-.55,1.76-.21,2.81-3.6.62-7.12-.2-10.89-.54.25,1.66,1.64,2.05,1.38,2.99s-1.5.68-2.42.98c-1.87.62.65-5.33-2.71-5.49-1.1-.05-2.18,1.1-3.39,1.35-2.7.57-5.31-2.53-6.32-4.63-1.08-.33-2.66.62-3.62-.22-.72-.63-1.2-2.52-1.88-2.92-1.19.54-2.31,1.68-3.73,1.76-1.5.09-1.44-1.88-2.46-2.64-2.15-1.61-1.26,1.62-2.68,2.61-1.65-.61-1.43-2.41-2.31-3.09-1.28-2.11-1.09-5.14.92-6.75,3.89-3.13,6.91,1.46,8.82,2.32,1.71.77-.53-4.46,9.02,2.4-.58-7.74,1.71,1.14,3.9,1.08,1.68-.05,4.94-1.02,3.78-2.47-.73-.91-2.1-.58-2.46-1.11-.33-.49.11-1.4.55-1.51,3.68-.91,2.51,6.83,5.7,6.71,1.57-.06,2.58-4.14,4.96-3.77.04,2.9.76,7.17,3.72,8.02ZM145.29,39c0-.35-.28-.63-.63-.63s-.63.28-.63.63.28.63.63.63.63-.28.63-.63Z"/>
      <path class="cls-3" d="M110.04,30.92c-2.19,7.38-7.01-1-18.99,2.57.39-2.21,2.16-3.56.38-4.59-.99,1.69-.35,3.31-2.39,3.13-.1-2.61.1-4.42-1.26-7.01-.79.32-1.41,1.98-2.64,1.82-1.54-.23-1.89-2.84-2.06-4.14-.27-2.04,3.64-1.94,4.47-3.4,1.57-2.76-.29-6.69,1.61-9.22,3.13,1.97,7.15,0,10.29,2.69-.87,1.21-2.39,1.79-2.45,2.79-.22,4.04,2.49-.71,10.23,11.26.96,1.48,3.69,2.01,2.81,4.1Z"/>
      <path class="cls-13" d="M159.19,50.79c.39.35.18,2.35.88,1.96,2.85-1.61,5.67.47,7.98-.18,3.22-.91,4.64.51,7.44.8,14.76,1.57,16.24-4.21,20.81,2.65-1.13,3.52-5.41,1.22-6.98,4.04-2.59.18-6.62-.68-9.17-.16-6.09-3.63-10.7-.51-18.88-.04-.54-1.43-1.16-2.74-2.12-3.91-.61-.74-1.02-1.48-1.8-2.09.03-1.92-1.17-4.02-.06-5.74.7.71,1.16,2.01,1.9,2.67Z"/>
      <path class="cls-2" d="M155.34,39.09c-.3.88-.14,2.16.53,3.41.36.67,1.06,1.31,2.22.52.57-.38,1.63,0,2.25-.3.37,2.45,3.08,2.46,4.98,3.33,7.12,3.29,15.64,1.9,23.5,1.48.2.83.31,1.21.39,1.37-1.25,3.15-4.54,1.42-7.26,1.4-6.35-.04-12.26-.17-18.46-.93-1.28-.16-2.94,2.38-4.29,1.43-.74-.66-1.2-1.96-1.9-2.67-1.7-1.72-2.39-3.95-3.12-6.22-.34-1.05-.55-1.92.21-2.81h.96Z"/>
      <path class="cls-16" d="M83.3,36.86c-.5.11-1.07.1-1.14-.38-.08-.61-.01-1.11-.02-1.51.64.44,1.29.95,1.15,1.89Z"/>
      <path class="cls-1" d="M90.15,9.09c4.82,2.71,10.84-.29,16,1,8.58,2.14,17.57.4,27.09,1.09,4.84.35,10.35,2.04,14.91.9,2.71.19,5.28,1.39,8,1-4.06,1.84-9.42.96-14.43.37-1.77,5.65,1.01.82,8.33,13.67.91,1.6.36,5.24,3.2,5.78-1.44.84-1.36,2.59-1.17,4.07-2.96-.85-3.68-5.12-3.72-8.02-2.38-.37-3.39,3.71-4.96,3.77-3.19.12-2.02-7.63-5.7-6.71-.44.11-.88,1.02-.55,1.51.36.53,1.73.2,2.46,1.11,1.16,1.45-2.09,2.43-3.78,2.47-2.19.06-4.48-8.83-3.9-1.08-9.54-6.86-7.31-1.63-9.02-2.4-1.91-.86-4.93-5.45-8.82-2.32-2.01,1.61-2.2,4.65-.92,6.75-.87-.67-2.11-.84-3.12-1.14.88-2.09-1.85-2.61-2.81-4.1-7.74-11.97-10.45-7.22-10.23-11.26.05-1,1.58-1.57,2.45-2.79-3.14-2.69-7.16-.73-10.29-2.69-.36-.33-.27-.65,0-1,.29.09.74-.14,1,0ZM118.15,21.55c0-.28-.22-.5-.5-.5s-.5.22-.5.5.22.5.5.5.5-.22.5-.5Z"/>
      <path class="cls-5" d="M105.28,95.53c1.84,1.22,5.63,1.52,7.87.15.82-.16,2.06.34,2.8.11,1.3,1.75,3.94,1.36,5.93,1.34-.42.4-.19.47.16.7,1.5,2.1,3.67-.5,5.53-.36,2.68.2,14.34,2.47,15.12,4.31.5,1.18,1.27,4.54-.48,4.89-1.53.3-3.46.21-4.02,1.62-.33.82-.15,2.31,1.2,3.67.81.81,1.58-.54,3.58-1.22,1.83,4.22,10.8,27.24,14.81,25.17.28.89.3,1.87.33,2.79-.96.25-2.1,1.37-1.61,2.45.55,1.2,2.35,1.41,3.58,1.38.29.76,1.19,1.24,1.73,1.71.4,1.12.62,2.88,2.14,2.61-.86,2.35.61,4.14.44,6.89-2.12-2.2-2.23-5.51-5.39-6.05-2.05-.35-4.02.89-5.76.7-2.7-5.39-16.93-27.47-20.08-35.63.18-1.61,1.95-3.82.68-6.01-.94-1.61-4.5-3.69-6.6-3.74-4.61-.11-8.06-1.74-12.11-2.56-2.83-.58-5.53,1.47-8.32-.59-4.59-3.38-11.02-3.29-16.62-2.98-6.22.34-3.97-4.65-8.97-3.95,1.21-2.42-.3-6.22,2.1-8.25,4.97,3.13,11.99,9.49,18.2,8.72,1.03.48,2.9,1.57,3.73,2.12Z"/>
      <path class="cls-14" d="M186.15,109.78c-.32,3.5-.75,6.96-1.27,10.87l-1.72,12.99c-.44,3.35.14,6.42-.68,9.23-1,2.05-2.59.81-3.71.24-5.42-2.76-1.67-15.18-.95-20.92.44-3.55.53-5.21-2.09-7.55-4.63-4.13-12.2,2.15-17.57,5.11-2.14-1.52-.76-5.14-1.97-6.89,4.75-.48,10.78-1.65,14.63-5.43,3.54-3.49,9.43-6.11,13.18-1.41.83,1.04-.04,4.3,2.16,3.77Z"/>
      <path class="cls-15" d="M163.96,146.86c-1.53.27-1.75-1.5-2.14-2.61-.41-3.42-.06-7.73-2.95-9.93-.19-3.82-.9-7.81-1.72-11.57h1c1.08,2.67,6.73,21.58,5.81,24.12Z"/>
      <path class="cls-6" d="M151.15,27.03c.71,1.24.7,3.29,1.8,3.79,1.28.58,2.88,1.04,4.32.8l10.78-1.81c1.43-.24,1.77-1.94,2.04-2.73.95.64,2.97-.28,3.6,1.01,2.53,5.21-6.31,7.43-8.69,8.83-1.48.86-2.48,2.42-4.21,2.05-1.36-.29-2.6-1.71-2.91-3.29-.62-3.19-2.77-2.42-4.62-2.77-2.84-.54-2.29-4.18-3.2-5.78.35-.38.73-.73,1.1-1.09.09.29-.15.73,0,1Z"/>
      <circle class="cls-3" cx="117.65" cy="21.55" r=".5"/>
      <path class="cls-12" d="M48.15,1.11c.48,1.07.8,2.21,1.02,3.53.26,1.59-2.99,2.28-2.51,3.27l1.26,2.57c.3.61-7.51,4.06-4.46,12.21-2.66,4.6-1.28,11.5,4.31,13.92-1.79,1.43-2.85,3.33-3.74,5.73-.93-.22-1.33-.12-1.61-.28-.56-.32-1.23,0-1.29.47-.14,1.1,1.44,1.37,1.8,2.05.42,1.74-2.03,1.55-3.94,2.62l3.39,1.71c-.94.71-2.76,1.5-1.7,2.26,1.12.8,2.59.79,2.65,2.26.03.71-.87,1.71-1.69,2.03-1.19.47-2.02-.84-4.23-2.02-.95,1.69.53,2.82.86,4.56-2.72,2.8-6.18,3.8-9.4,5.62-1,.56-.55,3.28-1.97,3.8-1.17.43-2.74.3-4.1-.36-2.75-1.36-3.15-4.49-5.5-6.22,4.06-6.1,7.13-4.71,9.25-10.29,1.13-2.98,4.03-3.5,6.13-4.98,4.58-3.21,4.05-9.46,1.87-13.89-1.17-2.38,1.98-4.06,2.14-5.95.32-3.65-.78-7.52,3.81-9.59-1.42-1.26-2.48-1.05-2.81-1.8-.93-2.14,2.01-5.68.79-6.95-.44-.46-1.49-.63-2.17-1.04,2.1-1.61,3.3-4.92,6.84-4.23,1.65.32,3.39-.83,5-1ZM40.15,40.49c0-.28-.22-.5-.5-.5s-.5.22-.5.5.22.5.5.5.5-.22.5-.5ZM41.15,53.45c0-.28-.22-.5-.5-.5s-.5.22-.5.5.22.5.5.5.5-.22.5-.5Z"/>
      <path class="cls-15" d="M10.97,54.53c1.31,1.14,3.14,2.18,4.21,3.54.8,1.03.97,1.92,2.12,2.76,2.35,1.73,2.76,4.86,5.5,6.22,1.93.96,2.68,3.88,4.42,5.1.09.31.09.62.04.93-1.77.08-3,1.71-2.92,3.67.2,4.93-7.89,13.77-11.2,16.44-2.66,2.14-4.24,5.9-7.71,7.42-.33-1.98-1.48-3.34-3.12-2.9-1.02-3.15.92-6.63,1.47-9.95l4.57-27.56c.4-2.39.36-4.94,2.61-5.66Z"/>
      <path class="cls-9" d="M57.11,37.8c2.63,1.29-2.68,1.23-2.88,3.73-.08.95.73,1.76,1.62,2.7-1.65.65-3.21,1.79-2.72,3.56-.45.19-.63,1.15-1.28.8-7.48-4.04.42,3.45-5.97-1.77,7.25-1.48-.21-7.95,11.23-9.03Z"/>
      <path class="cls-9" d="M53.02,24.15c-1.03,2.42,1.78,4.66,2.23,6.87-1.21,1.15-3,2.53-4.98,1.63-1.05-.47-2.84-1.52-2.25-3.57.45-1.59.18-3.26,1.41-4.21.86-.66,2.4-.61,3.6-.73Z"/>
      <path class="cls-12" d="M34.3,64.99c.12,2.68-2.42,2.68-2.3,0,.07-1.5,2.24-1.5,2.3,0Z"/>
      <path class="cls-13" d="M44.06,89.95c.16.48.5.88.99,1.04.32.81.92,2.73,2.03,2.68v1.06c-7.56,1.92-10.1-2.16-16.27,5.75-1.12,1.44-4.89.07-4.49,3.33,1.86-1.51,13.67,2.17,12.64,2.22,1.68,4.71,1.59,9.78,4.55,14.47-6.35,2.16-5.46,16-4.65,16.94,1,1.18,3.36.58,5.05,1.76,1,.69-2.02,3.98-.48,4.88,2.95,1.74,2.81,5.24,4.69,7.17,1.19.75,4.48-1.46,5.59.31.86,1.37,1.5,3.05,1.22,4.82-4.22-.31-8.59.85-12.83.1-1.15-2.22-.69-6.3-2.34-8.11-3.58-3.58-5.22-6.63-5.29-11.46.02,1.2-3.78-7.78-2.83-8.28.81-.43,2.21-.76,2.85-1.36,2.39-2.27-.98-4.82-.77-7.15.19-2.19,4.31-5.47,1.87-7.53-1.87-1.58-4.15-2.31-3.7-6.39-3.44,2.12-8.51.66-10.62-2.52.5-1.6,2.51-3.2,1.95-4.98,11.35-8.04,8.8-1.32,16.86-11.67,1.06,1.09,2.79,2,4.01,2.92Z"/>
      <path class="cls-8" d="M77.32,92.84c.12,2.01-.25,4.69-1.67,6.36-1.68-2.3-7.11,1.57-7.03,1.01-.75,5.44,5.92-1.59,6.51,3.52.3,2.62-1.87,4.24-2.23,6.32-.28,1.64.32,2.88-1,3.91-1.35.1-3.32.41-4.52.99l-14.61-14.8c-1.55-1.57-3.2-5.26-5.68-5.42v-1.06c2.36-.1,2.93,1.04,4.94,3.59.95,1.2,3.21-2.45,2.06-4.37,1.22.19,1.3,1.08,1.83,1.41,1.02.63,1.83-.42,2.84-.75,8.25-2.72,3.32-8.82,6.93-10.36,2.41-1.03,4.13,3.95,4.14,4.14.06.71-.59,1.34-1.28,1.34s-1.48-.91-2.14-.66c-7.07,2.67,7.05.91,7.22,4.74.93-1.03,1.42-1.56,2.22-1.88,1.18-.48,1.54.92,1.46,1.96Z"/>
      <path class="cls-15" d="M109.04,114.38c-6.48,1.68-13.08,3-20.13,4.16-1.7,4.07-11.76,3.55-11.15,3.89.5.28-3.34-5.14-3.08-4.34-.44-1.33.59-2.44.97-3.81l3.71-13.26c1.01-.88,19.53,3.14,20.05,3.42,4.46,2.4,9.49,4.41,10.25,6.17.5,1.15-.25,2.56-.62,3.77Z"/>
      <path class="cls-3" d="M71.99,117.76c-.11-.92-.69-3-.09-3.8,1.32-1.03.72-2.27,1-3.91.36-2.08,2.53-3.7,2.23-6.32-.59-5.11-7.26,1.92-6.51-3.52-.08.56,5.36-3.31,7.03-1.01,1.42-1.67,1.79-4.36,1.67-6.36l1.83-1c.06,2.58-4.16,23.69-7.17,25.92Z"/>
      <path class="cls-9" d="M222.15,27.16c.58.36,1.52.25,2,.87s1.26.8,2.02.82c.3,0,.88.02,1.12.18-.88,2.11-.67,4.72-2.37,7.01-2.97-.41-7.35-2.26-9.66.16-1.72,1.8-1.38,4.09-3.83,4.61s-4.14-1.01-6.39-1.25c-3.71-.41-4.44,5.04-3.73,8.09l-6.75.67c-2.04.2-3.55,1.08-5.35.57-.07-.15-.18-.54-.39-1.37-7.86.43-16.38,1.81-23.5-1.48,4.04-4.95,15.64-2.24,18.69-1.9-.77-.09,10.24-1.78,9.19-7.04-.68-3.43,2.2-4.53,3.1-6.8s2.95-8.17,6.3-6.56c3.11,1.49,5.6,2.28,9.4,2.76,2.63.33,5.11,3.89,8.14,3.77,1.08-.04,1.56-2.24,2.01-3.12Z"/>
      <path class="cls-6" d="M170.93,15.33c.02,2.02.14,5.38-1.5,7.27-2.04,2.35-6.22.15-8.28,2.3-2.72.2-5.42.13-8-.86-.93-1.99,2.65-.61,3.94-1.1,3.37-5.1,7.65-11.15,13.85-7.61Z"/>
      <path class="cls-8" d="M165.15,26.01c1.87-.24,3.43.06,4.94,1.07-.27.79-.61,2.48-2.04,2.73l-10.78,1.81c-1.44.24-3.03-.22-4.32-.8-1.1-.5-1.1-2.55-1.8-3.79.66-2.26,13.11,2.19,14-1.03Z"/>
      <path class="cls-3" d="M161.15,24.91c1.27-.09,2.66,1.28,4,1.1-.89,3.22-13.33-1.23-14,1.03-.15-.26.09-.7,0-1,.62-.6,1.55-1.28,2-1.99,2.58.99,5.28,1.06,8,.86Z"/>
      <path class="cls-7" d="M158.09,43.02c-1.17.78-1.87.15-2.22-.52-.67-1.25-.83-2.53-.53-3.41.94,0,1.88.43,2.29,1.08.61.97.59,1.94.46,2.85Z"/>
      <path class="cls-11" d="M168.28,92.75l.06,1.26c-6.48,2.66-3.44,3.29-9.21,7.94-2.76-.55-4.42,2.06-6.84,2.99-1.51.58-3.07.75-4.18,2.91,2.75,1.08,2.96,3.4,3.39,5.93,1.26,7.41,3.94,14.04,6.25,20.66-.42.54-.12.97.04,1.48-4,2.06-12.97-20.96-14.81-25.17-2.01.68-2.77,2.03-3.58,1.22-1.36-1.36-1.53-2.85-1.2-3.67.56-1.41,2.49-1.31,4.02-1.62,1.75-.35.98-3.7.48-4.89-.78-1.84-12.43-4.1-15.12-4.31-1.85-.14-4.02,2.46-5.53.36,1.38-.11,1.15-1.25-.16-.7-2,.02-4.63.41-5.93-1.34,2.72-2.19,7.86.28,10.64-1.62,1.53-1.04,1.65-6.19,5.33-4.79.59.22,1.16,1.92,1.86,2.12.97.28,1.65-1.31,2.61-1.5l9.71-1.91c3.1-.61,6.34,2.95,9.77,1.3,1.48-.71,2.88-3.44,5.11-2.24,2.83,1.52,5.05,3.81,7.28,5.58Z"/>
      <path class="cls-5" d="M161.27,59.86c.36.97.45,1.92.98,2.43,1.08,1.04,16.19-1.52,17.9-2.4,2.55-.52,6.57.34,9.17.16,1.74,2.99,5.44-.41,7.59.29,4.78,1.56,9.08-.49,13.14.03,5.2.66,9.53,2.64,15.19,1.87,1.92-.26,17.57,1.84,15.83,6.64-2.86,1.25-4.66,1.62-7.82,1.65.08-.27-.44-1.3-1.22-1.5l-11.89-3.09-16.88-.57-17.18,1.66c-1.38.13-20,4.66-19.92,6.62l-2.01.22c-.51-1.77-1.2-3.32-1.95-4.99-.81-1.8-.32-4.62-1.97-6.11l-1.08-6.85c.96,1.17,1.59,2.48,2.12,3.91Z"/>
      <path class="cls-10" d="M233.25,70.55c-5.14.04-9.92,3.73-15.07,2.14.08-.47,0-.87-.23-1.1-.34-.34-1.05-.58-1.8-.6l-8.89-.26c-11.51-.34-22.57.51-31.56,7.83l-7.48,1.43c-1.63-2.12-1.94-4.19-2.05-6.31-.08-1.97,18.55-6.49,19.92-6.62l17.18-1.66,16.88.57,11.89,3.09c.78.2,1.3,1.23,1.22,1.5Z"/>
      <path class="cls-2" d="M166.84,83.85c.49.5.59,1.29.92,1.89-9.13-.75-16.21-3.55-26.33-2.29-2.6.32-4.4,3.24-6.64,4.04-.38-1.67-.32-3.82-1.02-4.45-.52-.47-2.09.65-2.84.95-.68.28-.47,1.51-.4,3.33-5.33-1.49-1.38,1.92-13.42,3.93l-3.81-1.51c-.35-3.29-1.09-7.05,3.04-8.88,1.52.97,1.69,2.7,2.88,4.29,3-1.34,5.94-1.42,8.88-2.22,1.37-.37.48-3.23,1.28-4.04,1.8-1.8,5.57-.29,6.27,3.06,4.73-5.92,7.31-2.56,9.45-2.65,2.66-.12,5.35-.66,6.81,2.34.57-.06.95-.87.86-1.11s-1.64-.65-1.56-.9c1.5-4.66,12.83,1.35,15.61,4.2Z"/>
      <path class="cls-1" d="M159.99,103.79c-.34-.59-.63-1.21-.86-1.85,5.77-4.65,2.73-5.28,9.21-7.94,2.85.92,4.04-1.84,5.9-2.96,4.22-2.55,8.78-4.35,14.17-5.98-6.86,6.31-20.57,15.06-28.42,18.73Z"/>
      <path class="cls-11" d="M198.14,55.93c6.17,5.51,11.49-4.17,16.81,3.53,4.47-3.54,14.14-1.04,21.07-2.21,3.22,6.52,8.47,4.42,14.13,6.58-.53,4.7-5.85,3.66-9.08,5.07,1.74-4.81-13.9-6.9-15.83-6.64-5.66.76-9.99-1.22-15.19-1.87-4.06-.51-8.36,1.53-13.14-.03-2.15-.7-5.86,2.69-7.59-.29,1.57-2.82,5.85-.52,6.98-4.04.61-.08,1.23-.11,1.84-.09Z"/>
      <path class="cls-5" d="M40.05,87.03c-8.06,10.35-5.52,3.63-16.86,11.67-1.24.42-3.62-.56-4.84.73-5.68,6.02,8.42,9.19,9.3,18.26.28,2.85-2.97,5.97-.92,9.56,1.59,2.79-.62,6.55.07,9.43.56,2.34.63,4.58.89,6.87.6,5.21,11.25,6.3,10.34,12.78-1.3,0-2.72-.1-4,0,.22-.91.1-1.96-.48-2.39-3.05-2.22-6.76,1.09-8.29-1.04-2.43-3.4-4.95-17.97-4.89-21.12l.22-10.52-4.11-8.86c-1.46-3.14-2.92-5.71-6.56-6.53.8-3.22,3.23-4.35,4.07-6.71,6.49-3.27,13.72-12.94,21.06-17.28,2.52.66,4.05,2.9,5.01,5.15Z"/>
      <path class="cls-10" d="M13.99,99.15c-.84,2.35-3.27,3.49-4.07,6.71,3.64.81,5.11,3.38,6.56,6.53l4.11,8.86-.22,10.52c-.07,3.15,2.45,17.72,4.89,21.12,1.53,2.13,5.24-1.18,8.29,1.04.58.43.7,1.48.48,2.39-6.11.43-14.27,2.3-16.07-2.81-6.11-17.33-10.38-33.73-15.66-50.64l.07-.86c2.15-.36,4.84.35,7.05-1.05,1.6-1.01,2.81-2.43,4.58-1.8Z"/>
      <path class="cls-11" d="M23.19,98.7c.56,1.78-1.45,3.38-1.95,4.98,2.11,3.18,7.18,4.65,10.62,2.52-.45,4.08,1.83,4.8,3.7,6.39,2.44,2.06-1.68,5.34-1.87,7.53-.2,2.34,3.17,4.88.77,7.15-.64.61-2.04.94-2.85,1.36-.95.5,2.85,9.48,2.83,8.28.08,4.82,1.71,7.88,5.29,11.46,1.66,1.82,1.2,5.89,2.34,8.11-1.25-.22-2.79-.15-4.07-.16.91-6.48-9.74-7.57-10.34-12.78-.26-2.29-.33-4.52-.89-6.87-.69-2.88,1.52-6.64-.07-9.43-2.05-3.59,1.2-6.72.92-9.56-.88-9.07-14.98-12.23-9.3-18.26,1.22-1.29,3.6-.31,4.84-.73Z"/>
      <path class="cls-11" d="M27.48,14.85c.99.15,2.31-.12,2.91.44.68.63,1.04,2.63.84,3.78l-1.7,9.68-2.01,8.87c-.82,3.61-3.09,6.15-2.72,10.24-4.9,3.97-7.47,10.82-9.62,10.2-1.07-1.36-2.9-2.4-4.21-3.54-.07-.49-.07-.99-.01-1.48.29-1.03-.26-2.27.8-3.14.77,1.42.82,3.7,2.25,3.84,8.96-6.1,4.7-9.1,8.94-24.08.5-1.76,0-3.75-1.07-4.81-.88-.86-2.39-.9-3.6-1.03,8.45-7.08,4.11-5.8,9.21-9Z"/>
      <path class="cls-14" d="M35.03,80.88v.99c-7.33,4.34-14.56,14.01-21.04,17.28-1.76-.62-2.97.79-4.58,1.8-2.21,1.39-4.9.69-7.05,1.05-.39.07-.81-.2-1.21-.2-.56-1.5.42-3.04,1.16-4.1,1.63-.44,2.79.92,3.12,2.9,3.47-1.52,5.05-5.28,7.71-7.42,3.32-2.67,11.4-11.52,11.2-16.44-.08-1.95,1.15-3.59,2.92-3.67l7.77,7.8Z"/>
      <path class="cls-5" d="M10.95,53.06c-1.75-1.96,1.61-15.78,2.36-22.43.42-3.72,2.86-5.02,4.95-6.78,1.22.13,2.72.17,3.6,1.03,1.08,1.05,1.57,3.05,1.07,4.81-4.24,14.97.01,17.97-8.94,24.08-1.43-.15-1.48-2.43-2.25-3.84-1.06.87-.51,2.11-.8,3.14Z"/>
      <path class="cls-15" d="M186.15,109.78c-2.2.53-1.33-2.73-2.16-3.77-3.75-4.69-9.64-2.08-13.18,1.41-3.85,3.79-9.87,4.95-14.63,5.43-1.82-2.64-.28-4.51,2.88-6.41,8.57-5.13,17.53-11.04,25.83-16.74.8-.55,3.52-3.58,3.49-.97-.08,7.33-1.62,14.31-2.23,21.04Z"/>
      <path class="cls-12" d="M235.15,33.01c-.27,3.81-1,2.62-1.34,1.01-1.54-1.09.05-1.16,1.34-1.01Z"/>
      <path class="cls-7" d="M226.17,28.85c-.77-.01-1.53-.18-2.02-.82.78-.09,1.77-.07,2.02.82Z"/>
      <path class="cls-13" d="M17.3,60.84c-1.15-.85-1.32-1.74-2.12-2.76,2.15.62,4.72-6.23,9.62-10.2-.38-4.09,1.9-6.63,2.72-10.24l2.01-8.87,1.7-9.68c.2-1.15-.16-3.15-.84-3.78-.59-.55-1.92-.28-2.91-.44,1.62-3.63,5.74-6.14,8.83-8.51.68.4,1.73.58,2.17,1.04,1.22,1.27-1.72,4.81-.79,6.95.33.75,1.4.54,2.81,1.8-4.59,2.07-3.49,5.94-3.81,9.59-.17,1.89-3.31,3.57-2.14,5.95,2.17,4.42,2.71,10.67-1.87,13.89-2.1,1.47-4.99,2-6.13,4.98-2.12,5.58-5.19,4.19-9.25,10.29Z"/>
      <path class="cls-16" d="M160.23,62.8c1.65,1.49,1.16,4.31,1.97,6.11-3.24-1.45-6.19,2.21-8.91,2.16-3.18-.06-6.12.25-8.8,1.1-1.13.16-3.12-1.03-4.89-.12-2.2.4-6.13-2.85-6.54-5.1.88-.44,2.04.04,2.9-1.05-.65-1.11-2.76-.67-2.2-2.65,3.65,1.88,6.27,1.82,8.56-.75,3.37,6.73,8.52-1.6,14.58.29-.37-1.65-1.69-2.86.54-3.87.16,2.42,1.17,3.41,2.79,3.87Z"/>
      <path class="cls-7" d="M92.26,76.72c1.67.85,1.11,2.23-.47,2.31-2.53-.19-2.23-2.48.47-2.31Z"/>
      <path class="cls-9" d="M61.68,47.19c-.91.12-1.3.33-2,.56-.75.24-.52-.29-1.45-2.41,1.12-.48,2.71.88,3.45,1.85Z"/>
      <path class="cls-16" d="M58.15,68.91c.25-.38.56-.71.92-1,.03.37-.59.97-.92,1Z"/>
      <circle class="cls-2" cx="47.15" cy="65.42" r=".63"/>
      <path class="cls-8" d="M83.15,81.87c-2.93.56-1.51,5.7-4.04,7.98.49-2.12-.45-3.97-2.44-6.22,1.35-1.32,1.88.43,3.3.33.36-2.52.91-4.04,2.53-5.09.07,1.03.42,2.01.65,3Z"/>
      <path class="cls-8" d="M45.05,90.99c-.48-.17-.83-.57-.99-1.04.33.25.84.66.99,1.04Z"/>
      <path class="cls-11" d="M113.15,95.69c-2.24,1.37-6.04,1.07-7.87-.15-.93-2.91,7.4-.65,7.87.15Z"/>
      <circle class="cls-8" cx="144.65" cy="39" r=".63"/>
      <path class="cls-11" d="M180.15,59.9c-1.71.88-16.82,3.43-17.9,2.4-.53-.51-.62-1.46-.98-2.43,8.18-.47,12.79-3.59,18.88.04Z"/>
      <path class="cls-9" d="M161.82,144.25c-.54-.47-1.44-.95-1.73-1.71-.07-1.53-.36-3.29-1.97-3.84-.03-.92-.05-1.9-.33-2.79-.16-.51-.46-.94-.04-1.48.47-.6.57-.53,1.12-.11,2.89,2.21,2.54,6.52,2.95,9.93Z"/>
      <path class="cls-11" d="M160.08,142.53c-1.22.03-3.02-.18-3.58-1.38-.5-1.08.64-2.21,1.61-2.45,1.61.54,1.9,2.31,1.97,3.84Z"/>
      <path class="cls-13" d="M122.05,97.83c-.35-.23-.58-.3-.16-.7,1.31-.56,1.54.59.16.7Z"/>
      <path class="cls-6" d="M153.24,107.65c.58,5.19,2.82,10.06,3.92,15.1.82,3.76,1.52,7.75,1.72,11.57-.55-.42-.65-.49-1.12.11-2.3-6.62-4.98-13.25-6.25-20.66-.43-2.53-.63-4.85-3.39-5.93,1.1-2.16,2.66-2.33,4.18-2.91-.11.63-1.03,1.53-.8,2.22.22.65,1.41.45,1.75.5Z"/>
      <path class="cls-3" d="M159.13,101.94c.23.64.52,1.26.86,1.85-1.08,2.71-4.23,2.92-6.76,3.85-.34-.05-1.53.15-1.75-.5-.23-.69.69-1.59.8-2.22,2.43-.93,4.08-3.53,6.84-2.99Z"/>
      <circle class="cls-2" cx="39.65" cy="40.49" r=".5"/>
      <circle class="cls-2" cx="40.65" cy="53.45" r=".5"/>
    </g>
  </g>
</svg>