<?xml version="1.0" encoding="UTF-8"?>
<svg id="Layer_2" data-name="Layer 2" xmlns="http://www.w3.org/2000/svg" viewBox="0 0 345.14 333.39">
  <defs>
    <style>
      .cls-1 {
        fill: #c7521d;
      }

      .cls-2 {
        fill: #030304;
      }

      .cls-3 {
        fill: #b14318;
      }

      .cls-4 {
        fill: #351008;
      }

      .cls-5 {
        fill: #913312;
      }

      .cls-6 {
        fill: #a03b16;
      }

      .cls-7 {
        fill: #732b13;
      }

      .cls-8 {
        fill: #c14e19;
      }

      .cls-9 {
        fill: #42150a;
      }

      .cls-10 {
        fill: #64210c;
      }

      .cls-11 {
        fill: #561c0b;
      }

      .cls-12 {
        fill: #873013;
      }

      .cls-13 {
        fill: #e1752a;
      }

      .cls-14 {
        fill: #6c240e;
      }

      .cls-15 {
        fill: #d25c20;
      }

      .cls-16 {
        fill: #280b07;
      }
    </style>
  </defs>
  <g id="Layer_1-2" data-name="Layer 1">
    <g>
      <path class="cls-2" d="M286.55,292.62c-34.93,30.01-80.01,43.35-125.18,40.35-47.49-3.15-89.93-24.05-121.35-59.62C-14.89,211.2-12.57,117.67,42.54,56.76,71.63,24.61,111.59,3.87,155.18.71c39.58-2.87,69.94,2.76,104.44,21.82,16.99,9.39,33.24,23.46,45.83,38.08,21.54,25.04,34.47,55,39,87.63.93,6.69.45,12.78.65,19.64.87,30.96-8.52,60.61-25.04,86.7-9.28,14.67-20.05,26.49-33.5,38.04ZM88.96,93.03c-.58.65-1.41,1.37-2.16,1.82-2.68,1.62-4.15,4.69-7,6.14-1.22.62-1.41.87-2.13,1.98-1.11,1.71-11.48,6.73-12.19,11.64-.27,1.9-.8,3.55-1.03,5.46l-2.72,22.83-5.78,31.91-1.87,11.89c-1,6.36,1.47,13.01,3.87,19.03,0,1.4,4.1,14.16,4,13.96,1,1.96.62,4.71,2.67,6.01.02,2.5.88,4.83,2.15,6.96.54.9.56,2.11,1.18,2.99.38.54.38,1.33.9,1.81-.04,1.25.3,4.89,2.42,4.92l21.68.25c.48,0,.91-.59,1-1,.29,0,.74-.12,1,0,4.32,1.98,9.3.66,14,1,2.81.2,5.69-.11,9-.03-1.94-4.69-6.13-6.4-10.05-8.92-1.81-1.16-2.94-3.05-5.25-3.87-1.1-.39-.61-2.32-.71-3.06,1.78-2.45,4.55-5,5.29-8.05,3.56-4.42,7.24-8.85,9.9-13.87,1.56-.81,2.8-2.26,2.81-4.08,3.57-1.79,3.2-5.76,4-8.98.9-3.59,2.43-7.22,3-10.97h1v3.03c-1.96.97-.24,3.75-.99,5.02-1.43,2.43-1.53,5.19-2.06,7.94-.38,1.95-2.44,3.58-2.58,6.01-.09,1.59,2.01,2.49,2.44,3.96,1.56,5.23,3.74,9.67,6.09,14.04.64,1.19,1.54,3.5,1.98,4.77,1.41,4.07,2.38,8.5,5.04,12.02.38.5.48,1.65,1.01,2.1.63.53.6,2.89,2.13,2.88l40.04-.03c-1.1-1.19-2.79-1.93-4.11-1.92-.34-.32-.71-.63-1-1l-.9-1.12c-2.55-3.17-6.24-5.82-10.11-7.1-1.55-2.84.43-5.8,1.07-8.74.74-3.38,2.08-6.83,1.95-10.7-6.57.76-20.72,1.4-26.27.04-2.67-.66-6.39-4.01-8.82-4.19l2.08-.1c15.29-.73,30.55-6.23,45.87-9.11l2.22.06c.2.36.98.56,1.06.96.15.73.82,1.49.86,2.22-3.91-1.46,4.93,10.76,4.99,10.85.65,3.85,3.32,6.95,5.3,10.7.78,1.48.68,3.79,2.7,3.27l-.07,1.99c2.18,4.88,5.16,9.49,8.07,13.96h3l39.5-.08c-1.9-3.18-5.05-3.81-7.24-5.73-.41-.36-.93-.75-1.26-1.17-.5-.64-1.03-1.26-1.93-1.25-.39-.86-1.13-1.49-2.04-1.76-.49-.65-1.24-1.01-2.04-1.12-.87-1.45-2.32-2.41-3.91-2.94-.81-1.8-.48-4.41.03-6.75,1.64-7.6,2.03-14.94,3.1-22.1.53-3.58,2.22-7.18,2.04-10.97-.05-1.03,1.76-2.05.4-4.13-4.8,3.59-11.17,3.01-16.57,5.3-6.6,2.8-12.66,5.96-20.35,5.13,1.56,6.31,2.07,11.46,4.43,15.83-.83,1.61.69,3.5.83,4.78.67,5.87,3.17,13.07,1,14-2.26-11.06-4.58-22.15-8-32.91.83-.69.9-2.37,2.12-2.83.4-.15.55-.88.88-1.15.41-.17.67-.76,1.09-.88,1.74-.53,3.07-1.82,4.65-2.71-.33,2.52,1.96,2.55,3.77,2.62,5.24.21,1.2-4.04,9.1-5.36,6.63-1.11,12.44-2.69,18.64-5.43.7-4.98,2.15-9.63,1.6-14.19.07-1.03,1.71-1.32,2.18-1.67l16-5.43c2.59-.88,5.45.2,7.91-2.11,1.26.45,2.56.31,3.86.3l3.21-.03c5.64-.35,17.33-3.42,20.09-7.98l3.62-5.98c.81-1.33,2.59-2.07,3.38-4.1-1.38-2.45-3.88-3.77-6.4-3.8-.66-.61-1.7-1.93-2.69-1.9-3.32-2.21-13.2-9.13-16.75-8.08-.15-.63.05-1.5-.23-2.08l1.5-5.47c-6.08-2.67-11.61-5.69-17.53-7.6-1.86-.6-4.13-.01-6.17-1.73-1.74-1.46-4.05-1.6-5.86-2.01-1.02-2.56-6.24-1.92-8.84-5.28-1.99-2.57-4.83-6.02-8.87-4.34-2,.83-3.17,3.16-5.26,3.3-.02-.65-1.01-.84-1.96-.84l-15.04.03-29.99-.32c-3.59-.04-6.6,0-10.12-.35-8.83-.9-17.57.14-26.31-1.84-16.76-9.95-25.26-5.69-39.57-8.46-4.05-.78-8.39.08-10,3.99Z"/>
      <g>
        <path class="cls-13" d="M204.96,100.01c-2.43,1.78,16.99.82,17,.82,2.09-.15,3.26-2.47,5.26-3.3,4.03-1.68,6.88,1.77,8.87,4.34.18,2.8-2.56,1.67-10.27,3.36-1.02.22-2.29-1.35-3.3-.96-1.07.41-1.09,2.98-2,3.25-6.32,1.92-22.28-.68-30.82-1.68-.05,2.71,2.04,2.46,3.23,3.17.07.46,0,1.46.73,1.05l.67,2.17c1.4,4.54,2.73,9.27,4.64,13.66.24,2.03.61,4.03.99,6.04.26,1.38.7,2.74,1.08,4.09-1.96-1.33-5.72.23-7.48-1.48-1.64-1.6-1-5.56-3.12-6.43-.67.59-1.29,1.7-1.76,1.79s-1.79-.57-1.48-1.29c.2-.46,1.97-.79,1.98-1.99-8.6-2.6,1.44-3.79-14.15-2.03.96-1.05,2.86-2.18,1.96-3.33-3.34-4.28-7.21-8.94-11.48-8.51-1.1.11-1.45,1.56-2.53,2.75-2.28-1.82.95-2.75,1.34-4.5-2.38-1.92-6.6-1.01-9.22-.49-3.88.76-3.63-2.52-5.2-4.62-3.46-4.62-14.08-3.4-19.19-5.51.48-1.4,2.46-2.02,2.46-2.85-.03-2.78-11.12-5.54-13.12-4.29-1.64-1.43-4.12-1.13-6.1-1.45-2.72-.45-5.14-.52-7.89-.51l-6.81.05c-.2-.72-.12-1.52-.27-2.25,14.31,2.77,22.81-1.49,39.57,8.46,8.74,1.98,17.48.94,26.31,1.84,3.52.36,6.53.31,10.12.35l29.99.32Z"/>
        <path class="cls-7" d="M74.03,154.53c-3.55-3.41-8.02-6.69-10.05-11.78.38-2.29-1.33-2-1.02.14h-1.22l2.72-22.83c.23-1.91.75-3.56,1.03-5.46.71-4.91,11.08-9.93,12.19-11.64l12.49,6.61c-1.22,1.65-2.67,1.51-3,2.32-1.51,3.64,1.67,5.91,1.22,6.27l-1.52,1.22-1.1,10.54c-.38,3.67,1.66,4.2,3.39,6.12,1.03,1.14.67,4.39,3.22,5.4-2.08.2-3.09,2.35-4.14,3.98-1.14,1.77-3.41,2.11-4.1,4.86-.53,2.1-4.2,1.74-6.07,1.72-.08.64,2.05,1.78,1.78,2.05-.54.54-1.54.97-2.3,1.37-1.54.82-2.37-2.28-3.51-.91ZM85.08,122.09c0-.54-.44-.98-.98-.98s-.98.44-.98.98.44.98.98.98.98-.44.98-.98Z"/>
        <path class="cls-14" d="M84.11,193.66c3.94,8.16,12.51,6.42,12.22,15.8-.03.96,1.48,1.8,1.27,2.65s-1.54,1.8-1.42,2.68c.13,1.02,2.5,1.13,2.39,2.26-.08.82-1.09,2.52-.55,3.15l5.85,1.5c-1.1,1.58-2.12,3.52-1.91,5.04.1.75-.4,2.67.71,3.06,2.3.82,3.44,2.71,5.25,3.87,3.92,2.52,8.11,4.23,10.05,8.92-3.31-.07-6.19.24-9,.03.33-2.3-9.46.28-12-1.99-.05-.5.17-1.08,0-1.49-.23-.53-.87-.75-1.47-.51-.74.3-.57,1.26-.52,2v1c-.26-.12-.71,0-1,0-.54.02-.97.47-1,1l-21.68-.25c-2.12-.02-2.46-3.66-2.42-4.92l2.48,3.74,11.39-1.11c-2.21-3.46-6.98-1.33-8.77-3.28-3.01-3.3.07-7.95,2.12-10.74.85-1.17-.39-3.63,1.29-4.79,2.97-2.05,1.56-5.53,1.82-8.43,1.49-2.08,7.12-1.32,8.33-4.53.74-1.97-.5-4.93-1.48-6.64-1.39-2.4-3.85-2.39-6.39-.97-1.01-2.62-1.31-5.28-.87-7.77l.36-2.02c1.15,1.03,3.43,2.59,4.96,2.75ZM84.17,238.84c-.88,1.22.24,2.13,1.27,1.81.39-.12,1.14.3,1.51-.53.32-.72-.14-1.52-.57-1.47-.56.06-1.82-.33-2.2.2Z"/>
        <path class="cls-12" d="M96.96,109.18c1.04,3.68.87,7.55-.15,11.71l3.94,2.96c-1.02,3.98-.74,8.37,2.88,9.85.55,2.57,1.15,5.05,1.54,8.5,2.35-.09,2.98-5.16,6.49-3.32,3.08,1.62-3.51,4.47,1.1,7.91-1.09.83-1.39.2-1.71.24-2.33.28,1.72,2.93-.98,4.25-.43.21-.97-.42-1.73-.54-2.43.06-4.06-.04-7.01-2.01.26,2-.06,3.27-.85,4.29-1.4,1.82-3.05,1.92-5.27,2.12-.52,2.12.97,3.46.58,6.46-2.3-1.03-3.32-2.21-4.71-1.17-2.19,1.64-4.58,1.93-4.23,4.47-.87-.74-3.01-.57-3.93-.1l-.88-.16-4.15-4.6c-1.4-1.55-2.25-3.96-3.86-5.5,1.15-1.37,1.98,1.73,3.51.91.76-.41,1.75-.84,2.3-1.37.27-.27-1.86-1.4-1.78-2.05,1.87.02,5.54.38,6.07-1.72.7-2.75,2.97-3.09,4.1-4.86,1.05-1.64,2.07-3.79,4.14-3.98-2.55-1.01-2.19-4.26-3.22-5.4-1.73-1.93-3.77-2.45-3.39-6.12l1.1-10.54,1.52-1.22c.44-.36-2.74-2.63-1.22-6.27.33-.81,1.78-.67,3-2.32l-12.49-6.61c.72-1.1.91-1.35,2.13-1.98,13.42-.67,2.33.44,15.86,3.15.19,1.75.95,3.82,1.3,5.04Z"/>
        <path class="cls-8" d="M256.96,110.88c-1.13,3.36,9.33,3.35,14.61,9.55.53,1.37.94,2.5,1.41,3.51.27.58.08,1.45.23,2.08.12.51-.14,1.09-.08,1.62-1.75.41-2.38-1.25-2.58-3.25-1.64.62-3.11.54-4.6.55h-1.99c.26-1.67.36-3.49-1.86-4.3-5.87-2.16-11.54-6.65-18.13-6.57-5.67.07-9.19,5.71-12.18,9.54-12.01-.19-6.1,5.2-13.73,4.56-1.21-.1-3.08,1.43-2.42,2.39-2.84-.17-5.83-1.39-9.29-.93s-6.19-1-7.39-3.73c-1.92-4.38-3.25-9.12-4.64-13.66,1.76-.26,3.86,2.28,5.54,2.53,7.41-3.09,15.16-2.11,22.71-2.6,3.2-.21,5.57.87,8.38,1.16-1.45-.15,13.95-4.14,13.78-4.02.5-.33.24-1.51.19-2.15,1.81.41,4.13.54,5.86,2.01,2.04,1.72,4.3,1.13,6.17,1.73Z"/>
        <path class="cls-10" d="M89.76,170.74c.41.26.73.84,1.08,1.19.27.27.68.64.86.96.24.43.06,1.07.27,1.53-3.4-.72-5.86,1.65-9.05,3.26-1.36.69-3.51-.33-4.63.83-.72.75-1.09,2.22-1.68,3.83-1.64-.38-3.3-.27-4.34-1.29,1.74,2.38.13,4.44-.04,6.37-.21,2.4,2.39,1.51,3.56,2.06,1.49.7,1.08,3.75,3.01,3.45-.44,2.49-.14,5.16.87,7.77,2.54-1.42,5-1.43,6.39.97.98,1.7,2.23,4.67,1.48,6.64-1.21,3.21-6.84,2.45-8.33,4.53-.26,2.9,1.15,6.38-1.82,8.43-1.68,1.16-.44,3.62-1.29,4.79-2.05,2.79-5.13,7.44-2.12,10.74,1.79,1.96,6.56-.17,8.77,3.28l-11.39,1.11-2.48-3.74c-.52-.48-.52-1.27-.9-1.81,1.55-.03.63-1.24.22-1.77-.48-.62-.85-1.02-1.4-1.23-1.27-2.12-2.13-4.45-2.15-6.96,2.35.27,2.68-2.13,3.78-3.44,3.96-4.77,3.32-9.6,4.47-15.14,1.17-5.62,1.73-12.74-5.06-15.28l-12.33,2.3c1.11,4.43,2.07,7.2,2.47,10.6v1c-2.4-6.02-4.87-12.67-3.87-19.03,3.17,6.52,13.59-3.57,16.54-8.51,6.29-1.98,11.13-4.7,16.48-8.55.87.37,1.85.59,2.65,1.11Z"/>
        <path class="cls-16" d="M132.88,207.82c2.43.18,6.15,3.54,8.82,4.19,5.55,1.36,19.7.73,26.27-.04.13,3.87-1.22,7.32-1.95,10.7-2.2-.04-1.77,4.13-3.17,4.63-3.99,1.42-8.1-2.63-11.85-2.67-6.12-.07-15.7-.5-20.13-3.83-2.36-4.37-4.54-8.81-6.09-14.04-.44-1.48-2.53-2.38-2.44-3.96.14-2.43,2.2-4.06,2.58-6.01,4.45.62,5.84,5.77,4.26,10.24.23,1.22,2.76.71,3.72.78Z"/>
        <path class="cls-9" d="M230.05,228.57c.49,1.09.14,4.3-1.31,4.51-4.22.63-13.43,1.61-12.59,7.3-.66,0-6.7.13-7.15.8-.24.35-.05,1.03-.04,1.45h-3c.25-.71.78-1.4.89-2.16.35-2.53-.45-5.54-1.89-7.82v-2.99c2.17-.93-.33-8.13-1-14l25.86.04,1.81-13.28c.18-1.29.59-2.37,1.54-2.71-1.07,7.17-1.46,14.5-3.1,22.1-.51,2.35-.83,4.95-.03,6.75Z"/>
        <path class="cls-3" d="M263.96,124.94c-.13.8.6,1.3,1.47,1,.34-.12.67-.49.52-1.01,1.49,0,2.96.08,4.6-.55.19,2,.83,3.66,2.58,3.25.27-.06.59.16.87.13.91,5.39,4.86,10.16,9.75,13.34,6.08,3.95,3.24,8.77,7.22,8.77h1.09c-2.76,4.56-14.45,7.63-20.09,7.98.3-2.78,3.52-1.61,5-2.99.52-.14,1.44.05,2,0,.79-.07,1.79-.05,2-1,1.85.4,4.13.6,4.89-1.88.88-2.89-6.45-7.19-7.31-8.59-3.69-6.01-9.53-9.52-14.61-12.44-1.48-.85-.63-5.2-3.67-5.93-1.47-.36-3.87-.16-5.85-.75-2.34-.71-4.13-3.59-7.41-1.98-4.38,2.15-9.55,5.87-14.65,5.73-9.83-.27,1.46,3.62-16.71,2.52-.66-.96,1.22-2.49,2.42-2.39,7.63.63,1.72-4.76,13.73-4.56,2.98-3.83,6.5-9.47,12.18-9.54,6.58-.08,12.26,4.42,18.13,6.57,2.22.82,2.12,2.63,1.86,4.32Z"/>
        <path class="cls-14" d="M212.68,178.04c.09.99.25,1.97.46,2.93-2.09,2.24-3.95,4.7-6.19,6.8-.43.4-.76,1.11-1.27,1.39-1.58.89-2.9,2.18-4.65,2.71-.43.21-.73.58-1.09.88-.32.28-.48,1-.88,1.15-3.36-.56-6.74,1.14-8.49,4.36l-3.5,6.46c-1.39-.41-2.04-1.53-2.13-2.88-.05-.73-.71-1.49-.86-2.22.55-.31,3.23-1.69,2.65-2.83-1.77-3.5-4.76-6.76-7.96-8.99l-5.76,1.07c-4.28.8-8.78-2.34-13.07-2.26-1.14-.87-3.08-1-2.96-2.73,7.92-.95,18.68,2.5,25.36,1.47,2.79-.43,4.68-2.62,7.71-.35,1.41,1.06,3.49-.88,5.01-.96,7.36-.42,4.85-4.94,9.55-6.18,2.21-.59-.93,2.9,8.06.17Z"/>
        <path class="cls-9" d="M140.74,204.55c-.23-1.81,1.82-4.08.69-6.05-1.2-2.1-4.85-1.26-6.26-2.99-2.42-2.99-4.38-6.45-8.21-6.66.75-1.27-.97-4.05.99-5.02.76.09,3.76-.39,4.17.56.96,3.63,3.13,4.68,5.9,6.48,2.34,1.52,3.72,3.68,6.44,3.72s4.58-1.84,7.13-3.23c2.39-1.3,5.32,1.53,7.94,1.05,7.06-1.28,14.76-1.34,20.57,4.37-7.2,2.42-13.54,2.51-20.1,4-6.63,1.51-12.94,3.17-19.28,3.76Z"/>
        <path class="cls-16" d="M235.22,188.74c-3.67,2.61.38,5.35-5.12,10.21-1.67,1.47-1.51,3.92-3.67,3.97-9.3.21-.84-5.42-12.85-1.68-11.13,3.46-6.99,9.25-10.45,9.64-2.37-4.37-2.88-9.52-4.43-15.83,7.69.83,13.76-2.32,20.35-5.13,5.4-2.29,11.76-1.71,16.57-5.3,1.37,2.07-.44,3.1-.4,4.13Z"/>
        <path class="cls-7" d="M203.02,136.12c.43,1.65.42,3.58,1.81,4.79-1.18,5.17,9.59,2.25,15.01,3.41,3.07.66,5.69.77,8.03-.9,1.93-.02,3.96,1.22,5.9.85,2.09,2.63,6.79,4.94,10.07,2.72s6.32-1.49,9.5-2.03c6.01-1.02,10.74-.19,15.4,4.18,1.36,1.27,2.95,2.57,2.23,5.08-.33,1.15-1.57,2.24-2.22,3.67-1.3.01-2.61.15-3.86-.3-.47-1.91-2.5-3.59-4.89-3.8-3.89-.35-7.27-2.07-11.1-2.62-5.7-.83-11.4.19-16.84-1.47s-11.22-1.82-17.25-.73c-2.56-2.19-5.54-2.54-8.53-2.09.08-.35-.13-.84-.3-1.44-.23-.83-.94-.49-1.19.41-1.09-1.85-1.83-3.88-2.57-5.89-.47-1.28-.82-2.63-1.18-3.94s-.82-2.71-1.08-4.09c2.03-.26,2.61,2.46,3.06,4.19Z"/>
        <path class="cls-11" d="M64.63,225.69c-2.04-1.3-1.67-4.04-2.67-6.01,2.87,2.67-3.1-16.43-4-14.96-.4-3.4-1.36-6.17-2.47-10.6l12.33-2.3c6.79,2.54,6.23,9.66,5.06,15.28-1.15,5.54-.52,10.38-4.47,15.14-1.09,1.32-1.43,3.71-3.78,3.44Z"/>
        <path class="cls-4" d="M233.18,199.71c-.95.34-1.36,1.42-1.54,2.71l-1.81,13.28-25.86-.04c-.15-1.28-1.66-3.18-.83-4.78,3.46-.39-.68-6.17,10.45-9.64,12.01-3.74,3.55,1.89,12.85,1.68,2.16-.05,2-2.5,3.67-3.97,5.51-4.86,1.45-7.6,5.12-10.21.17,3.79-1.51,7.39-2.04,10.97Z"/>
        <path class="cls-11" d="M159.95,186.62c4.3-.08,8.79,3.05,13.07,2.26l5.76-1.07c3.2,2.24,6.19,5.49,7.96,8.99.58,1.14-2.09,2.52-2.65,2.83-.08-.41-.86-.6-1.06-.96.03-.73.08-1.6-.59-1.94-.59-.3-1.18.05-1.33.54-.1.34-.22.78-.3,1.34-15.32,2.87-30.58,8.38-45.87,9.11-.02-2.53,3.58-2.96,5.78-3.17,6.33-.59,12.64-2.25,19.28-3.76,6.55-1.5,12.9-1.58,20.1-4-5.81-5.71-13.51-5.66-20.57-4.37-2.62.48-5.55-2.36-7.94-1.05-2.54,1.39-4.33,3.27-7.13,3.23s-4.1-2.2-6.44-3.72c-2.78-1.8-4.95-2.85-5.9-6.48-.41-.95-3.41-.47-4.17-.56v-3.03c.72-1.57,1.8-3.26,2.25-4.93,1.13-.09,2.24.36,2.81,1.31.47.79.39,1.84.29,2.92-.2,2.12,2.21,2.75,3.18,3.99,4.03,5.19,9.61,6.27,15.52,3.95,2.54-.99,6.02.62,7.94-1.42Z"/>
        <path class="cls-15" d="M244.93,107.14c.05.64.31,1.82-.19,2.15.18-.12-15.23,3.87-13.78,4.02-2.81-.29-5.18-1.36-8.38-1.16-7.55.48-15.31-.49-22.71,2.6-1.68-.25-3.78-2.79-5.54-2.53l-.67-2.17c1.89-.53.84-1.37-.73-1.05-1.19-.71-3.28-.45-3.23-3.17,8.54,1,24.5,3.6,30.82,1.68.91-.28.93-2.84,2-3.25,1.01-.39,2.28,1.18,3.3.96,7.72-1.68,10.45-.56,10.27-3.36,2.6,3.36,7.82,2.72,8.84,5.28Z"/>
        <path class="cls-9" d="M62.96,142.89l-1.82,10.04c-.75,4.17-.6,8.01-2.11,12.06-.8,2.14-.05,4.5,1.8,5.39,1.84.89,3.34-.16,5.11-1.51,10.49-8.01,5.66-11.72,11.95-8.85l4.15,4.6c-2.89,5.43-8.63,7.93-13.38,11.96-3.09,2.63-5.26,5.69-10.19,5.85-.62.02-1.26,2.17-2.07,1.34-2.05-2.09,2.36-7.55-.44-8.98l5.78-31.91h1.22Z"/>
        <path class="cls-16" d="M238.8,166.8c.55,4.56-.9,9.21-1.6,14.19-6.2,2.74-12.01,4.33-18.64,5.43-7.9,1.32-3.86,5.57-9.1,5.36-1.81-.07-4.1-.1-3.77-2.62.51-.29.84-.99,1.27-1.39,3.32-.27,5.9-3,7.95-5.92,1.77-2.51,4.66-3.45,5.79-5.89.97-1.49,2.6-2.31,4.36-2.38,3.11.33,5.32-1.39,6.56-3.86,1.15-2.28,5.07-2.41,7.17-2.93Z"/>
        <path class="cls-11" d="M206.28,146.87c-.39,1.7.58,3.11,1.85,4.11.22.71-.11,2.4.85,2.4,1.08,0,2.64.97,3.57.82,5.64-.9,9.86.21,15.05,1.8,2.23.68,20.39,3.98,17.36,6.2l-3.97,2.92c-.47.35-2.11.64-2.18,1.67-2.1.52-6.01.65-7.17,2.93-.47-.03-.95-.02-1.42.02,3.28-7.07-14.16-8.63-18.1-7.82-2.74-1.18-1.51-4.44-4.15-4.08l-3.17-12.01c.25-.91.96-1.24,1.19-.41.17.6.38,1.09.3,1.44Z"/>
        <path class="cls-7" d="M199.08,193.91c-1.23.46-1.29,2.15-2.12,2.83-1.99,1.65-.76,3.78-.02,6.25,2.71,9.04,4.99,24.83,8.02,29.65,1.43,2.28,2.24,5.28,1.89,7.82-2.62,1.93-7.68-14.92-8.96-11.81l.07-1.99c-2.33-4.76-5.09-9.5-8-13.96-.18-1.04-.48-2.07-1-2.99.68-.53,1.3-1.64.99-2.47s-1.38-.54-1.99-.52c-.22-.65-.94-1.2-.86-1.99l3.5-6.46c1.75-3.22,5.13-4.92,8.49-4.36Z"/>
        <path class="cls-9" d="M164.95,231.41c3.87,1.28,7.56,3.93,10.11,7.1.2.44.51.83.9,1.12.29.37.66.68,1,1l-32.03.04c-2.33,0-4.41-.02-6.04-.98-.53-.45-.63-1.59-1.01-2.1.74.21,1.46-.29,0,0-2.65-3.52-3.63-7.96-5.04-12.02.46-1.47,1.29-.54,1.46.7.7,1.68.89,3.65,1.9,4.75s2.82.41,4.27.97c9.91,3.81,14.54-.07,21.61,2.69.97.38,2.59-.09,2.76-.76.16-.61.44-1.9.1-2.52Z"/>
        <path class="cls-7" d="M97.93,199.92c2.3,1.34,2.32,4.59,4.75,6.47,3.67.49,7.33-.19,10.29,1.45-.6,4.2-4.71,6.67-5.73,10.84-.74,3.05-3.51,5.6-5.29,8.05-.2-1.52.82-3.45,1.91-5.04l-5.85-1.5c-.54-.63.47-2.32.55-3.15.11-1.13-2.26-1.24-2.39-2.26-.12-.89,1.21-1.82,1.42-2.68s-1.3-1.69-1.27-2.65c.29-9.38-8.28-7.64-12.22-15.8,13.51,1.43,6.63,9.39,13.82,6.26Z"/>
        <path class="cls-4" d="M166.02,222.68c-.64,2.94-2.62,5.9-1.07,8.74.33.61.05,1.91-.1,2.52-.17.67-1.79,1.14-2.76.76-7.07-2.76-11.7,1.12-21.61-2.69-1.45-.56-3.3.08-4.27-.97s-1.2-3.07-1.9-4.75c-.17-1.24-1.01-2.17-1.46-.7-.44-1.27-1.34-3.58-1.98-4.77,4.44,3.33,14.01,3.75,20.13,3.83,3.75.04,7.86,4.09,11.85,2.67,1.4-.5.98-4.67,3.17-4.63Z"/>
        <path class="cls-15" d="M126.96,180.79c-.57,3.75-2.1,7.38-3,10.97-.15-.99.6-2.56-.81-3.07-.72,4.06-.05,8.4-3.42,10.26-5.5-2.82-9.64-7.87-14.84-11.23-1.03-1.52-2.24-3.09-3.82-4.09l-1.06-2c2.31-.86,2.97,2.36,4.63,3.13,3.47,1.6,8.86.23,10.49-2.9,1.44-.09,2.66-.86,3.58-1.94.45,1.13.87,2.25,2.18,3.27.99.77,1.12-1.09,1.97-1.44,3.06-1.25,3.56-5.85,4.09-8.94h1c.22,2.55-.61,5.4-1,7.98ZM119.59,184.28c0-.35-.28-.63-.63-.63s-.63.28-.63.63.28.63.63.63.63-.28.63-.63ZM120.96,186.27c0-.28-.22-.5-.5-.5s-.5.22-.5.5.22.5.5.5.5-.22.5-.5Z"/>
        <path class="cls-14" d="M264.89,157.59c-2.46,2.32-5.32,1.23-7.91,2.11-.19-1.41-2.97-2.84-4.83-3.19l-23.25-4.35c-2.65-.5-5.05.19-7.84-.9-1.81-.71-4.65,1.72-6.69.15s-4.36-1.6-6.25-.42c-1.26-1.01-2.23-2.41-1.85-4.11,2.99-.45,5.97-.1,8.53,2.09,6.03-1.09,11.64-.98,17.25.73s11.15.64,16.84,1.47c3.83.55,7.21,2.27,11.1,2.62,2.39.21,4.42,1.89,4.89,3.8Z"/>
        <path class="cls-10" d="M256.98,159.7l-16,5.43,3.97-2.92c3.02-2.23-15.13-5.52-17.36-6.2-5.19-1.59-9.41-2.7-15.05-1.8-.93.15-2.48-.81-3.57-.82-.96,0-.63-1.69-.85-2.4,1.89-1.17,4.22-1.13,6.25.42s4.88-.87,6.69-.15c2.79,1.09,5.19.41,7.84.9l23.25,4.35c1.86.35,4.64,1.79,4.83,3.19Z"/>
        <path class="cls-12" d="M272.91,144.85c3.6.72,5.59,7.41,4.05,10.01-1.48,1.38-4.7.21-5,2.99l-3.21.03c.64-1.44,1.89-2.52,2.22-3.67.72-2.51-.88-3.81-2.23-5.08-4.66-4.37-9.39-5.2-15.4-4.18-3.19.54-6.27-.16-9.5,2.03s-7.98-.09-10.07-2.72c3.09-.59,6.23.4,9.47-1.07,5.15-2.34,11.77-1.95,17.7-.75l11.98,2.41Z"/>
        <path class="cls-11" d="M233.96,231.51c.45.75,1.11,1.24,2.04,1.12.91.27,1.65.89,2.04,1.76.26.85,1.04,1.38,1.93,1.25.33.42.85.81,1.26,1.17l2.31,3.85-27.38-.29c-.83-5.69,8.38-6.66,12.59-7.3,1.45-.22,1.79-3.42,1.31-4.51,1.59.53,3.04,1.49,3.91,2.94Z"/>
        <path class="cls-4" d="M140.74,204.55c-2.2.21-5.81.64-5.78,3.17l-2.08.1c-.95-.07-3.49.44-3.72-.78,1.58-4.47.19-9.62-4.26-10.24.53-2.76.63-5.52,2.06-7.94,3.82.21,5.78,3.68,8.21,6.66,1.41,1.74,5.05.9,6.26,2.99,1.13,1.97-.93,4.24-.69,6.05Z"/>
        <path class="cls-11" d="M87.11,169.63c-5.35,3.85-10.19,6.58-16.48,8.55-2.95,4.94-13.37,15.03-16.54,8.51l1.87-11.89c2.8,1.42-1.62,6.89.44,8.98.82.83,1.46-1.32,2.07-1.34,4.94-.16,7.1-3.23,10.19-5.85,4.75-4.03,10.49-6.53,13.38-11.96l.88.16,4.19,4.84Z"/>
        <path class="cls-6" d="M104.89,187.72c5.2,3.37,9.33,8.41,14.84,11.23-.03.6.24,1.2.23,1.79-1.42.72-2.13,2.78-2.81,4.08-2.66,5.02-6.35,9.45-9.9,13.87,1.02-4.17,5.13-6.64,5.73-10.84.89-.22,1.88-.77,1.88-1.7-.04-3.71-8.11-4.08-7.86-7.2.33-4.07-3.62-7.28-7.66-7.44.31-1.41,1.33-1.93,1.46-3.2.08-.8-1.61-1.02-1.08-3.05,2.06.83,3.79,1.56,5.18,2.46Z"/>
        <path class="cls-6" d="M99.23,91.29c.14.49.39.64-.08.99-.33.25-1.52.05-1.79.47-1.53,2.41,1.01,4.34,2.89,5.9,1.53,1.27.43,4.13.65,5.54-8.84-.08-1.17-2.66-14.09-9.34.75-.45,1.58-1.16,2.16-1.82,2.71-3.04,6.64-1.71,10.27-1.74Z"/>
        <path class="cls-14" d="M208.96,242.62c-.01-.42-.19-1.1.04-1.45.46-.67,6.49-.8,7.15-.8l27.38.29-2.31-3.85c2.2,1.93,5.34,2.55,7.24,5.73l-39.5.08Z"/>
        <path class="cls-11" d="M176.96,240.63c1.32,0,3.01.74,4.11,1.92l-40.04.03c-1.54,0-1.51-2.36-2.13-2.88,1.63.96,3.71.98,6.04.98l32.03-.04Z"/>
        <path class="cls-15" d="M289.96,134.1c1-.03,2.03,1.28,2.69,1.9-1.48,2.34,5.13,2.08,4.38,4.42-.49,1.52-3.57,3.57-1.35,3.48l-3.62,5.98h-1.09c4.39-5.91-6.9-11.81-5.07-16.95,1.11.97,2.78,1.58,4.07,1.18Z"/>
        <path class="cls-5" d="M100.9,104.19c.11.7.39,1.38,1,1.79-1.24,1.13-2.67,3.56-4.93,3.21-.34-1.22-1.11-3.29-1.3-5.04-13.53-2.72-2.44-3.82-15.86-3.15,2.85-1.45,4.32-4.53,7-6.14,12.92,6.68,5.26,9.26,14.09,9.34Z"/>
        <path class="cls-13" d="M272.99,123.94c-.48-1.01-.89-2.14-1.41-3.51-5.28-6.2-15.74-6.19-14.61-9.55,5.91,1.91,11.45,4.93,17.53,7.6l-1.5,5.47Z"/>
        <path class="cls-13" d="M289.96,134.1c-1.29.4-2.96-.2-4.07-1.18s-9.19-5.45-11.89-5.15c-.28.03-.6-.2-.87-.13-.06-.52.21-1.1.08-1.62,3.54-1.05,13.43,5.87,16.75,8.08Z"/>
        <path class="cls-1" d="M221.96,100.83s-19.43.96-17-.82l15.04-.03c.95,0,1.94.19,1.96.84Z"/>
        <path class="cls-4" d="M130.21,175.86c-.45,1.67-1.53,3.35-2.25,4.93h-1c.39-2.58,1.22-5.42,1-7.98.32-.42,1.28-1.37,1-1.99h1c-.1,1.56.61,3.57.25,5.05Z"/>
        <path class="cls-12" d="M96.96,240.63c2.54,2.27,12.33-.31,12,1.99-4.7-.34-9.68.98-14-1v-1c.59.15,1.48-.25,2,0Z"/>
        <path class="cls-13" d="M295.67,143.89c-2.22.09.86-1.96,1.35-3.48.76-2.34-5.86-2.08-4.38-4.42,2.53.03,5.02,1.34,6.4,3.8-.79,2.03-2.57,2.77-3.38,4.1Z"/>
        <path class="cls-1" d="M98.96,89.04c.15.73.06,1.53.27,2.25-3.63.02-7.56-1.3-10.27,1.74,1.61-3.91,5.95-4.77,10-3.99Z"/>
        <path class="cls-14" d="M61.96,219.68c.1.2-4-12.57-4-13.96v-1c.9-1.47,6.87,17.63,4,14.96Z"/>
        <path class="cls-13" d="M123.96,191.76c-.8,3.21-.43,7.18-4,8.98,0-.59-.27-1.19-.23-1.79,3.37-1.86,2.7-6.2,3.42-10.26,1.41.51.66,2.08.81,3.07Z"/>
        <path class="cls-5" d="M187.1,204.73c-.08.79.64,1.34.86,1.99.33.99.37,2.1,1,2.99.52.93.82,1.95,1,2.99-.06-.09-8.9-12.31-4.99-10.85.09,1.36.74,2.47,2.13,2.88Z"/>
        <path class="cls-6" d="M206.85,240.46c-.11.76-.64,1.45-.89,2.16-2.91-4.48-5.89-9.08-8.07-13.96,1.27-3.11,6.34,13.74,8.96,11.81Z"/>
        <path class="cls-6" d="M197.96,226.66c-2.02.52-1.92-1.78-2.7-3.27-1.98-3.75-4.65-6.85-5.3-10.7,2.91,4.46,5.67,9.2,8,13.96Z"/>
        <path class="cls-14" d="M183.04,198.67l-2.22-.06c.08-.56.2-1,.3-1.34.15-.49.74-.83,1.33-.54.68.34.62,1.21.59,1.94Z"/>
        <path class="cls-14" d="M67.96,235.64c-.62-.89-.65-2.1-1.18-2.99.56.21.93.61,1.4,1.23.41.53,1.33,1.73-.22,1.77Z"/>
        <path class="cls-14" d="M236,232.63c-.93.12-1.59-.38-2.04-1.12.8.11,1.54.48,2.04,1.12Z"/>
        <path class="cls-15" d="M117.15,204.81c.69-1.3,1.39-3.36,2.81-4.08-.01,1.81-1.25,3.26-2.81,4.08Z"/>
        <path class="cls-14" d="M239.96,235.64c-.89.13-1.67-.4-1.93-1.25.89,0,1.42.62,1.93,1.25Z"/>
        <path class="cls-12" d="M92.96,242.62c.03-.52.46-.98,1-1-.09.4-.52,1-1,1Z"/>
        <path class="cls-7" d="M199.96,192.76c.36-.31.66-.67,1.09-.88-.42.13-.68.72-1.09.88Z"/>
        <path class="cls-11" d="M175.96,239.63c-.39-.29-.7-.68-.9-1.12l.9,1.12Z"/>
        <path class="cls-3" d="M106.04,91.24c-.9.77-2.31,1.11-3.06,2.75,2.44,3.13,5.91,1.86,8.78.85.91.48,1.84,1.05,2.24,2.04-.61.63-1.4.92-2.15,1.95,2.45,1.09,1.33,3.52,1.28,4.93,2.54-.15,3.32-.02,3.98,1.6,1,2.45.64,3.75-1.24,5.26.96.54,1.27-.31,1.88-.54.47-.18,1.44-.48,1.55.41.06.54-.53,1.75-.29,2.42,2.46,6.95,9.04,6.3,12.86,9.55.36.31,1.2.79.87-.43-.01-.13,2.98.56,2.14,1.52-.65.75-1.92.02-2.96.82,1.31,1.28,3,.18,5.09.89-.63.34-2.29,1.54-1.43,2.31,1.21,1.09,3.16.16,4.39.4.43.32.88.93,1.31.62.75-.54.57-1.63,2.17-1.78-.68,3.59,1.42,4.45,4.11,6.12,1.55.96,4.22-1.32,4.88-2.95.53,0,1.65.12,1.86.61s-.72,2.15.25,2.1c1.31-.18,1.49-1.67,2.14-2.16.3-.22.73.03,1,.68-.29.79-1.19,1.35-1.42,2.26,2.01,2.76,4.28,4.33,7.25,6.66-2.53,1.17-6.04.65-7.09,3.09l.96,4.72c.31,1.55,2.25,2.18,3.56,3.36-.42.88-3.73,1.79-3.18,3.53.93,2.94,4.41-.04,5.99-.24,2.77-.35,7.19,1.14,7.22,4.02-.54.44-.43,1.22-.88,1.99-7.17-4.44-8.75,2.41-18.94-3.9-.13,1.66,1.26,1.95,1.5,2.8.21.75-.7,2.33-1.31,2.09-.76-.56-.09-2.26-.88-2.68-1-.53-2.11,1.1-4.13.87-.55-1.49,1.69-1.05,2.51-2.27l-3.48-1.66c-.08,1.34-.17,1.76-.65,2.43-.94,1.32-2.33,2.39-3.95,1.34.75-1.24,2.19-1.13,3.19-1.84-.69-.69-1.86-1.01-1.92-1.53-.14-1.36,1.7-1.23,2.5-1.72l5.69-3.49c-.33-1.99-2.28-2.86-2.15-4.2l2.55-1.29c.84-.42-.44-2.2-.92-4.45-1.28.16-.72,1.72-1.72,2.77-.99-.37-1.62-1.41-2.45-1.38-1.12.04-1.35,1.86-2.98,2.45-.01-5.04-1.61-10.75-6.11-12.63-.92.38-1.89,1.92-2.96,1.61s-1.49-1.36-2.02-2.82c-1.54.51-1.11,2.03-1.89,3.81-.7-1.07-1.48-2.36-2.61-1.63s-2.28,1.38-1.56,3.15c.25.62.43,1.3.57,2.08.1.57-1.47.35-2.63.33-.54-.01.04-1.02.5-2.18-.74-2.63-3.67-2.66-5.87-2.83l-2.01-.97c-1.87-9.34.97-8.17-.53-10.27-.35-.49-1.6-.76-2.93-.13-.64.31-.26.72-.4,2.01-2.22-1.06-2.29-2.47-1.59-3.59.65-1.05,1.88-1.64,3.82-2.32-.34-1.8-2.8-1.75-4.42-2.84.88-.69,1.81-.62,2.35-.96.83-.52.91-2.56.21-2.67-1.88.63-2.55.76-2.42-.75.11-1.33.26-2.17,1.54-3.38-2.61-1.32-6.65-2.62-9.7-2.07-.61-.41-.89-1.08-1-1.79-.22-1.41.88-4.27-.65-5.54-1.89-1.56-4.42-3.49-2.89-5.9.27-.42,1.46-.22,1.79-.47.47-.35.22-.5.08-.99l6.81-.05ZM117.97,114.49c.3-2.2-2.34-2.17-2.07.11.21,1.46-.34,2.59.49,3.34.67.6,1.81-.28,1.57-1.33-.08-.38-.89-.73,0-2.12ZM156.96,155.36c0-.28-.22-.5-.5-.5s-.5.22-.5.5.22.5.5.5.5-.22.5-.5Z"/>
        <path class="cls-15" d="M201.04,136.01c.37,1.32.71,2.66,1.18,3.94-1.08-.01-2.56-.58-3.64.02-1.18.66-.43,2.49-1.09,4.04-2.06-.46-.8-2.55-2.35-3.36-4.12,5.85-1.75-2.16-7.68-3.98-1.61-.49-2.21,1.28-3.95,2.12,4.6-7.67-4.86-1.99-8-4.95-1.61-1.51-2.65-3.23-2.85-5.77-.8-.67-2.43.57-2.9,1.22-.37.5-.75.78-.87,0,.12-1.88,1.68-1.82,3.78-3.38-3.92-2.51-13.89-3.65-7.79-5.31-3.06-3.34-4.08,2.89-7.29,2.06.02,0-3.92-2.85-3.55-5.78.12-.92,2.43-.96,1.28-2.85-1.86,1.5-3.41,4.91-5.9,3.62-1.73-.9-2.65-2.87-4.89-2.56-1.08.15-2.5,1.38-4.17,2l-6.47-12.28c-.79.94-1.19,2.42-2.17,2.04-.72-.28-1.53-1.04-2.02-1.78l-5.57-8.45c-.99-1.51-4.12-1.22-4.11-3.41,2.01-1.24,13.1,1.51,13.12,4.29,0,.83-1.97,1.45-2.46,2.85,5.1,2.11,15.73.89,19.19,5.51,1.58,2.11,1.32,5.39,5.2,4.62,2.62-.52,6.84-1.43,9.22.49-.39,1.75-3.62,2.69-1.34,4.5,1.08-1.19,1.43-2.64,2.53-2.75,4.27-.42,8.15,4.24,11.48,8.51.9,1.15-1,2.28-1.96,3.33,15.6-1.76,5.55-.57,14.15,2.03,0,1.2-1.78,1.53-1.98,1.99-.31.72,1.02,1.38,1.48,1.29s1.1-1.19,1.76-1.79c2.12.87,1.48,4.83,3.12,6.43,1.76,1.71,5.52.15,7.48,1.48Z"/>
        <path class="cls-6" d="M280.96,153.86c-.71-.15-1.97.14-2,1-.56.05-1.48-.14-2,0,1.54-2.61-.45-9.29-4.05-10.01-.06-1.55.55-4.72-1.81-4.86-1.3-.08-2.52,1.19-3.56.81-.97-.35-1.55-1.35-2.2-2.8-1.29.1-2.07,1.17-3.55,1.57-1.47-.76-2.09-3.19-3.44-4.16-13.02-3.01-7.86-6.3-25.31-1.11-4.33-.43-8.23.46-11.78,2.91-2.24-1.95-5.28-5.4-7.03-4.01l-4.44,3.53c-1.58,1.26-4.65-1.38-6.78-.61-.45-1.73-1.02-4.46-3.06-4.19-.38-2-.75-4.01-.99-6.04,1.19,2.73,3.93,4.2,7.39,3.73s6.45.75,9.29.93c18.16,1.1,6.88-2.79,16.71-2.52,5.1.14,10.27-3.58,14.65-5.73,3.28-1.61,5.06,1.27,7.41,1.98,1.98.6,4.38.4,5.85.75,3.04.73,2.19,5.08,3.67,5.93,5.08,2.93,10.92,6.43,14.61,12.44.86,1.4,8.19,5.7,7.31,8.59-.76,2.48-3.03,2.28-4.89,1.88Z"/>
        <path class="cls-8" d="M113.92,91.75l-2.17,3.1c-2.87,1.01-6.35,2.28-8.78-.85.75-1.64,2.16-1.98,3.06-2.75,2.74-.02,5.16.06,7.89.51Z"/>
        <path class="cls-8" d="M193.66,110.06c-.73.41-.66-.6-.73-1.05,1.57-.31,2.62.53.73,1.05Z"/>
        <path class="cls-4" d="M74.03,154.53c1.6,1.54,2.46,3.95,3.86,5.5-6.29-2.87-1.46.84-11.95,8.85-1.77,1.35-3.27,2.4-5.11,1.51-1.85-.9-2.59-3.25-1.8-5.39,1.51-4.05,1.35-7.89,2.11-12.06l1.82-10.04c-.31-2.14,1.4-2.43,1.02-.14,2.03,5.08,6.5,8.37,10.05,11.78Z"/>
        <circle class="cls-12" cx="84.1" cy="122.09" r=".98"/>
        <path class="cls-12" d="M86.55,183.05c-1.47.89-2.23,2.43-3.58,4.02-1.18-.46-1.27-1.48-1.92-1.96-1.62,1.61.22,3.27,1.12,4.04,1.51,1.29,2.92-.76,4.05-2.87,2.46.7,2.39,3.45,4.37,4.82.59.41,1.83-.04,2.45.18.55.19.19,1.8.96,2.38,1.3.98,3.29.87,3.72,1.83.72,1.6.3,3.16.23,4.44-7.19,3.13-.32-4.83-13.82-6.26-1.53-.16-3.8-1.72-4.96-2.75-2.66-2.38-2.97-4.33-1.61-6.99,1.67-3.27,2.96-3.05,6.88-2.75.65.05,2.21-1.15,2.38.19.08.61-.35,1.21-.26,1.7Z"/>
        <path class="cls-10" d="M84.17,238.84c.38-.53,1.65-.13,2.2-.2.43-.05.89.75.57,1.47-.37.84-1.12.41-1.51.53-1.03.32-2.14-.58-1.27-1.81Z"/>
        <path class="cls-10" d="M96.96,240.63c-.52-.25-1.41.15-2,0-.06-.74-.23-1.69.52-2,.61-.25,1.25-.02,1.47.51.17.41-.04.99,0,1.49Z"/>
        <path class="cls-6" d="M115.96,132.92c.15.73-.4,1.86.23,2.75.5.7,1.57.28,1.76-.26.14-.41-.04-1.03.01-1.52,2.2.17,5.13.19,5.87,2.83-.46,1.15-1.03,2.16-.5,2.18,1.16.02,2.73.24,2.63-.33-.14-.78-.31-1.46-.57-2.08-.72-1.76.44-2.42,1.56-3.15s1.91.56,2.61,1.63c.77-1.78.34-3.3,1.89-3.81.53,1.46.98,2.53,2.02,2.82s2.04-1.23,2.96-1.61c4.5,1.88,6.09,7.59,6.11,12.63,1.63-.59,1.86-2.42,2.98-2.45.83-.03,1.46,1.01,2.45,1.38.99-1.05.44-2.61,1.72-2.77.48,2.25,1.75,4.02.92,4.45l-2.55,1.29c-.13,1.34,1.82,2.21,2.15,4.2l-5.69,3.49c-.8.49-2.64.36-2.5,1.72.05.53,1.22.84,1.92,1.53-1,.71-2.44.6-3.19,1.84,1.62,1.05,3-.02,3.95-1.34.48-.67.57-1.09.65-2.43l3.48,1.66c-.83,1.22-3.06.78-2.51,2.27,2.03.23,3.13-1.4,4.13-.87.79.42.12,2.12.88,2.68.62.24,1.52-1.35,1.31-2.09-.24-.85-1.63-1.14-1.5-2.8,10.19,6.31,11.77-.54,18.94,3.9.45-.77.34-1.54.88-1.99,1.22-.64,2.74.15,3.96-.26-.63,1.95-4.09,3.95-3.32,9.68,1.93-2.18,2.22-3.65,3.89-4.32,2.71-1.08,4.34,1.16,6.56,1.37,2.57.24,4.96-1.02,6.59,2.21.14.27,1.27.14,1.58.13s.73-.74.48-.94l-1.71-1.38c2.46-.23,5.16-.3,8.02-.13,2.77-3.48,5.76-5.23,9.68-5.18l1.3.02c2.64,2.1,2.78,5.79,3.06,8.99-1.32-2.14-2.92-1.78-4.95-.91l-6.66,2.82c2.86-1.21-17.95,4.12-14.82,2.08-.93.6-1.23,1.49-2.08,3-.8-.65-.62-1.52-.92-2.12-.56-1.15-1.72-.54-2.94-.62l-8.18-.54c.62-1.67,1.14-2.71,1.25-3.46-3.35,1.03-4.88,3.53-7.5,3.43.02-.96,1.26-1.69,1.16-2.39-.17-1.22-2.34-1.85-3.02-2.79-.53-.71.6-1.35.85-1.72.39-.58-.34-1.69-.98-1.63-.74.07-1.57.5-1.79.9-.42.78.74,1.53.64,3.7-2.29-.1-2.19-3.03-4.35-4.84l-.78,7.07h-1l-2.86-4.11c-1.35.89-2.03,1.9-2.83,2.08-4.7,1.06-6.24-6.63-8.88-8.33-2.16-1.39-5.36-.52-7.43-1.6,0-.58.26-1.16.24-1.74,1.48.09,2.63-.84,3.4-2.12.64-1.06.61-3.64-1.8-3.51-1.7.09-2.55,3.09-3.07,4.31-1.15-.24-1.17.9-2.05,2.85-1.6-2.4-4.05-1.32-7.19.03-1.09-1.26.5-2.4.49-3.66,5.01.24.93-3.03,2.8-7.85-1.31-.34-4.17-.45-4.08-1.39.29-3.07-1.19-3.92-2.24-5.76-1.36-2.41-3.58-1.17-5.95-2l-.11-4.11c-.04-1.51-8.2-3.45-8.46-3.33-1.1.51-1.51,2.22-1.31,3.12-3.62-1.48-3.9-5.87-2.88-9.85l-3.94-2.96c1.02-4.15,1.19-8.03.15-11.71,2.26.35,3.69-2.08,4.93-3.21,3.06-.55,7.09.74,9.7,2.07-1.28,1.21-1.43,2.05-1.54,3.38-.13,1.5.54,1.37,2.42.75.7.11.62,2.14-.21,2.67-.53.34-1.46.27-2.35.96,1.62,1.09,4.08,1.03,4.42,2.84-1.94.68-3.17,1.27-3.82,2.32-.69,1.12-.63,2.53,1.59,3.59.13-1.29-.25-1.7.4-2.01,1.32-.63,2.58-.36,2.93.13,1.5,2.1-1.35.93.53,10.27ZM104.96,109.48c0-.28-.22-.5-.5-.5s-.5.22-.5.5.22.5.5.5.5-.22.5-.5ZM109.06,112.69c-.57-1.04-1.11-.62-1.24.51.15,2.32,1.35,2.05,1.24-.51ZM151.96,164.33c0-.28-.22-.5-.5-.5s-.5.22-.5.5.22.5.5.5.5-.22.5-.5Z"/>
        <path class="cls-5" d="M122.97,155.02c-1.99-.1-5.72,2.28-7.97.91-2.03-1.23-4.79-.89-6.92-.36.5-1.35,1.15-2.78.21-2.69-2.29,1.37-1.76,3.19.05,5.39-11,1.18-11.12,14.84-15.81,7.53-1.24.59-.69,1.94-.58,3.02-.61.09-1.23.14-1.85.15.11-.56.54-1,.65-1.83-2.33-.04-3.03-1.19-3.92-2.24-.35-2.55,2.04-2.83,4.23-4.47,1.4-1.05,2.42.13,4.71,1.17.4-3-1.1-4.34-.58-6.46,2.22-.2,3.86-.3,5.27-2.12.79-1.02,1.11-2.29.85-4.29,2.95,1.97,4.58,2.07,7.01,2.01.75.12,1.3.75,1.73.54,2.7-1.32-1.36-3.97.98-4.25.31-.04.62.59,1.71-.24-4.61-3.44,1.98-6.29-1.1-7.91-3.51-1.84-4.14,3.23-6.49,3.32-.4-3.45-.99-5.93-1.54-8.5-.19-.9.22-2.6,1.31-3.12.26-.12,8.42,1.82,8.46,3.33l.11,4.11c2.37.82,4.59-.42,5.95,2,1.04,1.85,2.52,2.69,2.24,5.76-.09.94,2.77,1.05,4.08,1.39-1.87,4.83,2.21,8.1-2.8,7.85Z"/>
        <path class="cls-3" d="M86.85,164.9c.89,1.05,1.59,2.2,3.92,2.24-.11.83-.54,1.28-.65,1.83l-.35,1.77c-.8-.51-1.78-.74-2.65-1.11l-4.19-4.84c.92-.47,3.07-.64,3.93.1Z"/>
        <path class="cls-6" d="M265.95,124.93c.15.52-.18.89-.52,1.01-.87.29-1.6-.2-1.47-1h1.99Z"/>
        <path class="cls-3" d="M122.97,155.02c.02,1.26-1.58,2.4-.49,3.66,3.14-1.36,5.59-2.44,7.19-.03.88-1.95.9-3.09,2.05-2.85-1.19,2.77-.74,5.86-1.04,8.81-.18-.03-.4.06-.59.08-2.2.24-2.73,4.66-1.14,6.13.28.63-.68,1.57-1,1.99h-1c.05-5.44-6.16.06-6.33-9.05l-8.17,8.04c-.62-.48-1.2-3.72-2.76-3.55-10.87,2.94-3.67.18-10.78,5.71-1.03.72-.33,2.29-1.51,2.92-.74-1.06-1-1.78-1.58-2.31-.44-.4-1.27-.32-1.91.28l-1.95-.42c-.21-.46-.02-1.1-.27-1.53l.26-1.19c1.83-1.73,4.62-.1,6.79-.23.05-4.23,4.67-5.92,8.46-7.34.36-1.43.18-1.95.88-2.07,1.21-.19,3.05-.76,3.52-.22.7.79-.2,3.35.52,3.7,3.6,1.76,4.59-10.26,2.87-9.61,2.25,1.37,5.98-1.01,7.97-.91Z"/>
        <path class="cls-6" d="M115.01,155.93c1.72-.65.73,11.37-2.87,9.61-.72-.35.18-2.92-.52-3.7-.48-.53-2.32.03-3.52.22-.7.11-.52.64-.88,2.07-3.79,1.42-8.41,3.1-8.46,7.34-2.17.13-4.96-1.5-6.79.23-.25.23-.82.06-1.12.23-.36-.35-.67-.92-1.08-1.19l.35-1.77c.62-.01,1.23-.07,1.85-.15-.12.74.41,1.36,0,0-.11-1.07-.66-2.42.58-3.02,4.7,7.3,4.82-6.35,15.81-7.53-1.81-2.2-2.35-4.02-.05-5.39.94-.09.29,1.34-.21,2.69,2.13-.53,4.88-.88,6.92.36Z"/>
        <path class="cls-1" d="M91.7,172.9c-.18-.33-.59-.7-.86-.96.3-.17.87,0,1.12-.23l-.26,1.19Z"/>
        <path class="cls-7" d="M91.96,174.42l1.95.42,4,5.82c-2.35.78-10.8,5.41-11.37,2.4-.09-.49.34-1.08.26-1.7-.17-1.34-1.73-.14-2.38-.19-3.92-.3-5.21-.52-6.88,2.75-1.36,2.66-1.05,4.61,1.61,6.99l-.36,2.02c-1.92.3-1.52-2.75-3.01-3.45-1.16-.55-3.77.34-3.56-2.06.17-1.93,1.78-3.99.04-6.37,1.04,1.01,2.69.91,4.34,1.29.58-1.61.95-3.08,1.68-3.83,1.12-1.16,3.28-.14,4.63-.83,3.2-1.62,5.66-3.99,9.05-3.26Z"/>
        <path class="cls-1" d="M204.96,229.66v2.99c-3.03-4.82-5.31-20.62-8.02-29.65-.74-2.47-1.97-4.6.02-6.25,3.42,10.76,5.74,21.85,8,32.91Z"/>
        <path class="cls-8" d="M285.89,132.92c-1.83,5.14,9.46,11.04,5.07,16.95-3.97,0-1.14-4.81-7.22-8.77-4.88-3.18-8.83-7.95-9.75-13.34,2.7-.3,10.73,4.14,11.89,5.15Z"/>
        <path class="cls-10" d="M132.85,165c-.24.97-.17,2.06.22,2.89-.81,4.39-.09,7.44,3.85,10.08,2.6,1.74,4.72,3.92,7.94,2.51.55-.24,1.24-.06,1.8-.02,2.03,4.5,4.52,4.13,10.33,3.43-.11,1.74,1.82,1.86,2.96,2.73-1.92,2.03-5.41.42-7.94,1.42-5.91,2.32-11.49,1.23-15.52-3.95-.97-1.24-3.37-1.88-3.18-3.99.1-1.08.18-2.13-.29-2.92-.57-.95-1.68-1.4-2.81-1.31.36-1.48-.35-3.49-.25-5.05.13-2.08.86-4.17.14-6.13.19-.02.41-.11.59-.08l2.17.39Z"/>
        <path class="cls-2" d="M220.71,175.97c-1.13,2.44-4.02,3.38-5.79,5.89-2.06,2.91-4.64,5.64-7.95,5.92,2.24-2.1,4.1-4.56,6.19-6.8.82-.88.81-1.99.81-3.18l1.08.02c2.08.05,3.89-.88,5.67-1.86Z"/>
        <path class="cls-12" d="M213.96,177.8c0,1.18,0,2.3-.81,3.18-.21-.97-.37-1.95-.46-2.93l1.28-1.24v1Z"/>
        <path class="cls-1" d="M202.22,139.95c.74,2.01,1.48,4.04,2.57,5.89l3.17,12.01c.16.62-.11,1.36,0,1.99l-1.3-.02c-.28-1.16.09-3.7-.88-4.63-3.19-1.12-6.34-.22-9.04.63-.05-1.5-1.42-1.9-2.78-1.93-.06-.43.12-.88,0-1.47-.07-.38-.57-.89-.94-.05-.17.39.1,1.21-.06,1.5-1.4.73-1.93-1.5-2.54-2.66-2.49.49-3.13,3.84-1.94,7.29-3.17.38-3.89-2.85-7.09-3.32.11-1.12,1.1-1.15,2.22-1.85-1.51-2.36-4.16-2.94-6.89-3.92l1.88-3.33c-1.84-1.14-.84-3.35-.75-5.1-2.49.25-5.05,1.22-7.77.04-1.11,1.1-.77,2.39-2.05,3.02-.35-1.73-.08-2.92-1.06-3.6-.79-.54-1.76.18-3.34-1.06,5.1-1.92.74-6.19,6.14-4.87-1.1-2.3,1.04-3.69-.01-5.21.48-.65,2.1-1.89,2.9-1.22.2,2.54,1.24,4.26,2.85,5.77,3.14,2.96,12.6-2.72,8,4.95,1.74-.83,2.35-2.61,3.95-2.12,5.93,1.82,3.56,9.83,7.68,3.98,1.55.81.29,2.91,2.35,3.36.66-1.54-.09-3.38,1.09-4.04,1.08-.6,2.56-.03,3.64-.02ZM185.09,140.9c0-.35-.28-.63-.63-.63s-.63.28-.63.63.28.63.63.63.63-.28.63-.63Z"/>
        <path class="cls-5" d="M272.91,144.85l-11.98-2.41c-5.93-1.19-12.54-1.58-17.7.75-3.24,1.47-6.39.48-9.47,1.07-1.94.37-3.97-.87-5.9-.85-.97-1.59-2.48-3.06-4.74-3.36-2.53.92-4.96,1.19-7.5.22-3.76.87-7.31.73-10.8.64-1.39-1.21-1.38-3.14-1.81-4.79,2.12-.76,5.19,1.87,6.78.61l4.44-3.53c1.74-1.39,4.79,2.06,7.03,4.01,3.55-2.45,7.46-3.34,11.78-2.91,17.45-5.18,12.29-1.9,25.31,1.11,1.36.97,1.97,3.4,3.44,4.16,1.48-.41,2.26-1.48,3.55-1.57.65,1.44,1.23,2.44,2.2,2.8,1.03.38,2.25-.89,3.56-.81,2.37.14,1.75,3.31,1.81,4.86Z"/>
        <path class="cls-12" d="M227.86,143.41c-2.34,1.68-4.95,1.56-8.03.9-5.42-1.15-16.19,1.76-15.01-3.41,3.48.09,7.04.23,10.8-.64,2.54.97,4.97.7,7.5-.22,2.26.3,3.77,1.77,4.74,3.36Z"/>
        <path class="cls-9" d="M230.22,169.75l-5.14,3.83c-1.77.07-3.4.89-4.36,2.38-1.78.97-3.59,1.9-5.67,1.86.55-5.27-3.4-10.18-2.93-15.89,3.94-.82,21.38.74,18.1,7.82Z"/>
        <path class="cls-2" d="M231.63,169.73c-1.25,2.46-3.45,4.19-6.56,3.86l5.14-3.83c.47-.04.94-.05,1.42-.02Z"/>
        <path class="cls-4" d="M212.11,161.93c-.48,5.71,3.48,10.62,2.93,15.89l-1.08-.02v-1c-.29-.36-.64-.66-1.03-.91.16-2.5-.25-5.1-1.91-7.05-.28-3.2-.42-6.89-3.06-8.99-.11-.64.16-1.37,0-1.99,2.64-.36,1.41,2.9,4.15,4.08Z"/>
        <path class="cls-14" d="M188.96,209.71c-.63-.89-.67-2-1-2.99.6-.02,1.68-.29,1.99.52s-.31,1.94-.99,2.47Z"/>
        <path class="cls-11" d="M137.88,237.6c.73-.15.91-.09.82-.03s-.45.14-.82.03Z"/>
        <path class="cls-5" d="M99.02,181.47c.07,1.34,1.17,1.6,2.05,2.16,1.58,1,2.79,2.57,3.82,4.09-1.39-.9-3.12-1.63-5.18-2.46-.54,2.03,1.16,2.25,1.08,3.05-.13,1.27-1.15,1.79-1.46,3.2,4.05.17,8,3.38,7.66,7.44-.25,3.12,7.82,3.49,7.86,7.2,0,.93-.98,1.48-1.88,1.7-2.96-1.65-6.61-.96-10.29-1.45-2.43-1.88-2.45-5.13-4.75-6.47.08-1.28.49-2.83-.23-4.44-.43-.96-2.42-.84-3.72-1.83-.78-.58-.41-2.19-.96-2.38-.62-.22-1.86.23-2.45-.18-1.98-1.37-1.9-4.12-4.37-4.82-1.13,2.11-2.54,4.16-4.05,2.87-.9-.77-2.73-2.42-1.12-4.04.66.48.74,1.5,1.92,1.96,1.35-1.59,2.11-3.13,3.58-4.02.57,3.01,9.02-1.62,11.37-2.4.19.33.85.49,1.1.82Z"/>
        <path class="cls-1" d="M106.02,172.81c.21,1.33,1.34,2.14,2.48,2.16,1.53.03,2.41-.97,3.1-2.2.8,5.49,3.88,3.89,3.54,9.09-1.63,3.13-7.02,4.5-10.49,2.9-1.66-.77-2.32-3.99-4.63-3.13-.28.11-.69-.21-.99-.16-.25-.32-.92-.49-1.1-.82l-4-5.82c.64-.6,1.47-.68,1.91-.28.57.53.84,1.25,1.58,2.31,1.18-.63.49-2.19,1.51-2.92.28.59.9,1.19.3,2.58,1.03-.86,2.43-1.01,3.67-1.7.66-.37,1.03-1.15,1.25-1.83.29.03.59.02.87-.05.33-.09.66-.14,1-.13Z"/>
        <path class="cls-1" d="M122.87,181.75c-.85.35-.98,2.21-1.97,1.44-1.31-1.02-1.73-2.14-2.18-3.27-.5-1.25-1.92-1.65-2.8-2.8,3.26,2.06,4.99-4.91,7.55-1.81,1.41,1.69.13,4.8-.6,6.45Z"/>
        <circle class="cls-1" cx="118.96" cy="184.28" r=".63"/>
        <circle class="cls-1" cx="120.46" cy="186.27" r=".5"/>
        <path class="cls-12" d="M280.96,153.86c-.21.95-1.21.92-2,1,.03-.85,1.29-1.15,2-1Z"/>
        <path class="cls-15" d="M130.1,164.69c.72,1.96,0,4.05-.14,6.13h-1c-1.6-1.46-1.06-5.89,1.14-6.13Z"/>
        <path class="cls-8" d="M132.72,122.04c.34,1.22-.5.74-.87.43-3.82-3.25-10.4-2.6-12.86-9.55-.24-.67.36-1.88.29-2.42-.1-.89-1.08-.59-1.55-.41-.61.23-.92,1.08-1.88.54,1.88-1.52,2.24-2.81,1.24-5.26-.66-1.62-1.44-1.75-3.98-1.6.05-1.42,1.17-3.85-1.28-4.93.76-1.03,1.54-1.32,2.15-1.95.87,0,2.73-1.32,3.93-.58,3.86,2.37,4.95,7.22,4.37,11.48.77,1.18,3.08.89,4.68.92.15.76-.62,1.2-.89,2.11,1.61,1.81,1.85,3.89,2.3,6.17,2-.58,1.01-2.2,2.02-4.06,1.43,1.78,1.01,3.97.91,6.36-.04,1.08,1.31,1.84,1.39,2.75Z"/>
        <path class="cls-8" d="M152.42,130c-.66,1.64-3.33,3.91-4.88,2.95-2.7-1.67-4.79-2.52-4.11-6.12-1.61.15-1.42,1.24-2.17,1.78-.43.31-.88-.3-1.31-.62,1.64-2.33,4.44-3.63,7.6-4.53-.17,1.77-1.89,2.73-1.86,5.03,2.82-.11,6.81-1.57,6.73,1.5Z"/>
        <path class="cls-8" d="M117.97,114.49c-.89,1.39-.08,1.74,0,2.12.23,1.06-.91,1.93-1.57,1.33-.83-.75-.28-1.88-.49-3.34-.27-2.28,2.36-2.31,2.07-.11Z"/>
        <path class="cls-5" d="M117.96,133.89c-.05.5.13,1.12-.01,1.52-.19.54-1.26.96-1.76.26-.63-.89-.09-2.01-.23-2.75l2.01.97Z"/>
        <circle class="cls-8" cx="156.46" cy="155.36" r=".5"/>
        <path class="cls-1" d="M120.02,93.2c0,2.19,3.12,1.9,4.11,3.41l5.57,8.45c.49.74,1.3,1.5,2.02,1.78.98.38,1.38-1.1,2.17-2.04l6.47,12.28c1.68-.62,3.1-1.85,4.17-2,2.24-.31,3.16,1.66,4.89,2.56,2.49,1.29,4.04-2.12,5.9-3.62,1.15,1.89-1.16,1.93-1.28,2.85-.37,2.93,3.57,5.78,3.55,5.78,3.22.84,4.23-5.4,7.29-2.06-6.11,1.65,3.87,2.8,7.79,5.31-2.1,1.56-3.66,1.5-3.78,3.38-.15,2.35-9.82,1.47-7.06,2.02-1.45-.29-2.77-1.24-4.16-.06-.26-.65-.7-.9-1-.68-.66.49-.83,1.98-2.14,2.16-.96.04-.05-1.63-.25-2.1s-1.32-.62-1.86-.61c.08-3.07-3.91-1.61-6.73-1.5-.02-2.3,1.69-3.26,1.86-5.03-3.16.89-5.96,2.2-7.6,4.53-1.23-.24-3.19.69-4.39-.4-.86-.77.8-1.97,1.43-2.31-2.09-.72-3.78.39-5.09-.89,1.04-.8,2.31-.08,2.96-.82.84-.96-2.16-1.65-2.14-1.52-.08-.91-1.43-1.67-1.39-2.75.09-2.39.51-4.58-.91-6.36-1,1.87-.02,3.48-2.02,4.06-.45-2.28-.69-4.37-2.3-6.17.27-.91,1.03-1.34.89-2.11-1.6-.03-3.92.25-4.68-.92.57-4.26-.51-9.11-4.37-11.48-1.21-.74-3.06.57-3.93.58-.4-.99-1.32-1.56-2.24-2.04l2.17-3.1c1.97.32,4.46.02,6.1,1.45Z"/>
        <path class="cls-5" d="M154.96,170.82c-.03,1.18,1.04,1.16,1,0l.78-7.07c2.15,1.81,2.06,4.75,4.35,4.84.1-2.17-1.06-2.92-.64-3.7.21-.4,1.04-.82,1.79-.9.64-.06,1.38,1.06.98,1.63-.25.37-1.38,1.01-.85,1.72.69.94,2.85,1.56,3.02,2.79.1.71-1.14,1.43-1.16,2.39-1.34-1.76-12.36,3.12-14.3,2.47l-7.58-2.54c-1.33-.62-1.49-3.61-3.08-4.03-7.68-2.05-1.72-6.92-6.31-6.57v-2.99c2.07,1.08,5.27.21,7.43,1.6,2.64,1.7,4.18,9.4,8.88,8.33.8-.18,1.48-1.19,2.83-2.08l2.86,4.11Z"/>
        <path class="cls-5" d="M133.2,157.11c-.04-1.02-.66-1.14-1.47-1.31.52-1.22,1.38-4.22,3.07-4.31,2.41-.13,2.44,2.44,1.8,3.51-.77,1.27-1.92,2.2-3.4,2.12Z"/>
        <path class="cls-7" d="M133.2,157.11c.03.59-.24,1.17-.24,1.74v2.99c0,1.03.14,2.16-.11,3.16l-2.17-.39c.31-2.95-.15-6.04,1.04-8.81.82.17,1.43.3,1.47,1.31Z"/>
        <path class="cls-3" d="M109.06,112.69c.12,2.56-1.08,2.83-1.24.51.13-1.13.67-1.55,1.24-.51Z"/>
        <circle class="cls-3" cx="104.46" cy="109.48" r=".5"/>
        <path class="cls-3" d="M91.96,168.82c.2.68.17.87.11.79s-.17-.42-.11-.79Z"/>
        <path class="cls-12" d="M164.23,172.52c2.61.1,4.15-2.4,7.5-3.43-.11.75-.63,1.79-1.25,3.46l8.18.54c1.22.08,2.38-.53,2.94.62.29.61.11,1.47.92,2.12.84-1.51,1.14-2.4,2.08-3-3.13,2.03,17.68-3.3,14.82-2.08l6.66-2.82c2.03-.86,3.64-1.22,4.95.91,1.65,1.95,2.07,4.55,1.91,7.05-1.64-3.12-2.91-4.71-6.53-4.27-3.12.38-5.62,1.12-6.55,5.03l-3.8-1.94c-3.68,2.92-7.79,2.9-11.99,1.04.03,1.25.8,1.79.78,2.62-.04,1.75-5.06,3.16-7.37,4.16-2.69-2.21-5.71-2.41-8.33-.98.42-1.5,1.89-1.06,1.79-2.69-3.51,2-7.16.42-10.88.81-1.7.18-2.42.45-4.34-.19-2.18-.72-6.01,1.38-8.11-1.17-.92.33-.98,1.53-.95,2.14-.56-.04-1.25-.22-1.8.02-.1-.49.3-1.47-.01-1.91-.62-.87-1.97-.03-2.96-.17-1.38-.21-1.48-2.29-2.63-2.77-7.35-3.06.33-8.56-6.19-7.74-.38-.83-.46-1.91-.22-2.89s.11-2.13.11-3.16c4.59-.34-1.37,4.53,6.31,6.57,1.59.42,1.75,3.41,3.08,4.03l7.58,2.54c1.94.65,12.95-4.23,14.3-2.47Z"/>
        <path class="cls-7" d="M144.86,180.48c-3.22,1.41-5.33-.77-7.94-2.51-3.95-2.64-4.66-5.69-3.85-10.08,6.52-.82-1.15,4.68,6.19,7.74,1.14.48,1.25,2.56,2.63,2.77.99.15,2.34-.7,2.96.17.31.44-.09,1.43.01,1.91Z"/>
        <path class="cls-3" d="M206.66,159.83c-3.91-.06-6.9,1.7-9.68,5.18-2.85-.16-5.56-.09-8.02.13l1.71,1.38c.25.2-.18.92-.48.94s-1.44.14-1.58-.13c-1.63-3.24-4.01-1.97-6.59-2.21-2.22-.2-3.85-2.45-6.56-1.37-1.67.67-1.96,2.14-3.89,4.32-.77-5.73,2.69-7.73,3.32-9.68,1.37-.46,2.75-.11,3.6.89,2.65-.4,6.36-.35,8.56,2.91,4.12-1.7,6.04-5.23,9.67-6.37,2.7-.85,5.85-1.75,9.04-.63.97.94.6,3.47.88,4.63ZM199.96,159.35c0-.28-.22-.5-.5-.5s-.5.22-.5.5.22.5.5.5.5-.22.5-.5Z"/>
        <path class="cls-3" d="M193.96,153.89l-1-.03c.16-.29-.11-1.11.06-1.5.37-.83.87-.33.94.05.11.59-.06,1.04,0,1.47Z"/>
        <circle class="cls-15" cx="184.46" cy="140.9" r=".63"/>
        <path class="cls-7" d="M101.07,183.63c-.88-.56-1.98-.82-2.05-2.16.3-.05.71.26.99.16l1.06,2Z"/>
        <path class="cls-3" d="M102.89,174.83c-.04-.42.09-.86.2-1.38.12-.57.42-.84,1.05-.45-.22.68-.59,1.47-1.25,1.83Z"/>
        <path class="cls-3" d="M106.02,172.81c-.34-.01-.67.04-1,.13-.21-1.22.91-1.38,1-.13Z"/>
        <path class="cls-8" d="M126.96,172.81c-.53,3.09-1.03,7.69-4.09,8.94.73-1.65,2-4.75.6-6.45-2.57-3.09-4.29,3.87-7.55,1.81.88,1.16,2.3,1.55,2.8,2.8-.92,1.08-2.14,1.85-3.58,1.94.34-5.2-2.75-3.6-3.54-9.09-.69,1.23-1.57,2.23-3.1,2.2-1.14-.02-2.27-.83-2.48-2.16-.09-1.25-1.21-1.1-1,.13-.29.07-.58.08-.87.05-.64-.39-.94-.11-1.05.45-.11.52-.24.97-.2,1.38-1.24.69-2.64.84-3.67,1.7.61-1.39-.02-1.98-.3-2.58,7.11-5.52-.09-2.77,10.78-5.71,1.56-.17,2.14,3.08,2.76,3.55l8.17-8.04c.17,9.11,6.38,3.62,6.33,9.05Z"/>
        <circle class="cls-3" cx="151.46" cy="164.33" r=".5"/>
        <path class="cls-12" d="M154.96,170.82h1c.04,1.16-1.03,1.18-1,0Z"/>
        <circle class="cls-1" cx="174.96" cy="150.87" r="1.11"/>
        <circle class="cls-1" cx="190.46" cy="156.36" r=".5"/>
        <path class="cls-7" d="M212.93,175.89c.39.25.74.55,1.03.91l-1.28,1.24c-8.99,2.73-5.84-.76-8.06-.17-4.71,1.24-2.19,5.76-9.55,6.18-1.52.09-3.6,2.03-5.01.96-3.03-2.27-4.92-.08-7.71.35-6.68,1.03-17.45-2.42-25.36-1.47-5.8.7-8.29,1.07-10.33-3.43-.03-.6.02-1.8.95-2.14,2.09,2.55,5.93.45,8.11,1.17,1.92.64,2.64.37,4.34.19,3.72-.39,7.37,1.19,10.88-.81.1,1.63-1.37,1.19-1.79,2.69,2.63-1.43,5.64-1.23,8.33.98,2.31-.99,7.32-2.41,7.37-4.16.02-.83-.75-1.37-.78-2.62,4.2,1.86,8.32,1.88,11.99-1.04l3.8,1.94c.93-3.91,3.43-4.65,6.55-5.03,3.62-.44,4.89,1.15,6.53,4.27Z"/>
        <path class="cls-8" d="M169.75,129.29c1.06,1.52-1.09,2.91.01,5.21-5.41-1.32-1.04,2.95-6.14,4.87,1.58,1.24,2.56.52,3.34,1.06.98.68.71,1.87,1.06,3.6,1.28-.63.94-1.92,2.05-3.02,2.72,1.18,5.27.21,7.77-.04-.09,1.75-1.09,3.97.75,5.1l-1.88,3.33c2.74.98,5.39,1.56,6.89,3.92-1.12.7-2.12.73-2.22,1.85,3.21.47,3.93,3.7,7.09,3.32-1.19-3.45-.54-6.79,1.94-7.29.61,1.16,1.14,3.39,2.54,2.66l1,.03c1.36.04,2.74.44,2.78,1.93-3.64,1.14-5.56,4.67-9.67,6.37-2.2-3.27-5.91-3.31-8.56-2.91-.85-1.01-2.23-1.35-3.6-.89-1.22.41-2.74-.38-3.96.26-.02-2.88-4.45-4.37-7.22-4.02-1.58.2-5.07,3.18-5.99.24-.55-1.74,2.76-2.66,3.18-3.53-1.31-1.18-3.25-1.81-3.56-3.36l-.96-4.72c1.04-2.45,4.56-1.93,7.09-3.09-2.97-2.33-5.24-3.9-7.25-6.66.23-.92,1.13-1.47,1.42-2.26,1.39-1.19,2.71-.24,4.16.06-2.76-.55,6.91.33,7.06-2.02.11.79.5.51.87,0ZM176.07,150.87c0-.61-.5-1.11-1.11-1.11s-1.11.5-1.11,1.11.5,1.11,1.11,1.11,1.11-.5,1.11-1.11ZM190.96,156.36c0-.28-.22-.5-.5-.5s-.5.22-.5.5.22.5.5.5.5-.22.5-.5Z"/>
        <circle class="cls-6" cx="199.46" cy="159.35" r=".5"/>
      </g>
    </g>
  </g>
</svg>